<svg xmlns="http://www.w3.org/2000/svg" width="16" height="16" viewBox="0 0 16 16" fill="none">
  <mask id="path-1-inside-1_693_12615" fill="white">
    <path fill-rule="evenodd" clip-rule="evenodd" d="M2.16669 6.76187C2.16669 3.49586 4.77003 0.833008 8.00002 0.833008C11.23 0.833008 13.8334 3.49586 13.8334 6.76187C13.8334 8.3386 13.384 10.0316 12.5897 11.4942C11.7963 12.9551 10.6371 14.2245 9.18703 14.9023C8.43373 15.2544 7.56631 15.2544 6.81301 14.9023C5.36293 14.2245 4.20377 12.9551 3.41039 11.4942C2.61604 10.0316 2.16669 8.3386 2.16669 6.76187ZM8.00002 1.83301C5.33898 1.83301 3.16669 4.03133 3.16669 6.76187C3.16669 8.15992 3.56844 9.68995 4.28916 11.017C5.01085 12.3458 6.0307 13.4328 7.23645 13.9963C7.72139 14.223 8.27865 14.223 8.76359 13.9963C9.96934 13.4328 10.9892 12.3458 11.7109 11.017C12.4316 9.68995 12.8334 8.15992 12.8334 6.76187C12.8334 4.03133 10.6611 1.83301 8.00002 1.83301ZM8.00002 5.16634C7.17159 5.16634 6.50002 5.83791 6.50002 6.66634C6.50002 7.49477 7.17159 8.16634 8.00002 8.16634C8.82845 8.16634 9.50002 7.49477 9.50002 6.66634C9.50002 5.83791 8.82845 5.16634 8.00002 5.16634ZM5.50002 6.66634C5.50002 5.28563 6.61931 4.16634 8.00002 4.16634C9.38073 4.16634 10.5 5.28563 10.5 6.66634C10.5 8.04705 9.38073 9.16634 8.00002 9.16634C6.61931 9.16634 5.50002 8.04705 5.50002 6.66634Z"/>
  </mask>
  <path d="M12.5897 11.4942L11.5351 10.9215L12.5897 11.4942ZM9.18703 14.9023L8.6789 13.8152L8.6789 13.8152L9.18703 14.9023ZM6.81301 14.9023L7.32114 13.8152L7.32114 13.8152L6.81301 14.9023ZM3.41039 11.4942L4.46491 10.9215L3.41039 11.4942ZM4.28916 11.017L3.23464 11.5897H3.23464L4.28916 11.017ZM7.23645 13.9963L6.72833 15.0835H6.72833L7.23645 13.9963ZM8.76359 13.9963L8.25547 12.9092L8.76359 13.9963ZM11.7109 11.017L12.7654 11.5897L11.7109 11.017ZM8.00002 0.833008V-0.366992C4.08678 -0.366992 0.966687 2.85381 0.966687 6.76187H2.16669H3.36669C3.36669 4.1379 5.45328 2.03301 8.00002 2.03301V0.833008ZM13.8334 6.76187H15.0334C15.0334 2.85381 11.9133 -0.366992 8.00002 -0.366992V0.833008V2.03301C10.5468 2.03301 12.6334 4.1379 12.6334 6.76187H13.8334ZM12.5897 11.4942L13.6442 12.067C14.5269 10.4416 15.0334 8.55304 15.0334 6.76187H13.8334H12.6334C12.6334 8.12417 12.2411 9.6216 11.5351 10.9215L12.5897 11.4942ZM9.18703 14.9023L9.69515 15.9894C11.4385 15.1745 12.7648 13.686 13.6442 12.067L12.5897 11.4942L11.5351 10.9215C10.8277 12.2241 9.83568 13.2745 8.6789 13.8152L9.18703 14.9023ZM6.81301 14.9023L6.30489 15.9894C7.38021 16.492 8.61983 16.492 9.69515 15.9894L9.18703 14.9023L8.6789 13.8152C8.24764 14.0167 7.75241 14.0167 7.32114 13.8152L6.81301 14.9023ZM3.41039 11.4942L2.35587 12.067C3.23519 13.686 4.56151 15.1745 6.30489 15.9894L6.81301 14.9023L7.32114 13.8152C6.16436 13.2745 5.17234 12.2241 4.46491 10.9215L3.41039 11.4942ZM2.16669 6.76187H0.966687C0.966687 8.55304 1.47316 10.4416 2.35587 12.067L3.41039 11.4942L4.46491 10.9215C3.75892 9.6216 3.36669 8.12417 3.36669 6.76187H2.16669ZM3.16669 6.76187H4.36669C4.36669 4.67453 6.0211 3.03301 8.00002 3.03301V1.83301V0.633008C4.65686 0.633008 1.96669 3.38813 1.96669 6.76187H3.16669ZM4.28916 11.017L5.34368 10.4443C4.71134 9.27997 4.36669 7.94551 4.36669 6.76187H3.16669H1.96669C1.96669 8.37432 2.42555 10.0999 3.23464 11.5897L4.28916 11.017ZM7.23645 13.9963L7.74458 12.9092C6.83189 12.4826 5.97926 11.6146 5.34367 10.4443L4.28916 11.017L3.23464 11.5897C4.04244 13.0771 5.22951 14.3829 6.72833 15.0835L7.23645 13.9963ZM8.76359 13.9963L8.25547 12.9092C8.09256 12.9854 7.90748 12.9854 7.74458 12.9092L7.23645 13.9963L6.72833 15.0835C7.53529 15.4606 8.46475 15.4606 9.27172 15.0835L8.76359 13.9963ZM11.7109 11.017L10.6564 10.4443C10.0208 11.6146 9.16815 12.4826 8.25547 12.9092L8.76359 13.9963L9.27172 15.0835C10.7705 14.3829 11.9576 13.0771 12.7654 11.5897L11.7109 11.017ZM12.8334 6.76187H11.6334C11.6334 7.94551 11.2887 9.27997 10.6564 10.4443L11.7109 11.017L12.7654 11.5897C13.5745 10.0999 14.0334 8.37432 14.0334 6.76187H12.8334ZM8.00002 1.83301V3.03301C9.97895 3.03301 11.6334 4.67453 11.6334 6.76187H12.8334H14.0334C14.0334 3.38813 11.3432 0.633008 8.00002 0.633008V1.83301ZM6.50002 6.66634H7.70002C7.70002 6.50066 7.83434 6.36634 8.00002 6.36634V5.16634V3.96634C6.50885 3.96634 5.30002 5.17517 5.30002 6.66634H6.50002ZM8.00002 8.16634V6.96634C7.83434 6.96634 7.70002 6.83203 7.70002 6.66634H6.50002H5.30002C5.30002 8.15751 6.50885 9.36634 8.00002 9.36634V8.16634ZM9.50002 6.66634H8.30002C8.30002 6.83203 8.16571 6.96634 8.00002 6.96634V8.16634V9.36634C9.49119 9.36634 10.7 8.15751 10.7 6.66634H9.50002ZM8.00002 5.16634V6.36634C8.16571 6.36634 8.30002 6.50066 8.30002 6.66634H9.50002H10.7C10.7 5.17517 9.49119 3.96634 8.00002 3.96634V5.16634ZM8.00002 4.16634V2.96634C5.95657 2.96634 4.30002 4.62289 4.30002 6.66634H5.50002H6.70002C6.70002 5.94837 7.28205 5.36634 8.00002 5.36634V4.16634ZM10.5 6.66634H11.7C11.7 4.62289 10.0435 2.96634 8.00002 2.96634V4.16634V5.36634C8.71799 5.36634 9.30002 5.94837 9.30002 6.66634H10.5ZM8.00002 9.16634V10.3663C10.0435 10.3663 11.7 8.70979 11.7 6.66634H10.5H9.30002C9.30002 7.38431 8.71799 7.96634 8.00002 7.96634V9.16634ZM5.50002 6.66634H4.30002C4.30002 8.70979 5.95657 10.3663 8.00002 10.3663V9.16634V7.96634C7.28205 7.96634 6.70002 7.38431 6.70002 6.66634H5.50002Z" fill="#707070" mask="url(#path-1-inside-1_693_12615)"/>
</svg>