<svg width="304" height="291" viewBox="0 0 304 291" fill="none" xmlns="http://www.w3.org/2000/svg">
<g clip-path="url(#clip0_399_3427)">
<path fill-rule="evenodd" clip-rule="evenodd" d="M196.401 24.534L197.804 24.7814C226.228 29.7933 248.497 33.72 265.466 39.1238C282.821 44.6463 295.973 52.1187 305.05 65.0666C314.125 78.0268 316.636 92.9394 315.888 111.149C315.164 128.931 311.238 151.2 306.226 179.624L305.978 181.027C300.966 209.451 297.04 231.72 291.636 248.689C286.113 266.044 278.641 279.196 265.693 288.273C252.733 297.348 237.82 299.859 219.611 299.111C201.829 298.387 179.56 294.46 151.136 289.449L149.733 289.201C121.309 284.189 99.0397 280.263 82.0703 274.859C64.7156 269.336 51.5634 261.864 42.4863 248.916C33.4115 235.956 30.9004 221.043 31.6488 202.834C32.3726 185.052 36.2992 162.783 41.3111 134.359L41.5586 132.956C46.5705 104.532 50.4971 82.2626 55.9009 65.2932C61.4234 47.9385 68.8958 34.7862 81.8437 25.7092C94.8039 16.6344 109.717 14.1233 127.926 14.8716C145.708 15.5954 167.977 19.5221 196.401 24.534ZM127.15 33.5964C111.044 32.9397 100.841 35.3039 92.6017 41.0732C84.3477 46.8528 78.651 55.6217 73.7574 70.993C68.7937 86.6185 65.0617 107.64 59.9 136.913C54.7383 166.187 51.0555 187.217 50.3757 203.597C49.7168 219.715 52.081 229.918 57.8482 238.17C63.6299 246.412 72.3989 252.109 87.7701 257.002C103.396 261.966 124.417 265.698 153.69 270.86C182.964 276.021 203.994 279.704 220.374 280.384C236.492 281.043 246.696 278.679 254.947 272.911C263.189 267.13 268.886 258.361 273.779 242.989C278.743 227.364 282.475 206.343 287.637 177.069C292.798 147.796 296.481 126.766 297.161 110.385C297.82 94.2671 295.456 84.0641 289.689 75.8123C283.907 67.5706 275.138 61.8738 259.767 56.9803C244.141 52.0166 223.12 48.2845 193.846 43.1228C164.573 37.9612 143.531 34.2762 127.15 33.5964ZM167.559 85.5272C168.29 86.5185 168.82 87.6442 169.116 88.8402C169.413 90.0361 169.47 91.2787 169.286 92.497C169.102 93.7153 168.68 94.8853 168.043 95.9402C167.406 96.9951 166.568 97.9141 165.576 98.6447L123.894 129.374C122.872 130.127 121.708 130.664 120.472 130.954C119.236 131.244 117.955 131.279 116.705 131.059C115.455 130.838 114.262 130.366 113.2 129.672C112.138 128.977 111.228 128.073 110.525 127.016L99.0594 109.763C98.3409 108.739 97.8347 107.581 97.5706 106.358C97.3066 105.135 97.2899 103.872 97.5218 102.642C97.7536 101.413 98.2292 100.242 98.9205 99.1993C99.6118 98.1565 100.505 97.2626 101.547 96.5703C102.589 95.878 103.759 95.4013 104.989 95.1684C106.218 94.9354 107.481 94.9508 108.705 95.2138C109.928 95.4767 111.086 95.9818 112.111 96.6994C113.136 97.4169 114.007 98.3324 114.673 99.3918L120.691 108.45L154.451 83.5588C156.452 82.0844 158.956 81.4648 161.414 81.8362C163.871 82.2077 166.083 83.5274 167.559 85.5272ZM183.358 120.604C183.789 118.155 185.176 115.978 187.213 114.552C189.25 113.126 191.77 112.567 194.218 112.999L255.769 123.852C258.217 124.284 260.394 125.671 261.82 127.707C263.246 129.744 263.805 132.264 263.373 134.713C262.942 137.161 261.555 139.338 259.518 140.764C257.481 142.19 254.961 142.749 252.513 142.317L190.962 131.464C188.514 131.032 186.337 129.646 184.911 127.609C183.485 125.572 182.926 123.052 183.358 120.604ZM152.35 171.708C155.422 175.88 154.541 181.741 150.369 184.813L108.687 215.542C107.666 216.295 106.501 216.833 105.266 217.122C104.03 217.412 102.748 217.448 101.498 217.227C100.248 217.007 99.0557 216.535 97.9935 215.84C96.9313 215.145 96.0213 214.242 95.3186 213.185L83.8529 195.932C83.1344 194.907 82.6282 193.75 82.3641 192.527C82.1 191.304 82.0834 190.04 82.3152 188.811C82.5471 187.581 83.0227 186.411 83.714 185.368C84.4053 184.325 85.2984 183.431 86.3405 182.739C87.3827 182.047 88.5529 181.57 89.7822 181.337C91.0115 181.104 92.275 181.119 93.4982 181.382C94.7214 181.645 95.8796 182.15 96.9046 182.868C97.9295 183.585 98.8005 184.501 99.4661 185.56L105.485 194.618L139.245 169.727C141.246 168.253 143.75 167.633 146.207 168.005C148.665 168.376 150.874 169.708 152.35 171.708ZM168.163 206.774C168.595 204.326 169.982 202.149 172.019 200.723C174.056 199.297 176.575 198.738 179.024 199.17L240.574 210.023C243.023 210.454 245.2 211.841 246.626 213.878C248.052 215.915 248.611 218.435 248.179 220.883C247.747 223.332 246.361 225.509 244.324 226.935C242.287 228.361 239.767 228.92 237.319 228.488L175.768 217.635C173.319 217.203 171.143 215.816 169.717 213.78C168.29 211.743 167.732 209.223 168.163 206.774Z" fill="#292929"/>
</g>
<defs>
<clipPath id="clip0_399_3427">
<rect width="300" height="300" fill="white" transform="translate(52.0945 -16.7773) rotate(10)"/>
</clipPath>
</defs>
</svg>
