<svg width="276" height="294" viewBox="0 0 276 294" fill="none" xmlns="http://www.w3.org/2000/svg">
<path d="M124.411 -26.1862L248.911 -4.2336C296.339 4.1293 328.08 49.4597 319.717 96.888L297.764 221.387C293.744 244.186 280.832 264.455 261.868 277.733C242.904 291.012 219.442 296.214 196.643 292.194L72.1432 270.241C24.7148 261.878 -7.02587 216.548 1.33703 169.119L23.2896 44.6199C27.3097 21.8209 40.222 1.55261 59.186 -11.7261C78.15 -25.0048 101.612 -30.2063 124.411 -26.1862ZM116.22 2.93383C102.069 0.438606 87.5063 3.66709 75.7355 11.9091C63.9648 20.151 55.9503 32.7313 53.455 46.8825L30.4571 177.31C25.2564 206.805 44.9112 234.875 74.4057 240.076L204.834 263.073C218.985 265.569 233.548 262.34 245.318 254.098C257.089 245.856 265.104 233.276 267.599 219.125L290.597 88.6969C295.797 59.2024 276.143 31.1325 246.648 25.9318L116.22 2.93383ZM255.326 50.3852C260.24 51.2516 264.608 54.0345 267.47 58.1215C270.332 62.2086 271.452 67.2651 270.586 72.1787C269.72 77.0923 266.937 81.4604 262.85 84.3222C258.763 87.184 253.706 88.305 248.793 87.4386C243.879 86.5722 239.511 83.7894 236.649 79.7023C233.787 75.6153 232.666 70.5587 233.533 65.6452C234.399 60.7316 237.182 56.3634 241.269 53.5016C245.356 50.6398 250.413 49.5188 255.326 50.3852ZM173.594 58.8969C193.248 62.3625 210.721 73.4938 222.168 89.842C233.615 106.19 238.099 126.416 234.634 146.071C231.168 165.725 220.037 183.198 203.689 194.645C187.34 206.092 167.114 210.576 147.46 207.11C127.806 203.645 110.333 192.514 98.8857 176.165C87.4385 159.817 82.9545 139.591 86.4201 119.937C89.8857 100.282 101.017 82.8097 117.365 71.3625C133.714 59.9153 153.94 55.4313 173.594 58.8969ZM168.367 88.5396C156.575 86.4602 144.439 89.1506 134.63 96.0189C124.821 102.887 118.142 113.371 116.063 125.163C113.983 136.956 116.674 149.092 123.542 158.901C130.41 168.71 140.894 175.388 152.687 177.468C164.479 179.547 176.615 176.857 186.424 169.988C196.233 163.12 202.912 152.636 204.991 140.844C207.07 129.051 204.38 116.916 197.512 107.107C190.643 97.2977 180.16 90.619 168.367 88.5396Z" fill="#F9C135"/>
</svg>
