<svg width="31" height="26" viewBox="0 0 31 26" fill="none" xmlns="http://www.w3.org/2000/svg">
<path d="M26.2363 17.1252C26.2804 16.9132 26.2872 16.6951 26.2563 16.4807C25.7167 10.8294 24.9739 5.95122 23.9879 1.58856C23.8257 0.535796 22.8375 -0.141753 21.8434 0.0252322C15.646 0.818922 7.80058 1.91402 2.11887 3.33847C1.79007 3.3937 1.5008 3.53805 1.25865 3.73486C0.650408 3.91614 0.255788 4.60571 0.107344 5.1844C-0.0886594 5.94594 0.0232014 6.7482 0.136381 7.52609C0.670559 11.2069 1.32465 14.8554 1.85876 18.5358C2.48119 22.8213 3.02757 22.9906 7.18145 22.4869C12.4681 21.8457 17.6889 20.7564 22.9014 19.6614C23.1721 21.072 23.4516 22.481 23.7427 23.8814C23.7638 23.9828 23.9078 24.086 23.9958 24.1395C24.1423 24.3023 24.3852 24.2615 24.4865 24.0937C24.7959 23.5809 25.047 23.2168 25.6273 22.3212C26.2856 23.1495 27.0189 24.0152 27.6828 24.8467C27.8731 25.085 28.1408 25.1566 28.4438 25.1211C28.5234 25.1368 28.5952 25.1502 28.7358 25.1124C29.3218 24.9574 29.6947 24.6391 29.9432 24.0836C29.9942 23.9716 30.0127 23.8476 29.9966 23.7257C29.9806 23.6038 29.9306 23.4888 29.8524 23.3939C29.1071 22.5015 28.3697 21.6141 27.5759 20.5987C28.413 20.3328 29.0402 20.1849 30.1843 19.867C30.2423 19.851 30.2944 19.8182 30.334 19.7729C30.3737 19.7275 30.3991 19.6715 30.4073 19.6118C30.4154 19.5522 30.4059 19.4914 30.3798 19.4371C30.3538 19.3828 30.3124 19.3373 30.2608 19.3063C28.9699 18.5268 27.6014 17.7936 26.2363 17.1252ZM22.937 15.6351C22.886 15.6139 22.8303 15.6068 22.7756 15.6145C22.7209 15.6222 22.6693 15.6445 22.6261 15.679C22.583 15.7136 22.55 15.7591 22.5305 15.8108C22.511 15.8625 22.5058 15.9184 22.5154 15.9728L22.5291 16.0496L22.3618 16.4837C22.3066 16.6262 22.3226 16.5602 22.6605 18.3737C20.7986 18.7081 13.8497 20.1119 5.13037 21.2642C4.44928 21.3786 3.80209 20.9165 3.68252 20.2097C2.8766 16.9734 2.19921 13.263 1.62587 8.93757L24.0926 5.16371C25.0822 10.485 25.6818 16.5381 25.6567 16.8545C24.7599 16.4268 23.853 16.02 22.937 15.6351ZM2.24506 3.94097C8.01693 2.49555 16.0096 1.39446 21.9329 0.634735C22.601 0.522505 23.2674 0.957657 23.3832 1.70389C23.5925 2.6305 23.7883 3.58521 23.9756 4.55924L1.54618 8.32684C1.42401 7.37642 1.30646 6.399 1.19379 5.38869C1.07932 4.7072 1.54028 4.06061 2.24546 3.94091L2.24506 3.94097ZM26.9664 20.1507C26.92 20.1663 26.878 20.1929 26.8439 20.2281C26.8097 20.2633 26.7845 20.3061 26.7703 20.353C26.7561 20.3999 26.7532 20.4495 26.762 20.4977C26.7708 20.5459 26.791 20.5913 26.8209 20.6302C27.7246 21.8015 28.5473 22.7925 29.3796 23.7893L29.6162 23.5914L29.3816 23.8307C29.182 24.2785 28.9261 24.4255 28.5389 24.5076C28.4995 24.4589 26.0693 21.3535 26.0224 21.2926C25.9908 21.2555 25.9507 21.2264 25.9056 21.2077C25.8605 21.1891 25.8116 21.1815 25.7629 21.1854C25.7142 21.1894 25.6672 21.2049 25.6257 21.2307C25.5842 21.2564 25.5494 21.2916 25.5242 21.3334C25.1888 21.8894 24.7825 22.4873 24.3877 23.094C24.3118 22.6667 23.2311 16.4809 23.2213 16.4251C25.1986 17.2754 27.4303 18.3636 29.3202 19.4651C28.4279 19.7049 27.8187 19.863 26.9664 20.1507Z" fill="#333333"/>
<path d="M3.14132 6.93432C3.6288 6.75543 3.76322 6.18992 3.40869 5.81188C3.24227 5.63416 3.01002 5.55034 2.7865 5.58789C2.74968 5.61406 2.70181 5.61169 2.6662 5.63516C2.49503 5.64976 2.23235 5.8879 2.21296 6.24839C2.18615 6.76543 2.64911 7.10985 3.14132 6.93432ZM5.43723 6.51869C6.00656 6.42305 6.24323 5.78708 5.84118 5.35915C5.55377 5.05353 5.17558 5.13204 5.21798 5.13658C5.17587 5.14369 5.1357 5.15952 5.10004 5.18303C5.05713 5.18714 5.01573 5.20108 4.97906 5.22376C4.35405 5.59021 4.65572 6.64996 5.43723 6.51869ZM8.17434 6.09972C8.66243 5.92197 8.79584 5.35539 8.4413 4.97735C8.19958 4.71818 7.85341 4.69972 7.7001 4.80083C7.65734 4.80548 7.61606 4.81922 7.57905 4.84115C6.89698 5.24217 7.32947 6.40901 8.17434 6.09972ZM12.0238 4.63123L12.0274 4.63061L20.3822 3.12729C20.5495 3.09711 20.6608 2.93685 20.6306 2.76914C20.6003 2.60144 20.449 2.50402 20.2729 2.52112L11.9181 4.02444C11.8376 4.03851 11.7661 4.08396 11.7191 4.1508C11.6722 4.21764 11.6537 4.30038 11.6678 4.38084C11.6818 4.46129 11.7273 4.53287 11.7941 4.57981C11.861 4.62675 11.9433 4.64529 12.0238 4.63123ZM9.251 9.75058L4.43477 10.5596C3.71399 10.6807 3.21614 11.301 3.32388 11.9424L3.96529 15.7609C4.07154 16.3934 4.73698 16.8179 5.44906 16.707C11.6347 15.7446 9.82453 16.0303 10.1647 15.9732C10.8652 15.8555 11.3651 15.2548 11.2814 14.6252L10.758 10.7286C10.7188 10.4354 10.5589 10.1725 10.3089 9.98799C10.018 9.7733 9.63204 9.68658 9.251 9.75058ZM10.6706 14.707C10.7115 15.0124 10.4232 15.3015 10.0521 15.3675L5.35432 16.0984C4.97375 16.1577 4.62329 15.9601 4.57262 15.6584L3.93121 11.84C3.87978 11.5338 4.1513 11.2317 4.53679 11.167L9.35303 10.358C9.57047 10.3215 9.78593 10.3673 9.9437 10.4836C10.0245 10.5433 10.1255 10.6487 10.1474 10.8112L10.6706 14.707ZM20.966 8.81615L13.9656 9.99205C13.885 10.0056 13.8131 10.0505 13.7658 10.1171C13.7184 10.1836 13.6993 10.2662 13.7129 10.3468C13.7264 10.4273 13.7714 10.4992 13.8379 10.5466C13.9044 10.5939 13.987 10.613 14.0676 10.5994L21.068 9.42354C21.1486 9.41001 21.2204 9.36504 21.2678 9.29852C21.3152 9.232 21.3342 9.14938 21.3207 9.06883C21.3072 8.98829 21.2622 8.91641 21.1957 8.86903C21.1292 8.82164 21.0465 8.80262 20.966 8.81615ZM21.419 12.2741L12.9564 13.6956C12.8758 13.7091 12.804 13.7541 12.7566 13.8206C12.7092 13.8871 12.6902 13.9698 12.7037 14.0503C12.7172 14.1308 12.7622 14.2027 12.8287 14.2501C12.8952 14.2975 12.9779 14.3165 13.0584 14.303L21.521 12.8815C21.6016 12.8679 21.6735 12.823 21.7208 12.7564C21.7682 12.6899 21.7873 12.6073 21.7737 12.5268C21.7602 12.4462 21.7152 12.3743 21.6487 12.327C21.5822 12.2796 21.4996 12.2605 21.419 12.2741ZM19.6075 15.7322L15.3752 16.4432C15.2947 16.4567 15.2228 16.5017 15.1754 16.5682C15.128 16.6347 15.109 16.7173 15.1225 16.7979C15.136 16.8784 15.181 16.9503 15.2475 16.9977C15.3141 17.0451 15.3967 17.0641 15.4772 17.0506L19.71 16.3396C19.7905 16.326 19.8624 16.2811 19.9098 16.2146C19.9571 16.148 19.9762 16.0654 19.9626 15.9849C19.9491 15.9043 19.9041 15.8324 19.8376 15.7851C19.7711 15.7377 19.6881 15.7187 19.6075 15.7322Z" fill="#333333"/>
</svg>
