<svg width="25" height="22" viewBox="0 0 25 22" fill="none" xmlns="http://www.w3.org/2000/svg">
<path d="M22.6913 12.134C22.1936 11.8946 21.8918 11.86 21.7341 11.8565C21.7569 11.7954 21.7805 11.7347 21.8003 11.6724C21.9179 11.2953 21.9805 10.906 21.9733 10.5239C21.9626 9.00243 20.959 7.99097 19.6109 7.94189C19.1282 7.92068 18.743 8.03787 18.5086 8.16435C18.3849 8.23402 18.3015 8.29939 18.2509 8.34848C18.3409 8.02339 18.4099 7.69271 18.4574 7.35852C18.907 4.1674 16.8269 3.20815 14.6922 3.92735C14.3299 4.05316 13.9815 4.21672 13.6526 4.4154C13.5462 4.48001 13.4651 4.5342 13.4084 4.57635C13.3714 4.40544 13.3249 4.23681 13.2689 4.07129C12.5649 1.96917 11.1705 1.4044 9.69697 1.89584C8.78566 2.19805 8.02068 2.97862 7.46334 3.73071C7.1213 4.19724 7.37281 4.23006 6.94169 3.10869C6.741 2.58564 6.47554 2.05285 6.09961 1.56607C5.1512 0.316881 3.41069 -0.380348 1.98244 0.216736C1.77811 0.295189 1.58669 0.409623 1.40736 0.539569C1.22724 0.670142 1.06288 0.821693 0.917639 0.991112C-0.00241864 2.03665 -0.121976 3.42281 0.0880533 4.80775C0.469585 7.36634 2.41925 14.7015 2.47852 14.945C2.54256 15.2012 2.60847 15.4552 2.67564 15.7076C2.67196 15.715 2.67091 15.7216 2.67255 15.7276C2.67479 15.734 2.67923 15.7393 2.68504 15.7425C2.82686 16.2727 2.97842 16.7934 3.15614 17.2939C3.7131 18.8298 4.85496 20.8904 6.36872 21.398C6.66932 21.4978 6.95373 21.5327 7.23124 21.5593C7.78588 21.6021 8.2961 21.5185 8.70855 21.351L8.71 21.3504C8.97316 21.3211 9.43352 21.2453 10.0351 21.1316C12.46 20.6742 14.8826 20.0727 20.4909 18.8366C21.6097 18.59 22.8452 18.2451 23.7124 17.482C25.3503 16.0728 25.1835 13.3706 22.6913 12.134ZM13.5192 6.50794C13.5659 5.91078 13.5534 5.27091 13.4259 4.6513C13.6865 4.56498 14.1569 4.34328 14.7677 4.19086C16.8121 3.6977 18.3615 4.55762 17.8873 7.26594C17.7586 7.99828 17.5243 8.70745 17.1919 9.37069C16.0183 11.7204 11.736 16.5255 10.4111 18.7981C10.4115 18.786 10.4124 18.7749 10.4127 18.7625C10.4169 18.6628 10.4158 18.5535 10.4099 18.4365C10.4989 18.308 10.6262 18.0633 10.8244 17.6033C12.2403 14.2882 13.3324 8.90838 13.5192 6.50794ZM7.56861 3.82497C8.22841 3.19059 8.93203 2.50064 9.8084 2.27381C11.3505 1.85769 12.2388 2.70822 12.7193 4.25072C12.9367 4.95729 12.9535 5.71181 12.88 6.4521C12.5476 9.78088 11.2268 14.4083 10.3102 17.6092C10.2941 17.5169 10.2767 17.4247 10.2581 17.3328C10.0192 16.1595 9.64335 14.4367 9.06863 11.8869L8.04854 7.41295C7.1607 3.58313 7.16842 4.21315 7.56861 3.82497ZM2.95687 14.8264C2.77637 14.0172 2.56366 13.1844 2.35932 12.3536C0.817091 6.02859 -0.38403 1.88626 2.2399 0.856823C3.37636 0.387406 4.79395 1.00049 5.55068 2.00029C5.873 2.41722 6.10972 2.88582 6.29394 3.36493C6.64759 4.28081 6.84103 5.26819 7.38446 7.57145L8.44403 12.0359C8.6331 12.8246 8.80448 13.5335 8.96005 14.1711C8.90832 14.151 8.83418 14.1366 8.72238 14.1313C7.7046 14.0917 4.77254 14.7255 3.10547 15.4582C3.05475 15.2478 3.00524 15.0373 2.95687 14.8264ZM7.25621 21.2859C7.00116 21.2518 6.72326 21.2052 6.46915 21.1094C5.08633 20.5912 4.05846 18.577 3.57442 17.1457C3.4243 16.692 3.29512 16.218 3.17373 15.7316C3.86006 15.6436 8.13914 14.8768 8.79754 14.6245C8.92692 14.5764 8.99794 14.5324 9.03793 14.4899C9.34567 15.7475 9.58805 16.7108 9.77816 17.4439C10.0848 18.5827 10.0443 19.1654 10.0184 19.4731C10.0035 19.6261 9.99674 19.7118 10.0033 19.7617C10.0104 19.8122 10.0305 19.8265 10.0529 19.8351C10.0754 19.8436 10.0992 19.8466 10.1356 19.8092C10.1727 19.7718 10.2234 19.694 10.2828 19.5336C10.2923 19.5057 10.3021 19.474 10.3119 19.4408C10.4077 19.4138 10.5914 19.2511 11.0603 18.6834C12.8356 16.5532 16.7532 11.8096 17.7678 9.65767C17.9541 9.26153 18.1081 8.85058 18.2282 8.42895C18.2818 8.41225 18.3919 8.35485 18.5636 8.2953C18.7972 8.21921 19.1553 8.15653 19.5873 8.21556C21.2234 8.42505 21.8369 9.96083 21.2918 11.4963C20.203 14.5061 14.1477 17.2439 10.438 19.7899C10.276 19.8996 10.1174 20.0144 9.96239 20.134C9.97112 20.1144 9.98214 20.0931 9.98853 20.075C10.0422 19.9209 10.0641 19.8394 10.0529 19.835C10.0417 19.8307 9.9974 19.9037 9.92445 20.0436C9.88723 20.1132 9.8299 20.1927 9.77087 20.2903C9.76236 20.3007 9.75371 20.3122 9.74532 20.3233C9.70145 20.3683 9.67494 20.4037 9.66108 20.4322C9.6198 20.4847 9.57411 20.5386 9.51956 20.5908C9.27147 20.845 8.96899 21.0378 8.63554 21.1545C8.24743 21.289 7.77298 21.346 7.25621 21.2859ZM22.1091 17.6291C21.6154 17.8356 21.0112 18.005 20.3408 18.1622C17.1107 18.9143 12.6232 20.1233 9.97417 20.8641C9.66898 20.9494 9.40247 21.0255 9.18079 21.0911C9.34512 20.9765 9.49386 20.8405 9.6232 20.6866C9.65348 20.6528 9.68022 20.6186 9.70508 20.5847C9.77973 20.6262 9.97443 20.5869 10.6894 20.219C13.0449 19.0068 19.6225 15.3886 21.2965 12.7376C21.4225 12.5362 21.5344 12.3259 21.6313 12.1085C21.6384 12.1132 21.6448 12.1176 21.6529 12.1222C21.7742 12.2025 22.0239 12.2972 22.4539 12.571C24.8719 14.1526 24.5902 16.6484 22.1091 17.6291Z" fill="#333333"/>
<path d="M8.47684 18.2402C8.60331 17.4317 7.86249 16.6365 7.08889 16.434C6.84584 16.3726 6.60738 16.3755 6.41097 16.4507C6.21373 16.5224 6.08363 16.6571 6.01798 16.7677C5.94861 16.88 5.92925 16.9728 5.92246 17.0406C5.91985 17.0594 5.92181 17.0728 5.92212 17.0886L5.92093 17.0897C5.76379 17.264 5.66522 17.4843 5.63939 17.7189C5.60779 17.9894 5.67791 18.2945 5.83463 18.557C6.44103 19.5755 7.71951 19.609 8.30152 18.6902C8.38865 18.5533 8.44825 18.4005 8.47684 18.2402ZM7.72121 18.3269C7.25239 19.1616 6.07332 18.5468 6.02849 17.7357C6.01792 17.5693 6.06287 17.4097 6.12513 17.2835C6.15144 17.2816 6.17689 17.2731 6.1992 17.2589C6.24959 17.2294 6.30769 17.1522 6.40117 17.0811C6.45271 17.0425 6.51333 17.0184 6.57697 17.011C6.65219 16.9992 6.76547 17.0079 6.91106 17.0587C7.407 17.2385 7.99865 17.843 7.72121 18.3269Z" fill="#333333"/>
</svg>
