<svg width="28" height="28" viewBox="0 0 28 28" fill="none" xmlns="http://www.w3.org/2000/svg">
<path d="M12.4756 1.36961L13.412 0.989406L12.5368 1.47901C12.262 1.60401 11.9338 1.78761 11.7762 2.0194C11.5626 2.2538 11.4663 2.59499 11.4793 2.87498C11.4923 3.15497 11.6733 3.42715 11.8009 3.75794L13.5939 7.32237C14.2749 8.69371 14.9585 10.121 15.5835 11.495C17.0108 10.8114 18.4968 10.1812 19.9241 9.49757C19.2965 8.06763 18.6715 6.6937 18.0999 5.26116L16.5817 1.57172C16.4541 1.24094 16.3291 0.966149 16.1507 0.749961C15.9163 0.536373 15.6311 0.437382 15.2925 0.396991C14.9539 0.356599 14.6791 0.4816 14.3483 0.609202L13.412 0.989406L14.2897 0.555804C14.5645 0.430804 14.8927 0.247204 15.2287 0.231598C15.5647 0.215992 15.9645 0.365778 16.1988 0.579366C16.4892 0.790353 16.6194 1.17714 16.7444 1.45192L18.5375 5.01636C19.2211 6.44369 19.9047 7.87103 20.6443 9.29576C20.7589 9.34656 20.9321 9.45075 20.9933 9.56015C22.4321 12.7482 23.2485 14.6183 23.4347 15.0025C24.1183 16.4298 24.8045 17.9132 25.4881 19.3405L27.1717 22.9661C27.2355 23.1315 27.2967 23.2409 27.3631 23.4623C27.7433 24.3987 27.3395 25.3715 26.5204 25.8585C26.3016 25.9808 26.1922 26.042 26.0268 26.1058L25.149 26.5395C25.093 26.5421 23.9405 27.1007 23.9939 27.0421L23.8845 27.1033L23.7191 27.1671C22.8361 27.4887 21.8074 27.0875 21.3738 26.2097C21.2514 25.9909 21.2462 25.879 21.1264 25.7162L19.4988 22.0879C18.8711 20.658 18.1849 19.1747 17.5573 17.7447C17.3685 17.3045 16.3763 15.2742 15.0065 12.3636C14.9427 12.1982 14.9375 12.0862 14.9857 11.9156C14.3555 10.4296 13.7279 8.99971 13.0977 7.51378L11.5261 3.88294C11.4011 3.60815 11.2175 3.27997 11.2553 2.88538C11.2397 2.54939 11.3895 2.1496 11.603 1.91521C11.87 1.62221 12.2008 1.49461 12.4756 1.36961ZM18.3817 17.3697C19.0653 18.7971 19.7515 20.2804 20.4351 21.7077L22.1187 25.3334C22.1799 25.4427 22.2463 25.6641 22.3075 25.7735C22.4937 26.1577 22.9495 26.3049 23.3363 26.1747L23.3923 26.1721L23.5017 26.1109C23.6111 26.0497 24.7102 25.5497 24.6568 25.6083L25.5346 25.1747C25.6974 25.0549 25.9162 24.9325 25.9722 24.9299C26.3004 24.7463 26.5035 24.2879 26.3173 23.9037C26.2561 23.7943 26.1923 23.6289 26.1285 23.4635L24.5009 19.8353C23.8707 18.3494 23.1871 16.922 22.5569 15.4361C22.3069 14.8865 21.7483 13.734 20.2535 10.5485C18.9356 11.1709 17.5616 11.7959 16.2437 12.4183C17.5627 15.4436 18.1903 16.8735 18.3817 17.3697Z" fill="#333333"/>
<path d="M10.0287 0.641485L10.6394 0.500879C10.9728 0.429275 11.2658 0.696259 11.2788 0.976249C11.2814 1.03225 11.2866 1.14424 11.2332 1.20284C11.1798 1.26144 11.1824 1.31744 11.1824 1.31744L11.0249 1.54923L10.6563 2.07142L10.7983 1.50364L10.8973 1.21845C10.948 1.10385 10.9454 1.04785 10.9428 0.991855C10.8842 0.938458 10.7697 0.887662 10.7163 0.946261L10.2227 1.19366L9.11832 1.58167C9.06233 1.58427 8.84354 1.70667 8.61694 1.66108C8.50235 1.61028 8.50235 1.61028 8.44635 1.61288C8.39035 1.61548 7.70537 1.36671 7.76137 1.3641L7.19099 1.16612L7.13499 1.16872L7.20139 1.39011C7.33159 1.7769 7.45919 2.10768 7.5894 2.49447C7.592 2.55046 7.592 2.55046 7.6558 2.71586L7.67401 3.10784C7.62061 3.16644 7.56461 3.16904 7.56721 3.22504C7.56982 3.28104 7.26504 3.96862 7.31844 3.91002L7.05925 4.37101L7.17125 4.36581L8.2782 4.0338C8.3342 4.0312 8.3342 4.0312 8.49959 3.9674C8.61159 3.96219 8.72359 3.95699 8.83818 4.00779C8.95278 4.05858 9.00878 4.05598 9.06738 4.10938L9.18197 4.16018C9.24057 4.21357 10.2745 4.72673 10.2159 4.67334L10.5597 4.82572L10.4269 4.38294L10.2069 3.27079C10.2043 3.21479 10.1405 3.0494 10.1913 2.9348C10.2421 2.8202 10.2955 2.7616 10.3463 2.64701L10.6563 2.07142L10.5143 2.6392C10.5195 2.7512 10.4687 2.8658 10.4713 2.92179C10.4739 2.97779 10.4765 3.03379 10.5377 3.14319C10.8515 3.85815 11.0989 4.35173 11.2317 4.79451C11.3619 5.18129 11.0441 5.58889 10.6548 5.66309C10.5428 5.66829 10.4308 5.6735 10.3722 5.6201L10.2016 5.5719C10.1456 5.5745 8.7756 5.07695 8.8316 5.07435C8.7756 5.07695 8.71701 5.02355 8.66101 5.02615L8.60501 5.02876L7.50066 5.41676L7.22327 5.48577L7.11388 5.54697L6.94588 5.55477C6.4471 5.69017 5.92491 5.3216 5.84291 4.76422C5.8377 4.65222 5.8299 4.48423 5.8807 4.36963L5.93149 4.25504C5.92889 4.19904 6.28446 3.39686 6.28707 3.45286C6.69343 2.53608 6.53844 2.82388 6.59184 2.76528C6.46164 2.37849 6.33403 2.04771 6.25983 1.65832L6.11922 1.04755C5.98382 0.548769 6.40839 0.0239792 6.85638 0.00317115C6.96837 -0.00203088 7.08037 -0.00723285 7.19496 0.043563C7.30956 0.0943589 7.30956 0.0943589 7.36556 0.0917579L7.65075 0.190749C7.93854 0.345737 8.91392 0.805502 8.79932 0.754706C8.85532 0.752105 8.91392 0.805502 8.85792 0.808103L8.91392 0.805502L10.0287 0.641485ZM8.60241 4.97276C8.54381 4.91936 8.54641 4.97536 8.60241 4.97276V4.97276ZM9.80009 11.4269C9.7467 11.4855 9.7467 11.4855 9.7493 11.5415C9.54351 11.9439 8.93274 12.0845 8.58115 11.7641C8.46655 11.7133 8.40535 11.6039 8.34415 11.4945L8.16055 11.1663L7.97435 10.7822C7.97175 10.7262 7.72435 10.2326 7.78295 10.286C7.55375 10.1844 7.26596 10.0294 7.03676 9.92781L6.63437 9.72202C6.23199 9.51624 6.14998 8.95886 6.41436 8.60987C6.46776 8.55127 6.57455 8.43407 6.68655 8.42887C6.73994 8.37027 6.73995 8.37027 6.79594 8.36767L7.01733 8.30127C7.12933 8.29607 8.00969 7.91846 7.95629 7.97706L8.01229 7.97446L8.48246 7.22308L8.74424 6.81809C8.90183 6.58629 9.23782 6.57069 9.41362 6.73088C9.47221 6.78427 9.47482 6.84027 9.53342 6.89367C9.53602 6.94967 9.53602 6.94967 9.59461 7.00306L9.79382 7.66724L9.55162 7.28565L9.43182 7.12286C9.37322 7.06947 9.37062 7.01347 9.31463 7.01607C9.25863 7.01867 9.20263 7.02127 9.20523 7.07727L9.05544 7.47706L8.75847 8.33263C8.75847 8.33263 8.65688 8.56183 8.49409 8.68162L8.2753 8.80402C8.2193 8.80663 7.61893 9.17122 7.67233 9.11263C7.90152 9.21422 8.18671 9.31321 8.4159 9.4148C8.4719 9.4122 8.41591 9.4148 8.5891 9.51899C8.7037 9.56979 8.7649 9.67918 8.8235 9.73258C8.8847 9.84197 8.8873 9.89797 8.8873 9.89797C8.8899 9.95397 9.1373 10.4475 9.1347 10.3916L9.0253 10.4528L9.33268 9.82117C9.33008 9.76517 9.33008 9.76517 9.43687 9.64797C9.48767 9.53337 9.59706 9.47217 9.65046 9.41358L9.93045 9.40057C9.98645 9.39797 10.8134 9.07897 10.7574 9.08157L10.8668 9.02037C10.8082 8.96697 10.7522 8.96957 10.6936 8.91617L9.94223 8.446C9.88363 8.39261 9.76904 8.34181 9.70784 8.23242C9.64664 8.12302 9.64403 8.06702 9.64143 8.01103L9.50863 7.56824L9.75083 7.94983C9.80943 8.00322 9.81463 8.11522 9.87063 8.11262C9.92922 8.16602 9.92663 8.11002 9.98522 8.16341L10.8382 8.40439C11.0088 8.45258 11.1234 8.50338 11.294 8.55157C11.5818 8.70656 11.7146 9.14934 11.5036 9.43974C11.4502 9.49834 11.3968 9.55694 11.2874 9.61814L11.178 9.67934C11.122 9.68194 10.5216 10.0465 10.575 9.98794L10.1909 10.1741L10.1375 10.2327L9.68029 11.2641L9.80009 11.4269ZM7.95369 7.92106C7.89769 7.92366 7.9003 7.97966 7.95369 7.92106V7.92106ZM5.24498 7.59793L5.13559 7.65913C5.07959 7.66173 4.47922 8.02633 4.53262 7.96773L4.14843 8.15393L4.09504 8.21253C4.09504 8.21253 3.73947 9.01471 3.74207 9.0707L3.58968 9.4145L3.59228 9.47049L3.54148 9.58509C3.3357 9.98748 2.72493 10.1281 2.37333 9.80771C2.25874 9.75691 2.19753 9.64752 2.13633 9.53812L1.95273 9.20994L1.58033 8.44157L1.52173 8.38817C1.29254 8.28658 1.00475 8.13159 0.775554 8.03L0.373163 7.82422C-0.0292268 7.61843 -0.111234 7.06105 0.15315 6.71206C0.206547 6.65346 0.31334 6.53626 0.425336 6.53106C0.478733 6.47246 0.478733 6.47246 0.534731 6.46986L0.756121 6.40346C0.865516 6.34226 1.74848 6.02065 1.69508 6.07925L1.75108 6.07665L2.22125 5.32527L2.47263 4.69629C2.63022 4.46449 2.9662 4.44889 3.142 4.60908C3.1446 4.66508 3.2006 4.66247 3.2032 4.71847C3.2058 4.77447 3.2058 4.77447 3.2644 4.82787L3.46361 5.49204L3.16541 5.11306L3.04561 4.95027C2.98701 4.89687 2.98441 4.84087 2.92841 4.84347C2.87241 4.84608 2.81642 4.84868 2.81902 4.90467L2.66923 5.30446L2.37226 6.16004C2.37226 6.16004 2.27067 6.38923 2.10788 6.50903L1.88909 6.63143C1.83309 6.63403 1.23272 6.99863 1.28611 6.94003C1.51531 7.04162 1.8005 7.14061 2.02969 7.2422C2.08569 7.2396 2.02969 7.2422 2.20289 7.3464C2.31748 7.39719 2.37868 7.50659 2.43728 7.55999C2.49848 7.66938 2.50109 7.72538 2.50109 7.72538C2.50369 7.78138 2.75109 8.27495 2.74849 8.21895L2.81229 8.38435L3.11966 7.75276C3.11706 7.69677 3.11706 7.69677 3.22386 7.57957C3.27465 7.46497 3.38405 7.40377 3.43744 7.34517C3.54684 7.28397 3.54684 7.28397 3.60284 7.28137L3.71223 7.22017C3.76823 7.21757 4.59519 6.89857 4.53919 6.90117L4.64859 6.83997C4.58999 6.78657 4.53399 6.78917 4.47539 6.73578L3.72401 6.26561C3.66541 6.21221 3.55082 6.16141 3.48962 6.05202C3.42842 5.94262 3.42582 5.88663 3.42321 5.83063L3.29041 5.38785L3.53261 5.76943C3.59121 5.82283 3.59641 5.93482 3.65241 5.93222C3.71101 5.98562 3.70841 5.92962 3.767 5.98302L4.61998 6.22399C4.79057 6.27219 4.90517 6.32298 5.07576 6.37118C5.36356 6.52616 5.49636 6.96895 5.28537 7.25934C5.40777 7.47813 5.29838 7.53933 5.24498 7.59793ZM4.04164 8.27113C3.98564 8.27373 3.98564 8.27373 4.04164 8.27113V8.27113Z" fill="#333333"/>
</svg>
