<svg width="19" height="23" viewBox="0 0 19 23" fill="none" xmlns="http://www.w3.org/2000/svg">
<path d="M18.4268 13.3442C18.4137 13.3578 18.3973 13.3652 18.3816 13.375C18.2956 13.5632 18.1336 13.7109 17.9431 13.7634C16.3998 13.1793 14.722 13.0957 13.1247 13.4743C13.092 13.6784 13.0933 13.7298 13.0416 13.8019C13.7923 14.177 14.003 15.3 13.286 15.8995C13.431 16.0303 13.5937 16.4835 13.5171 16.922C13.4065 17.5578 12.9464 17.7608 12.8989 17.8074C12.6111 18.1302 12.3065 18.4355 11.9865 18.7218C11.5935 19.0763 11.1596 19.4105 10.6563 19.52C10.153 19.6299 9.56588 19.4612 9.29557 18.9926C8.48792 19.345 7.63249 18.5923 7.78925 17.6761C7.63118 17.6495 7.47509 17.6159 7.31964 17.5781C6.60068 18.9349 6.2551 20.4998 6.34182 22.0508C6.34575 22.119 6.32219 22.1838 6.28259 22.2342L6.28914 22.2405C6.24005 22.2765 6.41349 22.1474 5.88597 22.5411C3.29612 20.4893 1.80158 16.958 2.06305 13.523C0.221624 10.6097 -0.199871 6.91253 0.0786171 3.38193C0.147339 2.51232 0.367903 1.15313 0.743912 0.508537C1.11665 -0.514352 2.94728 0.259026 3.92837 0.640816C6.83532 1.71515 9.51548 3.49357 11.3065 6.11885C14.4167 6.84884 17.3672 9.69984 18.4896 13.0653C18.5223 13.1632 18.4978 13.2728 18.4268 13.3442ZM10.4442 18.6C10.6235 18.6476 10.8042 18.6185 10.9531 18.5167L12.7513 17.2849C12.8256 17.2334 12.8892 17.1661 12.9379 17.087C12.9867 17.008 13.0197 16.9191 13.0347 16.8258C13.0897 16.5101 12.9542 16.3127 12.9084 16.199C12.0238 16.9024 11.0509 17.5592 9.95759 18.1888C9.98705 18.2238 10.1065 18.5086 10.4442 18.6ZM8.61359 17.653C8.80012 17.9494 9.14209 18.0611 9.4088 17.9116C10.7787 17.1467 11.9548 16.3474 13.0053 15.469C13.4827 15.0701 13.165 14.2113 12.5667 14.2113C12.4728 14.2113 12.3792 14.2341 12.2919 14.2827C11.0738 14.9581 9.87349 15.7819 8.72387 16.7316C8.4696 16.9416 8.42116 17.3465 8.61359 17.653ZM5.83819 21.4786C5.85423 20.0733 6.20144 18.6801 6.83401 17.441C5.25242 16.9335 3.84885 15.8666 2.75747 14.5C2.89721 17.0735 4.03701 19.695 5.83819 21.4786ZM3.76802 1.13704C3.22053 0.924621 1.30187 0.145994 1.18603 0.746149C1.03942 1.50588 0.919319 2.58126 0.856159 3.69618C0.628395 7.7293 1.5208 10.7959 2.91226 12.9725C4.00069 14.675 6.04567 16.1161 8.14366 16.6683C8.21322 16.5315 8.30848 16.4115 8.42345 16.3159C9.59631 15.3472 10.8222 14.5063 12.0661 13.8166C12.2332 13.7254 12.4196 13.6823 12.607 13.6913C12.6011 13.6585 12.6011 13.6247 12.607 13.5919C13.4297 9.26346 10.6968 3.69723 3.76802 1.13704ZM11.7228 6.77535C12.8492 8.6836 13.3044 10.7028 13.2248 12.5025C14.7442 12.0902 16.3427 12.1577 17.8269 12.6968C16.712 9.91925 14.3123 7.59387 11.7228 6.77535Z" fill="#333333"/>
<path d="M4.2975 6.97342C2.75093 6.97342 1.83136 5.22369 2.59156 3.93555C2.98098 3.27415 3.72875 2.86576 4.45818 2.90951C5.13068 2.95325 5.67228 3.36584 5.98349 4.07062C6.51363 5.27304 5.74983 6.97342 4.2975 6.97342ZM13.488 18.5065C13.4624 18.4841 13.4413 18.4564 13.426 18.4251C13.4107 18.3938 13.4015 18.3594 13.3989 18.3242C13.3963 18.289 13.4004 18.2535 13.4109 18.22C13.4215 18.1865 13.4382 18.1556 13.4602 18.1292C13.4822 18.1028 13.5089 18.0814 13.5388 18.0663C13.5687 18.0512 13.6011 18.0427 13.6341 18.0414C13.6672 18.04 13.7001 18.0458 13.731 18.0584C13.7619 18.071 13.7901 18.0901 13.8139 18.1146C14.3449 18.6193 14.8277 19.1791 15.2551 19.7859C15.2745 19.8135 15.2886 19.8449 15.2966 19.8782C15.3047 19.9116 15.3065 19.9464 15.302 19.9805C15.2929 20.0495 15.2585 20.1117 15.2065 20.1536C15.1545 20.1954 15.089 20.2135 15.0245 20.2037C14.9601 20.194 14.9019 20.1572 14.8627 20.1016C14.4552 19.5224 13.9946 18.9881 13.488 18.5065ZM14.223 22.4004C14.1957 22.4188 14.1653 22.4313 14.1335 22.4371C14.1017 22.4429 14.0691 22.442 14.0377 22.4343C14.0062 22.4267 13.9765 22.4125 13.9501 22.3926C13.9238 22.3726 13.9014 22.3473 13.8843 22.3181L12.536 20.0243C12.5188 19.9951 12.5072 19.9626 12.5018 19.9286C12.4964 19.8946 12.4972 19.8598 12.5044 19.8262C12.5116 19.7926 12.5248 19.7608 12.5435 19.7327C12.5621 19.7045 12.5858 19.6806 12.6131 19.6622C12.6403 19.6439 12.6707 19.6314 12.7025 19.6257C12.7343 19.6199 12.7668 19.6208 12.7983 19.6285C12.8297 19.6361 12.8594 19.6503 12.8857 19.6703C12.912 19.6902 12.9344 19.7155 12.9516 19.7447L14.2999 22.0385C14.3345 22.0975 14.3458 22.1687 14.3313 22.2366C14.3168 22.3044 14.2777 22.3633 14.2226 22.4004H14.223ZM11.4089 20.2559L11.746 22.4462C11.7562 22.5147 11.7407 22.5848 11.7027 22.641C11.6648 22.6973 11.6076 22.7352 11.5436 22.7465C11.4796 22.7578 11.414 22.7415 11.3612 22.7013C11.3083 22.661 11.2726 22.6 11.2617 22.5316L10.9246 20.3413C10.914 20.2726 10.9294 20.2023 10.9673 20.1457C11.0052 20.0891 11.0626 20.051 11.1269 20.0397C11.1587 20.0337 11.1913 20.0346 11.2228 20.0423C11.2543 20.05 11.2841 20.0643 11.3103 20.0845C11.3366 20.1046 11.3589 20.1301 11.3758 20.1596C11.3927 20.189 11.404 20.2218 11.4089 20.2559Z" fill="#333333"/>
</svg>
