<svg width="28" height="25" viewBox="0 0 28 25" fill="none" xmlns="http://www.w3.org/2000/svg">
<path d="M3.80634 18.0076C3.97801 18.5226 4.49302 18.866 5.00803 18.9252C5.2389 18.9844 5.58224 18.866 5.69472 18.8127L6.03805 18.7002C6.20973 19.7894 6.49387 20.8727 6.78393 21.9619C6.9852 22.6723 6.99704 22.8381 7.18647 23.2228C7.38774 23.9687 8.15137 24.46 8.90317 24.3653L9.874 24.3061C11.2414 24.4008 11.8748 22.915 11.3598 21.7903C11.0757 21.2161 11.0757 21.2161 10.6732 20.5294C10.0989 19.5586 9.53066 18.5877 8.84398 17.611L9.64313 17.3269C9.70233 17.2677 9.8148 17.2677 9.92727 17.2144C10.0397 17.1552 10.0989 17.1019 10.2114 16.9835C10.3831 16.8118 10.4956 16.6402 10.4956 16.4093V16.1252C12.5556 16.356 14.5564 16.5277 16.6165 16.6994L16.7882 17.2144C16.9598 17.7294 17.3624 18.1852 17.8774 18.4161C18.3924 18.6469 18.9666 18.7002 19.4757 18.5285C19.9907 18.3569 20.4465 18.0135 20.7366 17.5577C21.0207 17.1019 21.1391 16.5277 21.0207 15.9594C20.9615 15.6753 20.9082 15.5036 20.7899 15.2727L20.559 14.6985C20.2748 13.8994 19.9848 13.041 19.7006 12.2419C20.3873 12.0702 21.0148 11.6144 21.4173 10.9277C21.9323 10.1285 22.0448 9.09852 21.7015 8.18097C21.4173 7.26342 20.6715 6.52347 19.7598 6.18013C19.014 5.89598 18.1023 5.89598 17.4156 6.2926C17.3032 6.00846 17.1848 5.71839 17.0723 5.43425L16.1548 3.14926L15.7049 1.99493C15.5332 1.59239 15.1899 1.30825 14.7873 1.13658C15.5865 1.53911 15.5865 2.50994 15.8765 3.24989L16.5632 5.65328C17.019 7.25159 17.534 8.85581 17.9958 10.4008C18.4516 11.9992 19.0258 13.5442 19.4816 15.1484L19.6533 15.7226C19.7125 15.8943 19.8249 16.1252 19.8249 16.2376C19.8841 16.5218 19.8249 16.8118 19.6533 17.0368C19.4224 17.3801 18.7949 17.611 18.2799 17.3209C18.049 17.2085 17.8241 16.9776 17.7057 16.7467L17.3032 15.6101L16.5573 13.3784C16.1548 12.1767 15.7581 10.9751 15.3556 9.77336L14.2664 6.6833C13.923 5.65328 13.5205 4.62326 13.1772 3.59323C13.1772 3.53404 13.118 3.48076 13.0647 3.42156C13.0114 3.36237 12.893 3.30909 12.8338 3.30909C12.7746 3.13742 12.7214 3.02495 12.6622 2.85328C12.5497 2.50994 12.603 2.1074 12.7746 1.76406C13.118 1.01818 14.0355 0.674841 14.8347 0.964905C14.4913 0.734038 14.0355 0.680761 13.5738 0.793235C13.1712 0.905708 12.7746 1.13658 12.4846 1.53911C12.2537 1.94165 12.1412 2.39746 12.2004 2.85328C12.2596 3.02495 12.2596 3.19662 12.3129 3.36829C10.7146 5.02579 9.11036 6.7425 7.51205 8.51247C7.51205 8.45328 7.51205 8.45328 7.45285 8.4C7.45285 8.4592 7.45285 8.4592 7.51205 8.51247L7.45285 8.57167C7.39366 8.63087 7.34038 8.74334 7.39366 8.85581C7.737 9.77336 8.13953 10.6258 8.48288 11.5433C9.11036 13.6034 9.5129 15.2609 9.74376 16.0068V16.2909C9.68457 16.3501 9.68457 16.4626 9.57209 16.5218C9.5129 16.5218 9.5129 16.581 9.45962 16.581C9.40042 16.581 7.39958 17.1552 7.51797 17.1552L5.74799 17.611C5.46385 17.6702 5.06131 17.8419 5.06131 17.7827C4.94884 17.7827 4.88964 17.7235 4.88964 17.611C4.20888 15.551 3.40973 13.5501 2.61057 11.4901C2.55137 11.2059 2.4981 10.9751 2.4389 10.6909C2.4389 10.6317 2.4389 10.6317 2.3797 10.5784C2.32051 10.5192 2.26723 10.466 2.20803 10.466L2.09556 10.2351C2.03636 10.1226 2.03636 10.0042 2.03636 9.89175C2.09556 9.66089 2.20803 9.48922 2.49218 9.37674L4.20888 8.69006L5.92558 8.06258L6.3814 7.89091H6.83721C7.12135 7.89091 7.41142 8.12178 7.52389 8.40592C7.41142 8.12178 7.12135 7.89091 6.83721 7.83171C6.66554 7.83171 6.55307 7.89091 6.3814 7.89091L5.92558 8.06258L2.38562 9.0926C2.27315 9.1518 2.04228 9.20507 1.87061 9.32347C1.58647 9.55433 1.4148 10.0101 1.58647 10.4127L1.64567 10.6436C0.958985 11.0994 0.503171 11.786 0.213108 12.5852C-0.0710359 13.4436 -0.0710359 14.3552 0.213108 15.2135C0.497252 16.0719 1.07146 16.8118 1.81142 17.2736C2.3797 17.7235 3.06639 17.9543 3.80634 18.0076ZM17.4748 6.34588C18.2207 6.34588 18.8482 6.57674 19.3632 6.92008C20.5649 7.71924 21.0799 9.1518 20.5649 10.5252C20.3932 11.0402 20.0499 11.5552 19.5349 12.011C18.789 9.77336 18.2799 8.34672 17.4748 6.34588ZM8.61311 11.4901C8.38224 10.6317 8.15729 9.72008 7.92643 8.86173C9.47146 7.48837 10.9573 6.06173 12.5023 4.62918C12.7332 5.42833 13.0173 6.22748 13.3015 7.03256L14.3315 10.1759C14.734 11.3184 15.1307 12.5201 15.5332 13.6626L16.2199 15.7226C14.2782 15.6634 12.2715 15.6101 10.3298 15.6101C10.0397 14.9767 9.41226 13.4909 8.61311 11.4901ZM7.86723 18.0076L8.66639 17.6643C9.00973 18.7535 9.41226 19.8368 9.80888 20.926C10.093 21.6719 10.093 21.6719 10.3831 22.2402C10.5429 22.5184 10.389 22.9683 10.0989 23.0393H9.7556C9.69641 23.0393 8.61311 23.1518 8.66639 23.1518C7.81395 23.0748 7.93827 22.6486 7.57717 21.6068C7.17463 20.5767 6.71882 19.5467 6.14461 18.5759L7.86723 18.0076ZM2.3797 16.4685C1.86469 16.066 1.46216 15.4977 1.23721 14.8702C1.01226 14.2427 1.00634 13.556 1.17801 12.9285C1.29049 12.4727 1.52135 12.011 1.8055 11.6144C1.8055 11.6736 1.86469 11.7268 1.86469 11.7268C2.32051 13.4968 2.83552 15.2135 3.40973 16.9894C3.06638 16.8651 2.72304 16.6934 2.3797 16.4685ZM26.8575 5.88414C26.1116 5.94334 25.4249 6.22748 24.7975 6.57082C24.5133 6.80169 24.17 7.02664 23.9391 7.3167C24.3416 7.42917 24.7383 7.42917 25.0816 7.3759C25.7683 7.3167 26.5142 7.09175 27.1416 6.68922C27.4258 6.45835 27.7691 6.2334 28 5.89006C27.5975 5.83087 27.2008 5.83087 26.8575 5.88414ZM26.7391 12.9759C26.1649 12.5201 25.4782 12.1767 24.7975 12.0051C24.4541 11.9459 24.0516 11.8926 23.655 11.9459C23.8858 12.2892 24.1108 12.5734 24.4008 12.8042C24.9159 13.26 25.6025 13.6034 26.3425 13.7751C26.6858 13.8342 27.0884 13.8875 27.485 13.8342C27.2541 13.4909 27.0292 13.2068 26.7391 12.9759ZM21.7666 3.08414C22.2224 2.50994 22.5657 1.82326 22.7374 1.14249C22.7966 0.799154 22.8499 0.396617 22.7966 0C22.3941 0.230867 22.1691 0.455814 21.9383 0.745878C21.4825 1.26089 21.1391 1.94757 20.9674 2.68753C20.9082 3.03087 20.855 3.4334 20.9082 3.83002C21.2516 3.65835 21.4825 3.36829 21.7666 3.08414Z" fill="#333333"/>
</svg>
