<svg width="24" height="27" viewBox="0 0 24 27" fill="none" xmlns="http://www.w3.org/2000/svg">
<path d="M23.7457 21.1389C23.905 21.5995 24.0866 22.1214 23.9544 22.6566C23.833 23.1493 23.4543 23.579 22.915 23.8355C21.5657 24.4764 17.3332 24.2747 15.4409 24.2949C10.1609 24.3542 5.80494 26.1711 3.82991 26.1711C3.01775 26.1711 2.31715 25.9241 2.38301 25.1235C2.27598 24.9033 2.24717 24.2517 2.22824 24.1175C1.83553 21.3595 1.59802 20.428 1.96067 19.5837C2.1846 19.0634 2.64646 18.604 2.60859 18.0392C2.56907 17.4555 2.00554 17.0344 1.87135 16.4651C1.6009 15.32 2.51226 15.6468 1.47782 13.559C0.470133 11.5255 0.600622 8.95977 0.677187 6.64267C0.547934 4.87798 -0.148968 2.55265 0.0288582 1.72361C0.103365 1.3803 0.390278 1.05923 0.770218 1.02136C0.811382 0.993366 18.28 -0.262537 19.4334 0.0498948C20.3538 0.30017 21.0787 0.923388 21.3269 1.68286C21.5887 2.53083 21.1549 3.45084 20.5757 3.73775C20.5481 3.79717 20.5022 3.84621 20.4448 3.8777C20.2023 6.35987 19.9471 9.39034 21.2854 11.7815C21.9168 12.9205 22.9249 13.9554 23.1546 15.3274C23.2583 15.9333 23.2007 16.5219 23.0826 17.2188C22.8553 18.5558 23.4016 20.0419 23.7457 21.1389ZM1.04231 4.10452C1.77914 1.28275 0.721231 1.44493 0.63273 1.85451C0.59239 2.04263 0.801502 2.33077 1.04231 4.10452ZM23.125 21.2327C21.7353 17.1892 22.8479 17.2007 22.5462 15.4307C22.2684 13.7726 20.7251 12.8135 20.0315 10.3153C19.8323 9.91189 19.6643 9.49119 19.568 9.00834C18.76 4.9636 20.0949 4.24694 18.9901 4.01519C16.5351 3.49982 15.059 3.98802 11.4102 4.34162C8.8704 4.91297 6.10832 5.26945 3.76323 4.02877C3.72736 4.00985 3.69557 3.98406 3.66968 3.95285C3.64378 3.92164 3.62428 3.88564 3.6123 3.8469C3.60032 3.80816 3.59608 3.76744 3.59983 3.72707C3.60359 3.68669 3.61526 3.64745 3.63418 3.61158C3.6531 3.57571 3.6789 3.54393 3.7101 3.51803C3.74131 3.49213 3.77731 3.47264 3.81605 3.46065C3.85479 3.44867 3.89551 3.44443 3.93589 3.44819C3.97626 3.45194 4.0155 3.46361 4.05137 3.48253C5.41224 4.20372 7.17775 4.41695 9.30056 4.11604C12.4924 3.66448 15.8485 2.19987 19.2087 2.98075C19.9171 3.14746 20.1702 3.42532 20.5177 2.99433C20.7646 2.69343 20.8527 2.23898 20.7387 1.86974C20.5201 1.20165 19.8372 0.799485 19.2716 0.645533C18.578 0.457415 17.8235 0.50887 17.0945 0.557443C9.20836 1.09957 3.17953 1.55278 1.71739 1.55278V1.5536C1.7635 1.65981 1.9158 1.87468 1.96561 2.33983C2.09198 3.51958 1.46177 3.91516 1.33046 6.3751C1.24607 7.93521 1.53421 9.42533 1.83553 10.8179C1.9619 11.4172 2.043 11.933 2.38877 12.3624C3.1573 13.3297 3.92418 13.9377 3.1997 15.1483C2.88685 15.6686 2.92966 15.8395 3.22686 16.375C3.82415 17.4432 3.69778 18.201 3.31578 19.3981C3.01775 20.3341 2.98112 20.5169 3.15895 21.4702C3.24456 21.93 3.09473 24.5378 2.99594 25.1309C2.9663 25.3083 3.02681 25.3631 3.05562 25.3898C3.29808 25.6101 4.21109 25.6726 6.04534 25.1865C8.94738 24.4151 12.4257 23.7112 15.4335 23.6774C16.8846 23.6618 21.4681 23.8404 22.6495 23.2777C23.0159 23.104 23.2793 22.8167 23.3547 22.5088C23.4526 22.1132 23.2711 21.6542 23.125 21.2327Z" fill="#333333"/>
<path d="M16.774 8.37935L10.1755 8.75394C10.0951 8.75641 10.0168 8.7274 9.9575 8.67307C9.89816 8.61874 9.86237 8.54339 9.85776 8.46307C9.85314 8.38274 9.88007 8.30379 9.9328 8.24302C9.98553 8.18225 10.0599 8.14447 10.1401 8.13772L16.7386 7.76313C16.9078 7.74708 17.0552 7.88292 17.0646 8.05334C17.0741 8.22375 16.944 8.36988 16.774 8.37935ZM7.61715 9.58339C7.59182 9.5288 7.58002 9.46891 7.58275 9.40879C7.58547 9.34868 7.60263 9.2901 7.63279 9.23803C7.75628 9.04867 8.08847 9.03921 8.21526 9.25037C8.24324 9.30384 8.25789 9.36328 8.25796 9.42362C8.25803 9.48397 8.24352 9.54344 8.21567 9.59697C8.18525 9.65022 8.141 9.69426 8.08761 9.72444C8.03423 9.75462 7.97368 9.76982 7.91236 9.76843C7.85105 9.76704 7.79125 9.74911 7.73929 9.71654C7.68733 9.68397 7.64513 9.63796 7.61715 9.58339ZM16.9778 12.7946C10.1714 12.504 6.07146 13.1967 5.5956 13.1967C5.51623 13.1975 5.43962 13.1676 5.38169 13.1133C5.32375 13.0591 5.28895 12.9846 5.2845 12.9053C5.28005 12.8261 5.30629 12.7482 5.35779 12.6877C5.40928 12.6273 5.48207 12.5891 5.56102 12.5809C9.35924 12.1492 13.1853 12.0144 17.0045 12.1779C17.045 12.1797 17.0847 12.1894 17.1214 12.2065C17.1581 12.2236 17.1911 12.2478 17.2185 12.2776C17.2459 12.3075 17.2671 12.3424 17.2809 12.3805C17.2948 12.4185 17.301 12.459 17.2993 12.4994C17.2923 12.6703 17.1367 12.8073 16.9782 12.7946H16.9778ZM18.8026 12.8403C18.6198 12.8403 18.4765 12.6982 18.4691 12.534C18.4337 12.3146 18.6511 12.1413 18.8495 12.1623C18.9257 12.171 18.9968 12.2052 19.0511 12.2594C19.1054 12.3135 19.1398 12.3845 19.1487 12.4607C19.1673 12.6213 19.029 12.8403 18.8026 12.8403ZM17.7858 16.8776C9.03771 17.374 11.6681 17.2526 11.1696 17.2526C11.0889 17.253 11.0114 17.2218 10.9534 17.1657C10.8955 17.1096 10.8618 17.0331 10.8596 16.9525C10.8573 16.8719 10.8867 16.7936 10.9414 16.7344C10.9961 16.6752 11.0718 16.6397 11.1523 16.6355L17.7512 16.261C17.9072 16.2478 18.0674 16.3816 18.0768 16.552C18.0791 16.5925 18.0734 16.633 18.06 16.6713C18.0466 16.7096 18.0258 16.7448 17.9988 16.7751C17.9718 16.8053 17.939 16.8299 17.9025 16.8475C17.866 16.8651 17.8263 16.8753 17.7858 16.8776ZM8.44248 16.9097C8.4163 16.855 8.40378 16.7948 8.40601 16.7342C8.40823 16.6736 8.42513 16.6145 8.45524 16.5619C8.59067 16.3532 8.92739 16.3836 9.04018 16.575C9.06779 16.629 9.08196 16.6889 9.08146 16.7495C9.08095 16.8101 9.0658 16.8698 9.0373 16.9233C9.00639 16.9754 8.96217 17.0183 8.90918 17.0477C8.8562 17.077 8.79635 17.0917 8.73579 17.0903C8.67524 17.0889 8.61615 17.0714 8.5646 17.0395C8.51306 17.0077 8.47091 16.9632 8.44248 16.9097ZM7.29731 20.3139C11.0844 19.8817 14.9332 19.7455 18.74 19.9105C18.7804 19.9122 18.8202 19.9219 18.8569 19.9389C18.8937 19.956 18.9267 19.9801 18.9541 20.0099C18.9815 20.0397 19.0027 20.0747 19.0167 20.1127C19.0306 20.1507 19.0368 20.1911 19.0351 20.2316C19.0281 20.4024 18.8713 20.5362 18.7136 20.5268C11.9052 20.2361 7.80774 20.9293 7.33189 20.9293C7.25318 20.9291 7.17754 20.8988 7.12043 20.8446C7.06332 20.7904 7.02906 20.7165 7.02464 20.6379C7.02023 20.5593 7.04599 20.482 7.09667 20.4218C7.14735 20.3616 7.21912 20.323 7.29731 20.3139ZM20.5561 20.5687C20.3824 20.5687 20.2169 20.4551 20.205 20.2707C20.168 20.0472 20.3902 19.8706 20.5825 19.8945C20.6598 19.9029 20.7318 19.9374 20.7869 19.9924C20.8419 20.0473 20.8765 20.1193 20.885 20.1966C20.8897 20.2431 20.8847 20.2899 20.8704 20.3344C20.856 20.3788 20.8327 20.4197 20.8017 20.4547C20.7708 20.4896 20.733 20.5178 20.6907 20.5374C20.6483 20.5571 20.6028 20.5677 20.5561 20.5687Z" fill="#333333"/>
</svg>
