<svg xmlns="http://www.w3.org/2000/svg" width="25" height="21" viewBox="0 0 25 21" fill="none">
  <path d="M17.4147 2.20578C3.21142 5.45969 3.9134 5.17357 3.54643 5.44294C2.81215 5.61414 2.70093 6.55179 2.72372 7.00909C2.76099 7.75047 3.10711 8.4947 3.43286 9.21805C4.38559 11.3339 5.21974 13.4832 5.92936 15.6504C6.16618 16.374 6.58965 17.1277 7.26846 17.5435C7.94171 17.9559 8.58531 17.8643 9.26041 17.6975L14.0918 16.5014C14.3654 16.636 14.8196 16.9157 14.9065 16.9608C16.6157 17.8508 17.7326 18.5788 18.6431 18.2007C18.7897 18.1808 18.9136 18.1062 18.991 17.9912C19.0684 17.8762 19.0939 17.7289 19.0627 17.5774C18.8847 16.6915 18.6907 15.7607 18.4942 14.8296L22.1698 13.9975C22.5109 13.9199 22.7811 13.7045 22.9211 13.3987C23.0612 13.0928 23.0595 12.7215 22.9166 12.3662L19.2423 3.25467C19.0988 2.89941 18.8257 2.58944 18.483 2.3928C18.1404 2.19615 17.7562 2.12889 17.4147 2.20578ZM22.5061 12.4594C22.6034 12.7014 22.6045 12.9542 22.5091 13.1625C22.4138 13.3708 22.2298 13.5174 21.9975 13.5703C17.9516 14.4903 18.0733 14.4202 18.0283 14.5554C17.9926 14.663 18.0284 14.6007 18.6259 17.5839C18.6329 17.6184 18.6303 17.6524 18.6182 17.682C18.6061 17.7117 18.5851 17.7359 18.5574 17.7519C18.5298 17.7678 18.4967 17.775 18.4618 17.7725C18.4269 17.77 18.3916 17.7579 18.3599 17.7377C17.991 17.5046 17.5275 17.2087 17.3846 17.1334L17.3871 17.1285C14.2372 15.1825 14.6844 15.3839 14.4309 15.3523L8.56957 16.6792C8.33695 16.7316 8.07519 16.6858 7.84176 16.5518C7.60832 16.4179 7.4223 16.2067 7.32454 15.9646L3.62486 6.79016C3.52748 6.54809 3.52636 6.29511 3.62174 6.08677C3.71711 5.87842 3.9012 5.73171 4.13359 5.67886L17.5871 2.63326C17.8196 2.58094 18.0813 2.62677 18.3146 2.7607C18.548 2.89462 18.7339 3.1057 18.8317 3.34762L22.5061 12.4594Z" fill="#333333"/>
  <path d="M18.658 5.64454L6.42001 8.41499C6.36556 8.42731 6.32242 8.46165 6.30008 8.51045C6.27774 8.55925 6.27803 8.61852 6.30089 8.6752C6.32375 8.73189 6.3673 8.78136 6.42197 8.81272C6.47664 8.84409 6.53794 8.85479 6.59239 8.84246L18.8304 6.07201C18.8849 6.05969 18.928 6.02535 18.9504 5.97655C18.9727 5.92775 18.9724 5.86848 18.9495 5.8118C18.9267 5.75511 18.8831 5.70564 18.8285 5.67427C18.7738 5.64291 18.7125 5.63221 18.658 5.64454ZM15.9324 9.66078L9.03911 11.2213C8.98466 11.2336 8.94152 11.268 8.91918 11.3168C8.89684 11.3656 8.89713 11.4248 8.91999 11.4815C8.94285 11.5382 8.9864 11.5877 9.04107 11.619C9.09574 11.6504 9.15704 11.6611 9.21149 11.6488L16.1054 10.0881C16.1598 10.0758 16.203 10.0415 16.2253 9.99267C16.2476 9.94387 16.2473 9.88461 16.2245 9.82792C16.2016 9.77123 16.1581 9.72176 16.1034 9.6904C16.0487 9.65903 15.9874 9.64833 15.933 9.66066L15.9324 9.66078ZM14.4423 12.3543L12.7236 12.7433C12.6692 12.7556 12.626 12.79 12.6037 12.8388C12.5814 12.8876 12.5817 12.9469 12.6045 13.0035C12.6274 13.0602 12.6709 13.1097 12.7256 13.1411C12.7803 13.1724 12.8416 13.1831 12.896 13.1708L14.6146 12.7817C14.6691 12.7694 14.7122 12.7351 14.7346 12.6863C14.7569 12.6375 14.7566 12.5782 14.7338 12.5215C14.7109 12.4648 14.6673 12.4154 14.6127 12.384C14.558 12.3526 14.4967 12.3419 14.4423 12.3543ZM1.07465 6.30888C1.83597 6.3418 2.07658 6.4873 2.20688 6.4578C2.42315 6.40884 2.36862 6.08842 2.13568 6.0323C1.76061 5.94147 1.38401 5.8876 1.01181 5.87154C0.982853 5.87031 0.954988 5.87475 0.929805 5.88461C0.904622 5.89446 0.882614 5.90953 0.865039 5.92896C0.847463 5.94839 0.834664 5.97179 0.827371 5.99784C0.820079 6.02389 0.818436 6.05207 0.822537 6.08077C0.826637 6.10947 0.836401 6.13814 0.851271 6.16512C0.86614 6.19211 0.885825 6.21689 0.909199 6.23805C0.932574 6.25921 0.959182 6.27634 0.987503 6.28845C1.01582 6.30057 1.04531 6.30744 1.07426 6.30866L1.07465 6.30888ZM2.67569 5.72532C2.69259 5.7053 2.70462 5.68142 2.71109 5.65504C2.71755 5.62865 2.71834 5.60029 2.71339 5.57157C2.70844 5.54285 2.69785 5.51434 2.68224 5.48766C2.66663 5.46099 2.64629 5.43668 2.6224 5.41612C2.22888 5.07702 1.80041 4.78293 1.34807 4.54147C1.32063 4.52683 1.29147 4.5172 1.26227 4.51313C1.23307 4.50906 1.20438 4.51063 1.17786 4.51774C1.15134 4.52486 1.1275 4.53738 1.1077 4.5546C1.0879 4.57182 1.07252 4.5934 1.06246 4.6181C1.05239 4.6428 1.04783 4.67014 1.04903 4.69856C1.05023 4.72698 1.05717 4.75593 1.06945 4.78375C1.08174 4.81156 1.09913 4.8377 1.12063 4.86068C1.14213 4.88366 1.16731 4.90302 1.19475 4.91765C1.61029 5.13972 2.00393 5.40999 2.36555 5.72151C2.41379 5.76298 2.47355 5.78668 2.5317 5.78739C2.58985 5.7881 2.64164 5.76578 2.67569 5.72532ZM3.10158 5.07906C3.14549 5.06914 3.18234 5.04483 3.20673 5.0097C3.23111 4.97457 3.24174 4.93047 3.23707 4.88387C3.19351 4.44841 3.03635 4.01071 2.78081 3.61316C2.764 3.58705 2.74265 3.56355 2.71797 3.544C2.69329 3.52445 2.66576 3.50923 2.63697 3.49922C2.60817 3.4892 2.57867 3.48459 2.55014 3.48563C2.52161 3.48668 2.49461 3.49337 2.47069 3.50532C2.44678 3.51727 2.4264 3.53424 2.41074 3.55528C2.39507 3.57631 2.38442 3.60099 2.37939 3.6279C2.37436 3.65481 2.37505 3.68343 2.38143 3.71213C2.3878 3.74083 2.39973 3.76903 2.41654 3.79515C2.62779 4.12411 2.75767 4.48624 2.7936 4.84649C2.79698 4.88064 2.80847 4.91501 2.82716 4.94683C2.84584 4.97864 2.87119 5.00701 2.90117 5.02964C2.93114 5.05228 2.96489 5.06854 2.99971 5.07712C3.03452 5.08571 3.06942 5.08637 3.10158 5.07906Z" fill="#333333"/>
</svg>
