<svg xmlns="http://www.w3.org/2000/svg" width="20" height="18" viewBox="0 0 20 18" fill="none">
  <path d="M4 2.001C3.99974 2.53143 3.78877 3.04004 3.41351 3.41492C3.03825 3.78981 2.52943 4.00027 1.999 4C1.46857 3.99974 0.959965 3.78877 0.585079 3.41351C0.210194 3.03825 -0.000264966 2.52943 2.50361e-07 1.999C0.000265467 1.46857 0.211233 0.959965 0.586494 0.585079C0.961754 0.210194 1.47057 -0.000264966 2.001 2.50361e-07C2.53143 0.000265467 3.04004 0.211233 3.41492 0.586494C3.78981 0.961754 4.00027 1.47057 4 2.001ZM4.06 5.781C4.06 5.61532 3.92569 5.481 3.76 5.481H0.36C0.194315 5.481 0.0600002 5.61531 0.0600002 5.781V17.701C0.0600002 17.8667 0.194315 18.001 0.36 18.001H3.76C3.92569 18.001 4.06 17.8667 4.06 17.701V5.781ZM10.3727 5.78814C10.3767 5.61971 10.2413 5.481 10.0728 5.481H6.7C6.53432 5.481 6.4 5.61531 6.4 5.781V17.701C6.4 17.8667 6.53432 18.001 6.7 18.001H10.04C10.2057 18.001 10.34 17.8667 10.34 17.701V11.431C10.34 7.771 15.11 7.431 15.11 11.431V17.701C15.11 17.8667 15.2443 18.001 15.41 18.001H18.76C18.9257 18.001 19.06 17.8667 19.06 17.701V10.071C19.06 3.901 12 4.131 10.34 7.161L10.3727 5.78814Z" fill="#E0E0E0"/>
</svg>