<svg width="282" height="131" viewBox="0 0 282 131" fill="none" xmlns="http://www.w3.org/2000/svg">
<path d="M24.3772 58.5382C23.896 58.6121 23.4409 58.5343 23.0116 58.3047C22.6224 58.1095 22.3393 57.8314 22.1622 57.4705C21.9992 57.2956 21.7518 56.9961 21.4202 56.5719C21.0885 56.1478 20.8686 55.7152 20.7603 55.2741C20.5584 54.0913 20.3965 52.9429 20.2747 51.8289C20.1901 50.7121 20.1275 49.1444 20.0869 47.1257C20.0745 45.4792 20.1594 43.8816 20.3416 42.3327C20.5582 40.7438 20.7689 39.3239 20.9737 38.0728C21.2156 36.819 21.4029 35.8313 21.5355 35.1099C21.6652 34.3513 21.6742 33.9762 21.5626 33.9847C21.4137 33.9959 21.2114 34.2921 20.9559 34.873C20.6976 35.4167 20.4119 36.0936 20.0988 36.9036C19.7858 37.7135 19.4727 38.5235 19.1597 39.3334C18.8438 40.1062 18.5739 40.7444 18.35 41.2481C17.9162 42.4416 17.3951 43.7166 16.7864 45.0731C16.2122 46.3895 15.6166 47.6702 14.9995 48.915C14.3824 50.1599 13.8472 51.2487 13.3937 52.1816C13.0868 52.5793 12.7368 53.1487 12.3437 53.8898C11.9477 54.5938 11.5174 55.3377 11.0526 56.1217C10.5878 56.9057 10.0945 57.5609 9.5728 58.0871C8.81303 58.9309 8.02647 59.4211 7.21312 59.5575C6.437 59.6912 5.75141 59.5372 5.15635 59.0956C5.03339 58.9551 4.889 58.7789 4.72317 58.5668C4.59739 58.3891 4.48459 58.1356 4.38476 57.8062C4.28492 57.4768 4.27393 57.0845 4.35177 56.6293C4.27507 56.1109 4.21444 55.3106 4.16989 54.2282C4.15975 53.1057 4.17979 51.8874 4.23 50.5732C4.27739 49.2218 4.32902 47.9262 4.38487 46.6864C4.47795 45.4438 4.56792 44.4074 4.65479 43.5771C4.80936 41.1692 5.07138 38.6971 5.44086 36.1606C5.84755 33.6213 6.197 31.0676 6.4892 28.4995C6.73062 27.7324 6.92776 26.8751 7.08062 25.9275C7.26789 24.9398 7.4608 24.0267 7.65936 23.1879C7.63455 22.3661 7.77979 21.8122 8.09509 21.5263C8.40757 21.2031 8.77279 21.0818 9.19075 21.1625C9.64311 21.2031 10.0137 21.3997 10.3025 21.7522C10.7029 22.0963 11.0258 22.6521 11.2712 23.4198C11.5538 24.1846 11.4796 25.1824 11.0486 26.4132C10.4423 28.2937 9.88555 30.5823 9.37845 33.2789C8.90576 35.9355 8.5312 39.1463 8.25479 42.9113C8.17355 43.816 8.0864 44.8897 7.99332 46.1323C7.90024 47.3748 7.82296 48.5788 7.76146 49.7441C7.69997 50.9094 7.66161 51.8858 7.64637 52.6732C7.66836 53.4577 7.71799 53.8658 7.79527 53.8974C8.09872 53.9493 8.49129 53.6949 8.97299 53.1343C9.45186 52.5364 9.86221 51.7752 10.204 50.8508C11.5386 48.2037 12.846 45.4464 14.1264 42.5789C15.4413 39.6713 16.6844 36.8065 17.856 33.9846C18.407 32.8571 18.9511 31.6365 19.4881 30.3229C20.0594 28.9692 20.6021 27.73 21.1159 26.6053C21.6642 25.4406 22.165 24.3918 22.6185 23.4588C23.0692 22.4887 23.4581 21.6917 23.7853 21.0679C24.1124 20.4441 24.3849 20.0865 24.6026 19.9951C25.201 19.9872 25.7149 20.098 26.1441 20.3276C26.6078 20.5171 27.0167 20.9729 27.3709 21.6948C27.4594 21.8753 27.4648 22.1932 27.387 22.6484C27.3091 23.1035 27.2084 23.5043 27.0849 23.8506C27.0674 24.114 26.9408 24.6665 26.705 25.508C26.5064 26.3468 26.3336 27.2771 26.1863 28.2992C25.8902 29.3325 25.6313 30.363 25.4096 31.3907C25.2224 32.3783 25.0968 33.1928 25.0331 33.8341C24.8565 35.4574 24.6182 37.2539 24.3181 39.2235C24.0152 41.1559 23.7681 43.0841 23.5769 45.008C23.4201 46.8919 23.3795 48.5798 23.455 50.0717C23.4968 51.1168 23.5588 51.9358 23.6411 52.5286C23.7607 53.1186 23.9076 53.5755 24.0819 53.8993C24.1789 54.1914 24.4164 54.3606 24.7943 54.4069C25.2094 54.4503 25.5346 54.2947 25.7698 53.9399C26.4439 52.9528 27.0133 52.0673 27.478 51.2833C27.9772 50.4592 28.4392 49.638 28.8639 48.8196C29.2858 47.9639 29.7193 47.0138 30.1643 45.9692C30.9653 44.1863 31.7708 42.2158 32.5807 40.0578C33.4251 37.8597 34.2151 35.6845 34.9506 33.5322C35.7234 31.377 36.3856 29.4922 36.9372 27.8779C37.4923 25.8141 37.9294 24.1711 38.2487 22.9488C38.6052 21.7237 38.9284 20.8007 39.2183 20.1797C39.5082 19.5587 39.8308 19.1224 40.1862 18.8708C40.361 18.7078 40.616 18.6136 40.951 18.5882C41.2861 18.5629 41.6324 18.6864 41.99 18.9588C42.1502 19.0965 42.2988 19.3286 42.4359 19.6551C42.6073 19.9417 42.6914 20.3097 42.688 20.7593C42.547 21.369 42.2838 22.3436 41.8986 23.6832C41.5505 25.02 41.1379 26.4927 40.6607 28.1013C40.1835 29.71 39.7193 31.2428 39.2681 32.6997C38.8168 34.1566 38.4189 35.3287 38.0743 36.2159C37.724 37.0287 37.3839 37.7284 37.0539 38.315C36.7239 38.9016 36.5702 39.3438 36.5928 39.6416C36.604 39.7905 36.4532 40.2699 36.1401 41.0799C35.8242 41.8526 35.4094 42.8013 34.8955 43.926C34.4189 45.0479 33.8893 46.2112 33.3066 47.416C32.7239 48.6208 32.1714 49.7297 31.6491 50.7427C31.1268 51.7557 30.6807 52.5383 30.3106 53.0905C29.4674 54.315 28.6272 55.3334 27.7902 56.1456C26.9904 56.955 26.2867 57.5512 25.6793 57.9341C25.0718 58.3171 24.6377 58.5185 24.3772 58.5382ZM44.7909 53.173C44.307 53.2097 43.909 53.1462 43.5971 52.9826C43.3224 52.8162 42.9677 52.581 42.5328 52.277C41.7691 51.5861 41.213 50.9168 40.8644 50.2693C40.513 49.5845 40.3692 48.9215 40.4329 48.2802C40.522 47.9739 40.5381 47.6919 40.4811 47.4341C40.4586 47.1363 40.4473 46.9874 40.4473 46.9874C40.2471 46.8154 40.1828 46.7079 40.2544 46.6651C40.3232 46.585 40.3892 46.4677 40.4524 46.3131C40.6758 46.2962 40.7347 46.0858 40.6292 45.6819C40.5322 45.3898 40.6318 44.727 40.9279 43.6937C41.224 42.6604 41.6175 41.6759 42.1082 40.7401C42.3033 40.3509 42.6017 39.8416 43.0033 39.2121C43.4021 38.5455 43.8395 37.8946 44.3156 37.2595C44.8261 36.5843 45.2905 36.0437 45.7091 35.6376C46.5805 34.7853 47.3558 34.1463 48.0349 33.7204C48.714 33.2946 49.456 32.9576 50.2609 32.7094C51.0658 32.4612 51.6171 32.3259 51.915 32.3033C52.25 32.2779 52.7193 32.5419 53.3228 33.0952C54.2072 33.4026 54.8553 33.8028 55.267 34.2958C55.716 34.786 56.0344 35.5294 56.2222 36.526C56.4185 37.6344 56.4227 38.9257 56.2349 40.4001C56.0814 41.8345 55.3405 43.669 54.0122 45.9037C53.1831 47.3144 52.403 48.3844 51.672 49.1137C50.9381 49.8057 50.0554 50.5091 49.0238 51.2237C48.2815 51.8041 47.6038 52.2486 46.9907 52.5571C46.3747 52.8284 45.6415 53.0337 44.7909 53.173ZM49.7032 46.8479C50.5205 45.7751 51.1559 44.7723 51.6094 43.8393C52.1001 42.9036 52.5353 41.7287 52.9149 40.3147C53.0328 39.8939 53.0878 39.3843 53.0799 38.7858C53.0692 38.1502 53.0069 37.5746 52.893 37.059C52.8134 36.5034 52.6592 36.1969 52.4302 36.1393C51.9637 35.9126 51.4183 35.879 50.7939 36.0387C50.1667 36.161 49.5048 36.5669 48.8082 37.2561C47.7275 38.3114 46.814 39.5974 46.0677 41.1141C45.3187 42.5936 44.6037 44.2764 43.9229 46.1625C43.466 47.545 43.4175 48.6344 43.7774 49.4309C44.1716 50.1873 44.8815 50.4143 45.9069 50.112C46.9667 49.7696 48.2322 48.6816 49.7032 46.8479ZM72.6843 51.7902C72.435 51.9589 72.0772 51.9298 71.6107 51.7031C71.1815 51.4735 70.7424 51.1136 70.2934 50.6235C69.999 50.1965 69.7762 49.7267 69.625 49.214C69.5111 48.6984 69.4189 47.9753 69.3484 47.0446C69.3292 46.2973 69.2553 45.8162 69.1267 45.6013C69.0353 45.3835 68.8334 45.4363 68.5209 45.7595C68.2056 46.0454 67.6695 46.6289 66.9126 47.51C66.0524 48.5111 65.2139 49.3047 64.3972 49.8907C63.6177 50.474 62.9659 50.7667 62.4419 50.7689C62.1814 50.7887 61.8737 50.6809 61.5189 50.4457C61.1985 50.1705 60.8925 49.838 60.6009 49.4482C60.3065 49.0212 60.0493 48.5914 59.8293 48.1588C59.5439 47.3567 59.4278 46.3172 59.4808 45.0402C59.5682 43.7232 59.7631 42.3419 60.0655 40.8962C60.3678 39.4506 60.7316 38.0752 61.1569 36.77C61.6194 35.462 62.1003 34.396 62.5995 33.5719C63.1359 32.745 63.6275 32.3147 64.0742 32.2808C64.372 32.2583 64.6439 32.3874 64.8898 32.6683C65.1729 32.9464 65.4688 33.392 65.7773 34.0051C65.9459 34.2544 66.0187 34.4736 65.9956 34.6625C66.0097 34.8487 65.8777 35.0833 65.5996 35.3664C65.2984 35.8385 64.9583 36.5382 64.5792 37.4655C64.2374 38.39 63.9012 39.3889 63.5707 40.4622C63.2774 41.5328 63.0185 42.5633 62.794 43.5537C62.5695 44.5442 62.4254 45.3601 62.3616 46.0014C62.2951 46.6055 62.3362 46.9019 62.4851 46.8906C63.0063 46.8511 63.605 46.5998 64.2813 46.1368C64.992 45.6337 65.6584 45.0403 66.2806 44.3567C67.0031 43.5157 67.627 42.6073 68.1521 41.6315C68.7145 40.6529 69.2726 39.6185 69.8265 38.5282C70.254 37.747 70.6946 36.89 71.1481 35.957C71.6388 35.0213 71.9445 34.3617 72.0652 33.9781C72.5131 32.9707 72.8546 32.2897 73.0898 31.9349C73.3222 31.5429 73.6203 31.2769 73.9841 31.1371C74.1702 31.123 74.3378 31.1103 74.4867 31.099C74.6728 31.0849 74.7659 31.0778 74.7659 31.0778C74.992 31.0982 75.2653 31.2459 75.5857 31.5212C75.8948 31.6475 76.0736 31.7838 76.1221 31.9298C76.1678 32.0387 76.1977 32.1862 76.2118 32.3723C76.0911 32.7559 75.8914 33.3326 75.6127 34.1025C75.3685 34.8324 75.1846 35.3705 75.0611 35.7168C74.475 37.3711 73.8876 39.0068 73.2987 40.6239C72.7442 42.201 72.3787 43.8012 72.2022 45.4245C72.1672 45.9513 72.1951 46.5669 72.2859 47.2714C72.4111 47.9359 72.5594 48.4113 72.7309 48.6979C72.8595 48.9128 73.0095 49.1635 73.181 49.45C73.3869 49.6965 73.6085 49.9044 73.846 50.0736C74.198 50.2716 74.2721 50.5093 74.0685 50.7868C73.9021 51.0615 73.6584 51.3046 73.3375 51.5161C73.0137 51.6904 72.796 51.7818 72.6843 51.7902ZM80.7962 51.2881C80.1029 51.5278 79.5146 51.4226 79.0313 50.9725C78.5851 50.5196 78.2868 49.7934 78.1362 48.7939C77.9856 47.7944 78.007 46.5947 78.2005 45.1948C78.3528 44.7339 78.4693 44.2945 78.5499 43.8766C78.6278 43.4214 78.6568 43.0635 78.6371 42.8029C78.6833 42.425 78.7914 41.874 78.9611 41.1497C79.1281 40.3883 79.3123 39.6068 79.5136 38.8053C79.715 38.0038 79.9048 37.2968 80.0831 36.6842C80.2957 36.0317 80.4336 35.6281 80.4968 35.4735C80.6457 35.4623 80.7661 35.3221 80.8581 35.0531C80.95 34.784 80.9861 34.5192 80.9664 34.2586C80.9438 33.9608 80.9743 33.6215 81.0578 33.2408C81.1785 32.8572 81.3076 32.5854 81.4453 32.4252C81.4312 32.2391 81.4529 32.0315 81.5104 31.8025C81.6024 31.5334 81.6427 31.3245 81.6314 31.1756C81.6201 31.0267 81.6461 30.8749 81.7093 30.7204C81.8097 30.563 81.8542 30.4099 81.8429 30.261C82.0669 29.7573 82.3441 28.9688 82.6746 27.8954C83.0396 26.782 83.4147 25.5555 83.7999 24.2159C84.2224 22.8735 84.6091 21.5525 84.9599 20.253C85.3108 18.9534 85.5841 17.8657 85.7798 16.9897C86.0099 16.0737 86.1179 15.5226 86.1038 15.3365C86.0813 15.0387 86.1388 14.8097 86.2764 14.6495C86.4141 14.4893 86.6318 14.398 86.9296 14.3754C87.0328 14.2553 87.1575 14.1709 87.3036 14.1224C87.4869 14.0711 87.653 14.0398 87.8019 14.0285C87.8019 14.0285 87.882 14.0973 88.0422 14.235C88.2024 14.3726 88.4426 14.579 88.763 14.8543C89.0806 15.0923 89.2707 15.3774 89.3333 15.7097C89.4331 16.0391 89.4999 16.4271 89.5338 16.8738C89.5704 17.3578 89.547 17.7901 89.4635 18.1708C89.38 18.5516 89.1976 19.1083 88.9161 19.841C88.6346 20.5736 88.1967 21.7113 87.6021 23.254C87.3607 24.0211 87.0979 24.7523 86.8136 25.4478C86.5265 26.106 86.3886 26.5096 86.3999 26.6585C86.4111 26.8074 86.3536 27.0364 86.2273 27.3455C86.1381 27.6518 86.036 28.0339 85.921 28.4919C85.7946 28.801 85.6237 29.2632 85.4082 29.8786C85.19 30.4567 84.9573 31.0921 84.7102 31.7848C84.4976 32.4374 84.3165 33.0127 84.167 33.5107C84.0147 33.9715 83.9414 34.2392 83.947 34.3136C83.9583 34.4625 83.951 34.6128 83.925 34.7646C83.9363 34.9135 83.8732 35.068 83.7355 35.2282C83.5866 35.2395 83.502 35.3582 83.4817 35.5844C83.4958 35.7705 83.5029 35.8636 83.5029 35.8636C83.5311 36.2359 83.308 37.2449 82.8336 38.8908C82.3931 40.9834 81.9771 42.9056 81.5856 44.6575C81.2314 46.4066 81.0937 47.8023 81.1727 48.8447C81.2403 49.7381 81.2669 50.3352 81.2522 50.6358C81.2347 50.8992 81.0827 51.1166 80.7962 51.2881ZM101.691 49.1438C101.542 49.1551 101.317 49.1534 101.016 49.1387C100.75 49.084 100.514 48.9334 100.308 48.6869C99.6992 48.0591 99.3032 47.5275 99.1205 47.0921C98.9378 46.6566 98.8698 46.0066 98.9166 45.1419C98.9488 44.5778 98.9493 44.0911 98.9183 43.6816C98.9217 43.232 98.9307 42.857 98.9454 42.5563C98.7852 42.4187 98.5145 42.5515 98.1332 42.9548C97.7863 43.3181 97.2976 43.7856 96.6669 44.3576C95.5112 45.9053 94.4604 47.1081 93.5145 47.966C92.603 48.7838 91.7662 49.3527 91.0042 49.6725C90.2394 49.955 89.5005 50.0859 88.7875 50.065C88.149 50.0385 87.6267 49.816 87.2206 49.3975C86.8117 48.9417 86.5232 48.3458 86.3551 47.6097C86.2243 46.8708 86.1637 46.0705 86.1733 45.2086C86.2291 43.9688 86.4009 42.7765 86.6885 41.6315C87.0134 40.4836 87.5704 39.1872 88.3595 37.7421C88.7126 36.9666 89.1974 36.1998 89.8139 35.4417C90.4649 34.6436 91.1787 33.9343 91.9553 33.3139C92.7664 32.6534 93.553 32.1633 94.315 31.8435C95.1459 31.4436 96.0066 31.1912 96.8972 31.0863C97.785 30.9441 98.591 30.958 99.3153 31.1277C99.7789 31.3173 100.141 31.4022 100.402 31.3824C100.699 31.3599 100.909 31.1568 101.029 30.7733C101.193 30.4614 101.345 30.0005 101.486 29.3908C101.624 28.7439 101.807 28.1871 102.034 27.7207L102.987 23.998C103.321 22.9619 103.687 21.8671 104.086 20.7136C104.486 19.5602 104.96 18.1577 105.509 16.5062C106.051 15.267 106.52 14.5388 106.916 14.3217C107.308 14.0673 107.785 14.181 108.345 14.6627C108.792 15.1156 108.983 15.6627 108.919 16.304C108.852 16.9081 108.591 17.9014 108.134 19.2838C107.904 19.7131 107.711 20.1209 107.553 20.5072C107.392 20.8564 107.172 21.4159 106.894 22.1858C106.497 23.3765 106.129 24.4527 105.79 25.4144C105.448 26.3388 105.098 27.395 104.739 28.5829C104.635 29.1898 104.482 29.894 104.281 30.6955C104.117 31.4941 103.984 32.2155 103.883 32.8597C103.817 33.4638 103.729 34.032 103.619 34.5645C103.544 35.0569 103.432 35.3087 103.283 35.32C103.011 35.6776 102.777 36.2944 102.581 37.1703C102.382 38.0091 102.224 38.8822 102.105 39.7897C102.024 40.6945 101.95 41.4489 101.884 42.053C101.843 42.5053 101.831 43.0866 101.847 43.7967C101.864 44.5068 101.897 45.1969 101.948 45.867C101.996 46.4998 102.03 46.9466 102.05 47.2072C102.112 48.0261 102.132 48.5487 102.112 48.7749C102.092 49.0011 101.951 49.124 101.691 49.1438ZM89.5304 46.5268C90.3122 46.4676 91.1058 46.0705 91.9112 45.3356C92.7539 44.5978 93.591 43.7856 94.4224 42.8989C94.9413 42.3355 95.4847 41.6017 96.0527 40.6975C96.658 39.7905 97.226 38.8864 97.7567 37.9851C98.3247 37.0809 98.7709 36.2983 99.0952 35.6372C99.4167 34.939 99.5719 34.5154 99.5606 34.3665C99.5465 34.1803 99.3691 34.0627 99.0284 34.0137C98.6877 33.9646 98.294 33.957 97.8473 33.9908C97.435 33.9846 97.1014 34.0286 96.8464 34.1228C96.0415 34.3709 95.2507 34.8052 94.474 35.4257C93.7346 36.0433 92.9418 36.9458 92.0957 38.1331C91.2181 39.3976 90.5108 40.6867 89.9738 42.0004C89.474 43.3112 89.1821 44.4004 89.0981 45.2679C89.014 46.1353 89.1581 46.555 89.5304 46.5268ZM125.531 60.8164C125.5 60.8937 125.327 60.8319 125.012 60.6311C124.734 60.4275 124.453 60.168 124.167 59.8527C123.884 59.5747 123.752 59.3225 123.772 59.0964C123.584 58.5865 123.553 57.9336 123.68 57.1377C123.847 56.3763 124.228 55.2242 124.823 53.6816C125.15 53.0578 125.431 52.3251 125.667 51.4835C125.94 50.6392 126.25 49.792 126.598 48.942C126.758 48.5928 127.113 47.8359 127.661 46.6712C128.209 45.5064 128.784 44.1899 129.384 42.7218C130.021 41.2507 130.534 39.8641 130.922 38.5617C130.03 39.6401 129.214 40.7315 128.474 41.8359C127.731 42.9031 127.03 43.7799 126.371 44.4663C125.749 45.1499 125.138 45.4957 124.54 45.5036C124.048 45.4285 123.514 45.3005 122.938 45.1194C122.398 44.8983 122.01 44.4784 121.776 43.8596C121.565 43.0519 121.43 42.0138 121.372 40.7453C121.35 39.4739 121.447 37.5384 121.662 34.9388C121.864 33.6505 121.958 32.6699 121.944 31.997C121.965 31.2841 121.907 30.7643 121.77 30.4377C121.633 30.1111 121.406 29.8288 121.088 29.5908C120.57 29.1808 120.28 28.8096 120.218 28.4774C120.189 28.1051 120.426 27.769 120.928 27.4689C121.695 27.2235 122.249 27.1254 122.59 27.1745C122.928 27.1863 123.36 27.4531 123.886 27.9749C124.221 28.4363 124.516 28.8819 124.774 29.3117C125.065 29.7014 125.251 30.4175 125.33 31.4598C125.363 31.9065 125.334 32.5078 125.242 33.2636C125.186 34.0166 125.128 34.7324 125.067 35.4109C125.041 36.0494 125.019 36.5003 125.001 36.7638C124.733 38.1693 124.582 39.3789 124.546 40.3925C124.548 41.4033 124.642 41.9016 124.828 41.8875C125.527 41.2355 126.184 40.5118 126.797 39.7165C127.445 38.8812 128.105 37.9514 128.776 36.9271C129.482 35.8627 130.252 34.6625 131.087 33.3263C131.374 32.668 131.663 32.0284 131.952 31.4074C132.242 30.7864 132.475 30.151 132.651 29.5012C132.837 29.0004 133.031 28.5926 133.232 28.2779C133.433 27.9631 133.606 27.7815 133.752 27.733C133.933 27.6444 134.157 27.6461 134.426 27.7381C134.733 27.8272 135.003 27.9378 135.238 28.0697C135.507 28.1617 135.644 28.2449 135.65 28.3193C135.69 28.3537 135.786 28.3839 135.937 28.4099C136.089 28.4358 136.241 28.4618 136.393 28.4877C136.579 28.4736 136.676 28.5224 136.685 28.6341C136.69 28.7085 136.615 28.9576 136.46 29.3811C136.342 29.8019 136.192 30.2814 136.008 30.8194C135.858 31.3175 135.724 31.7769 135.607 32.1977C135.486 32.5812 135.447 32.8088 135.49 32.8804C135.57 32.9493 135.535 33.2327 135.386 33.7307C135.233 34.1916 135.048 34.711 134.83 35.2892C134.649 35.8645 134.482 36.3826 134.33 36.8434C134.051 38.1001 133.716 39.361 133.325 40.6261C132.931 41.854 132.444 43.089 131.864 44.331C131.675 44.7946 131.392 45.5087 131.016 46.4732C130.677 47.4349 130.336 48.378 129.995 49.3024C129.693 50.2613 129.449 50.9912 129.262 51.492C129.135 51.8011 128.947 52.2834 128.697 52.9388C128.488 53.6286 128.245 54.3771 127.969 55.1842C127.73 55.9885 127.488 56.737 127.241 57.4297C126.996 58.1595 126.814 58.7162 126.693 59.0998C126.672 59.8127 126.544 60.3466 126.309 60.7014C126.16 60.7126 125.993 60.7253 125.806 60.7394C125.623 60.7908 125.531 60.8164 125.531 60.8164ZM144.179 46.1501C143.698 46.2239 143.304 46.2163 142.998 46.1272C142.689 46.0009 142.301 45.8243 141.834 45.5976C140.968 45.0267 140.305 44.4404 139.848 43.8386C139.425 43.1967 139.208 42.5579 139.197 41.9222C139.246 41.5816 139.224 41.2837 139.13 41.0288C139.073 40.771 139.044 40.6422 139.044 40.6422C138.807 40.4729 138.724 40.3669 138.795 40.324C138.864 40.2439 138.912 40.128 138.938 39.9763C139.23 39.8793 139.251 39.6717 139.003 39.3536C138.869 39.0642 138.874 38.3899 139.018 37.3307C139.197 36.2314 139.456 35.2009 139.795 34.2392C139.95 33.8156 140.17 33.2561 140.454 32.5606C140.775 31.8623 141.134 31.1612 141.53 30.4573C141.923 29.7162 142.29 29.1267 142.632 28.689C143.38 27.6963 144.054 26.9527 144.653 26.458C145.286 25.9233 146.001 25.476 146.798 25.1162C147.52 24.762 148.047 24.5536 148.379 24.4909C148.711 24.4283 149.193 24.6165 149.826 25.0553C150.739 25.2482 151.437 25.5697 151.921 26.0198C152.438 26.4299 152.864 27.109 153.198 28.0571C153.578 29.1142 153.768 30.3914 153.769 31.889C153.805 33.3464 153.314 35.2743 152.298 37.6726C151.7 39.178 151.076 40.3298 150.425 41.1279C149.812 41.9232 149.052 42.767 148.146 43.6593C147.484 44.3085 146.868 44.8232 146.297 45.2033C145.727 45.5835 145.021 45.8991 144.179 46.1501ZM148.143 39.1667C148.803 37.9935 149.302 36.9261 149.641 35.9644C150.015 34.9627 150.277 33.726 150.427 32.2544C150.471 31.8393 150.451 31.3353 150.369 30.7425C150.284 30.1125 150.147 29.5425 149.958 29.0326C149.807 28.5199 149.619 28.2534 149.392 28.2331C148.894 28.0836 148.355 28.1245 147.773 28.3557C147.189 28.5498 146.571 29.0458 145.92 29.844C145.344 30.6364 144.83 31.5177 144.38 32.4879C143.966 33.4552 143.597 34.5128 143.272 35.6606C142.947 36.8084 142.646 38.0293 142.37 39.3232C142.105 40.766 142.205 41.8442 142.671 42.5577C143.174 43.2684 143.914 43.3995 144.891 42.9511C145.865 42.4655 146.949 41.204 148.143 39.1667ZM170.471 44.3832C170.07 44.0391 169.66 43.5647 169.24 42.9601C168.817 42.3182 168.461 41.5776 168.173 40.7383C168.076 40.4461 168.008 40.0395 167.968 39.5183C167.966 38.9943 167.938 38.622 167.884 38.4015C167.792 38.6705 167.627 38.9638 167.389 39.2814C167.185 39.5589 166.978 39.7992 166.769 40.0022C166.632 40.1624 166.319 40.4856 165.832 40.9718C165.342 41.4208 164.846 41.7953 164.344 42.0953C163.175 42.9702 162.184 43.4758 161.37 43.6123C160.594 43.746 159.819 43.3929 159.044 42.553C158.412 42.1142 157.943 41.6068 157.637 41.0309C157.368 40.4522 157.306 39.6332 157.451 38.574C157.426 37.2654 157.517 35.9856 157.722 34.7346C157.923 33.4463 158.411 31.7246 159.184 29.5694C159.85 27.9839 160.361 26.8219 160.717 26.0836C161.07 25.3081 161.297 24.8416 161.397 24.6842C161.941 24.4558 162.408 24.4392 162.797 24.6343C163.183 24.7923 163.434 25.129 163.548 25.6445C163.799 25.9999 163.81 26.6356 163.58 27.5516C163.387 28.4647 163.005 29.5982 162.433 30.9519C162.008 32.2571 161.62 33.5594 161.269 34.859C160.955 36.1557 160.795 37.2536 160.788 38.1527C160.782 39.0518 161.046 39.5746 161.581 39.7213C161.93 39.882 162.503 39.7825 163.3 39.4226C164.133 39.06 165.026 38.2435 165.978 36.9733C166.968 35.7003 167.873 33.8158 168.695 31.32C168.936 30.5529 169.11 29.8845 169.217 29.3148C169.321 28.7079 169.365 28.0494 169.348 27.3393C169.24 26.8982 169.229 26.5059 169.315 26.1624C169.436 25.7788 169.71 25.4399 170.137 25.1454C170.272 24.948 170.464 24.765 170.713 24.5963C170.959 24.3905 171.127 24.3778 171.215 24.5583L172.105 24.4348C172.251 24.3863 172.351 24.4723 172.405 24.6928C172.494 24.8733 172.637 25.031 172.834 25.1658C173.269 25.4698 173.435 26.1872 173.334 27.3181C173.232 28.449 172.83 30.052 172.126 32.1271C171.534 33.707 171.137 34.8977 170.936 35.6992C170.772 36.4979 170.699 37.2709 170.719 38.0182C170.769 38.6883 170.948 39.3113 171.253 39.8872C171.559 40.4631 172.009 40.9719 172.604 41.4135C173.034 41.6431 173.28 41.924 173.342 42.2562C173.442 42.5856 173.49 42.9751 173.487 43.4246C173.438 43.7653 173.236 44.0614 172.88 44.313C172.559 44.5245 172.176 44.6471 171.729 44.681C171.282 44.7148 170.863 44.6155 170.471 44.3832ZM190.766 42.9581C190.073 43.1979 189.485 43.0927 189.001 42.6426C188.555 42.1896 188.257 41.4634 188.106 40.4639C187.956 39.4645 187.977 38.2647 188.17 36.8648C188.323 36.404 188.439 35.9646 188.52 35.5466C188.598 35.0915 188.627 34.7336 188.607 34.473C188.653 34.0951 188.761 33.544 188.931 32.8198C189.098 32.0583 189.282 31.2769 189.484 30.4754C189.685 29.6739 189.875 28.9668 190.053 28.3543C190.266 27.7017 190.404 27.2981 190.467 27.1436C190.616 27.1323 190.736 26.9921 190.828 26.7231C190.92 26.454 190.956 26.1892 190.936 25.9286C190.914 25.6308 190.944 25.2916 191.028 24.9108C191.148 24.5273 191.278 24.2554 191.415 24.0952C191.401 23.9091 191.423 23.7015 191.48 23.4725C191.572 23.2035 191.613 22.9945 191.601 22.8456C191.59 22.6967 191.616 22.545 191.679 22.3904C191.78 22.2331 191.824 22.0799 191.813 21.931C192.037 21.4273 192.314 20.6388 192.645 19.5654C193.01 18.452 193.385 17.2255 193.77 15.8859C194.192 14.5435 194.579 13.2225 194.93 11.923C195.281 10.6235 195.554 9.5357 195.75 8.65975C195.98 7.74375 196.088 7.19269 196.074 7.00655C196.051 6.70874 196.109 6.47974 196.246 6.31955C196.384 6.15937 196.602 6.06799 196.9 6.04544C197.003 5.9253 197.127 5.84097 197.274 5.79247C197.457 5.74114 197.623 5.70984 197.772 5.69856C197.772 5.69856 197.852 5.76737 198.012 5.905C198.172 6.04263 198.413 6.24907 198.733 6.52433C199.051 6.76235 199.241 7.04748 199.303 7.3797C199.403 7.7091 199.47 8.09716 199.504 8.54388C199.54 9.02783 199.517 9.46016 199.433 9.84089C199.35 10.2216 199.168 10.7783 198.886 11.511C198.605 12.2437 198.167 13.3814 197.572 14.924C197.331 15.6911 197.068 16.4224 196.784 17.1178C196.496 17.7761 196.359 18.1796 196.37 18.3285C196.381 18.4774 196.324 18.7064 196.197 19.0155C196.108 19.3218 196.006 19.7039 195.891 20.1619C195.765 20.471 195.594 20.9333 195.378 21.5486C195.16 22.1268 194.927 22.7622 194.68 23.4548C194.468 24.1074 194.286 24.6827 194.137 25.1808C193.985 25.6416 193.911 25.9092 193.917 25.9837C193.928 26.1326 193.921 26.2829 193.895 26.4346C193.906 26.5835 193.843 26.7381 193.705 26.8983C193.557 26.9095 193.472 27.0283 193.452 27.2544C193.466 27.4406 193.473 27.5336 193.473 27.5336C193.501 27.9059 193.278 28.915 192.804 30.5608C192.363 32.6534 191.947 34.5757 191.556 36.3276C191.201 38.0767 191.064 39.4724 191.143 40.5147C191.21 41.4082 191.237 42.0052 191.222 42.3058C191.205 42.5692 191.053 42.7867 190.766 42.9581ZM200.069 40.5125C199.505 40.4804 198.991 40.1261 198.528 39.4498C198.1 38.7335 197.825 38.0803 197.706 37.4904C197.721 37.1897 197.725 36.7588 197.72 36.1976C197.752 35.6335 197.783 35.0509 197.813 34.4496C197.908 33.731 198.048 32.8593 198.232 31.8345C198.414 30.7724 198.595 29.7103 198.777 28.6482C198.996 27.5833 199.189 26.6701 199.356 25.9087C199.523 25.1472 199.638 24.6892 199.701 24.5347C199.865 24.2227 200.157 24.1257 200.578 24.2436C200.998 24.3615 201.35 24.5595 201.633 24.8376C201.879 25.1185 202.036 25.4622 202.105 25.8689C202.21 26.2728 202.199 26.8726 202.072 27.6685C201.983 28.4615 201.772 29.6381 201.441 31.1982C201.145 32.7183 200.92 33.9522 200.767 34.8998C200.648 35.8073 200.646 36.7622 200.759 37.7645C200.706 39.0415 200.654 39.8317 200.602 40.1352C200.547 40.4014 200.37 40.5272 200.069 40.5125ZM204.803 17.7459C204.662 17.8689 204.518 17.936 204.369 17.9473C204.254 17.9185 204.041 17.8223 203.729 17.6588C203.466 17.6413 203.118 17.4991 202.686 17.2323C202.288 16.9255 201.928 16.6158 201.605 16.3034C201.316 15.9508 201.169 15.7373 201.163 15.6629C201.098 15.2934 201.081 14.8267 201.113 14.2627C201.18 13.6586 201.345 13.1219 201.609 12.6526C201.87 12.1461 202.279 11.8531 202.834 11.7736C202.983 11.7623 203.115 11.771 203.229 11.7998C203.344 11.8286 203.689 11.9335 204.264 12.1145C204.604 12.6504 204.95 13.2607 205.301 13.9454C205.65 14.5929 205.831 15.2532 205.844 15.9261C205.855 16.5617 205.508 17.1683 204.803 17.7459ZM207.005 40.4926C206.613 40.2602 206.315 40.0394 206.112 39.8301C205.909 39.6209 205.81 39.3101 205.817 38.8978C205.849 38.3337 205.917 37.7483 206.021 37.1413C206.122 36.4972 206.261 35.8689 206.439 35.2563C206.5 34.5778 206.58 33.8978 206.678 33.2165C206.813 32.5323 207.063 31.8769 207.428 31.2502C207.807 29.8362 208.207 28.4394 208.627 27.0597C209.043 25.6428 209.382 24.1758 209.641 22.6585C210.098 21.2761 210.51 20.0467 210.878 18.9706C211.283 17.8915 211.758 16.5077 212.305 14.8189C212.612 13.9345 212.856 12.9613 213.038 11.8992C213.254 10.7971 213.629 9.81395 214.163 8.94984C214.398 8.59507 214.563 8.30177 214.657 8.06994C214.787 7.79808 214.917 7.54483 215.049 7.31019C215.107 7.08119 215.343 6.9884 215.758 7.03184C216.211 7.07246 216.54 7.21601 216.746 7.4625C216.929 7.41117 217.171 7.63622 217.471 8.13766C217.771 8.63909 217.895 9.04154 217.843 9.34499C217.874 9.75448 217.759 10.2125 217.498 10.719C217.36 10.8792 217.228 11.1138 217.102 11.4229C216.973 11.6948 216.776 12.0653 216.512 12.5346C216.4 13.0299 216.287 13.5251 216.175 14.0203C216.063 14.5155 215.929 14.9749 215.774 15.3985C215.619 15.8221 215.445 16.2471 215.253 16.6735C215.061 17.1 214.937 17.4463 214.882 17.7125C214.612 18.5941 214.303 19.4599 213.956 20.3099C213.643 21.1199 213.371 21.9828 213.141 22.8988C212.908 23.7776 212.661 24.7136 212.399 25.7069C212.172 26.6601 211.83 27.5846 211.374 28.4803C211.141 28.8723 210.975 29.3904 210.874 30.0345C210.773 30.6786 210.67 31.3041 210.567 31.911C210.357 32.6009 210.161 33.2334 209.98 33.8088C209.836 34.3813 209.77 34.742 209.781 34.8909C209.583 35.7296 209.44 36.5641 209.353 37.3943C209.264 38.1874 209.074 38.8944 208.784 39.5154C208.789 40.0766 208.65 40.4616 208.366 40.6703C208.119 40.8762 207.666 40.8169 207.005 40.4926ZM220.418 40.3751C219.817 40.3458 219.362 40.268 219.052 40.1416C218.741 39.978 218.153 39.6294 217.288 39.0959C216.808 38.683 216.141 38.0408 215.289 37.1694C214.437 36.2979 213.58 35.3706 212.72 34.3875C211.856 33.3671 211.136 32.5044 210.558 31.7994L212.615 28.5547C213.144 29.1137 213.577 29.6425 213.914 30.1411C214.252 30.6397 214.52 30.9751 214.721 31.1471C215.673 32.3479 216.42 33.3209 216.964 34.066C217.544 34.8083 218.057 35.4059 218.503 35.8588C218.95 36.3118 219.41 36.7074 219.885 37.0459C220.397 37.3815 221.022 37.7272 221.761 38.0832C221.878 38.1492 221.998 38.2524 222.121 38.3928C222.244 38.5333 222.298 38.7538 222.284 39.0544C222.166 39.4752 222.018 39.7485 221.84 39.8743C221.697 39.96 221.223 40.127 220.418 40.3751ZM210.344 31.1978C210.073 30.5819 210.099 29.9434 210.424 29.2823C210.782 28.5812 211.194 28.0821 211.658 27.7848C211.787 27.513 211.923 27.3342 212.067 27.2484C212.244 27.1226 212.346 26.9839 212.372 26.8322C212.435 26.6776 212.606 26.4588 212.884 26.1756C213.199 25.8897 213.479 25.6251 213.722 25.382C214.29 24.9646 214.926 24.4672 215.631 23.8896C216.371 23.272 217.073 22.6572 217.738 22.0452C218.403 21.4332 218.962 20.9042 219.415 20.458C219.905 20.009 220.202 19.7245 220.305 19.6043C220.405 19.447 220.547 19.3426 220.73 19.2913C220.948 19.1999 221.23 19.216 221.576 19.3395C222.032 19.4174 222.344 19.581 222.512 19.8303C222.678 20.0423 222.786 20.4834 222.837 21.1535C222.98 21.5545 222.846 22.014 222.436 22.5317C222.06 23.0095 221.466 23.56 220.652 24.1832C220.368 24.3919 219.98 24.7021 219.487 25.1139C219.031 25.5228 218.63 25.9089 218.283 26.2721C218.033 26.4408 217.662 26.731 217.169 27.1427C216.711 27.5144 216.308 27.8819 215.961 28.2451C215.677 28.4538 215.312 28.8185 214.865 29.3391C214.414 29.8224 213.956 30.1941 213.489 30.4542C212.382 31.6612 211.646 32.316 211.279 32.4187C210.912 32.5213 210.601 32.1144 210.344 31.1978ZM229.792 38.6542C228.295 38.1685 227.284 37.4215 226.758 36.4129C226.267 35.3644 226.067 33.7134 226.158 31.4601C226.145 30.3004 226.125 29.5345 226.096 29.1622C226.068 28.7899 225.835 28.4332 225.398 28.0919C225.275 27.9515 225.054 27.7622 224.737 27.5242C224.456 27.2834 224.328 27.0685 224.351 26.8795C224.294 26.6217 224.291 26.3411 224.343 26.0377C224.392 25.697 224.491 25.521 224.64 25.5097C224.789 25.4985 224.935 25.45 225.079 25.3642C225.259 25.2757 225.427 25.263 225.581 25.3262C225.73 25.3149 225.899 25.3208 226.088 25.3439C226.277 25.3671 226.377 25.4531 226.388 25.602C226.557 25.8513 226.802 25.8702 227.123 25.6587C227.441 25.4099 227.758 24.8992 228.074 24.1265C228.401 23.5026 228.84 22.8704 229.39 22.2296C229.978 21.5861 230.551 20.9997 231.11 20.4707C231.704 19.9016 232.197 19.4898 232.589 19.2354C232.77 19.1469 233.042 19.0327 233.406 18.8928C233.769 18.7529 234.153 18.6302 234.557 18.5248C234.998 18.4165 235.369 18.3697 235.67 18.3843C236.343 18.3708 236.915 18.5146 237.387 18.8158C237.896 19.1142 238.373 19.4713 238.816 19.887C239.325 20.1853 239.657 20.6095 239.811 21.1595C240.002 21.7066 240.085 22.2994 240.058 22.9379C240.032 23.5764 239.908 24.1661 239.687 24.707C239.603 25.0877 239.321 25.5584 238.839 26.119C238.357 26.6797 237.8 27.2274 237.166 27.7621C236.533 28.2968 235.945 28.697 235.404 28.9626C234.928 29.111 234.303 29.252 233.526 29.3856C232.788 29.5165 232.083 29.6073 231.413 29.658C230.777 29.6688 230.344 29.6267 230.112 29.532C229.84 29.4028 229.651 29.6231 229.544 30.1927C229.437 30.7624 229.386 31.5713 229.391 32.6192C229.379 33.4439 229.424 34.0395 229.526 34.4061C229.629 34.7727 229.723 35.0277 229.809 35.171C230.089 35.4118 230.468 35.7201 230.946 36.0957C231.458 36.4313 232.132 36.4364 232.969 36.111C233.662 35.8713 234.314 35.3351 234.925 34.5026C235.573 33.6673 236.177 32.9851 236.736 32.456C236.865 32.1842 237.095 32.0169 237.428 31.9543C237.794 31.8517 238.187 31.8407 238.605 31.9213C239.034 32.1509 239.225 32.4546 239.179 32.8325C239.167 33.1704 239.02 33.7057 238.739 34.4384C238.647 34.7074 238.412 35.0622 238.033 35.5027C237.689 35.9032 237.291 36.3265 236.838 36.7726C236.419 37.1787 236.032 37.5076 235.677 37.7591C234.605 38.4393 233.587 38.8347 232.622 38.9453C231.654 39.0186 230.711 38.9216 229.792 38.6542ZM232.228 27.0691C233.033 26.8209 233.674 26.6413 234.153 26.5302C234.631 26.4191 235.081 26.1791 235.502 25.8102C235.921 25.4041 236.427 24.6731 237.021 23.6172C237.139 23.1965 237.145 22.7841 237.039 22.3803C236.971 21.9736 236.857 21.7015 236.697 21.5638C236.334 21.2169 235.916 21.1363 235.443 21.3219C235.005 21.4674 234.592 21.7045 234.205 22.0334C233.953 22.1648 233.583 22.4736 233.096 22.9598C232.643 23.406 232.196 23.9266 231.754 24.5216C231.31 25.0794 230.955 25.593 230.691 26.0623C230.427 26.5316 230.373 26.7978 230.527 26.861C230.464 27.0155 230.676 27.0931 231.163 27.0936C231.687 27.0914 232.042 27.0832 232.228 27.0691ZM11.6731 127.334C11.258 127.291 10.8144 127.119 10.3423 126.817C9.90458 126.476 9.50129 126.095 9.13241 125.673C8.79794 125.212 8.56077 124.799 8.42089 124.436C8.41525 124.361 8.35236 124.272 8.23222 124.169C8.14931 124.063 8.10785 124.01 8.10785 124.01C7.95048 123.91 7.82076 123.433 7.71868 122.579C7.651 121.686 7.63212 120.695 7.66202 119.607C7.69193 118.519 7.75736 117.653 7.85833 117.009C7.99935 116.399 8.21792 115.578 8.51405 114.544C8.80737 113.474 9.0533 112.519 9.25185 111.68L10.5142 108.328L8.23407 107.882C7.96785 107.828 7.73321 107.696 7.53016 107.487C7.36433 107.274 7.27578 107.094 7.2645 106.945C7.24194 106.647 7.38267 106.281 7.68669 105.846C7.9879 105.374 8.21295 105.132 8.36186 105.121C8.55081 105.144 8.88726 105.137 9.37121 105.101C9.89238 105.061 10.3935 105.004 10.8747 104.931C11.3558 104.857 11.6508 104.797 11.7596 104.751C11.9029 104.666 12.0448 104.561 12.1852 104.438C12.3228 104.278 12.419 104.065 12.4737 103.799C12.6288 103.375 12.7682 102.99 12.8917 102.644C13.0124 102.26 13.1861 101.835 13.4129 101.369C13.6368 100.865 13.8105 100.44 13.9341 100.094C14.0948 99.7446 14.3388 99.2581 14.6659 98.6342C14.8323 98.3596 15.0131 98.0276 15.2083 97.6384C15.4034 97.2493 15.6586 96.9117 15.9739 96.6257C16.2864 96.3025 16.6116 96.1468 16.9495 96.1587C17.3217 96.1305 17.8054 96.3372 18.4004 96.7789C18.7265 97.1286 18.9151 97.3951 18.9665 97.5784C19.0178 97.7617 18.8957 98.1267 18.6001 98.6732C18.3502 99.3286 18.0445 99.9883 17.683 100.652C17.3586 101.313 17.0529 101.973 16.7658 102.631C16.2322 103.495 16.1558 103.969 16.5365 104.052C16.9172 104.136 17.9539 103.983 19.6466 103.592C20.7121 103.324 21.4981 103.321 22.0046 103.582C22.5083 103.806 22.8213 104.232 22.9437 104.859C23.1231 105.744 23.0709 106.291 22.7872 106.499C22.5035 106.708 21.6543 106.866 20.2397 106.973C19.3575 107.19 18.6014 107.341 17.9714 107.426C17.3385 107.474 16.8732 107.509 16.5754 107.531C16.0943 107.605 15.7792 107.648 15.6303 107.659C15.4814 107.67 15.2609 107.725 14.9687 107.822C14.6765 107.919 14.4631 108.066 14.3282 108.263C14.2278 108.421 14.1145 108.654 13.9881 108.963C13.8505 109.123 13.6567 109.531 13.4069 110.186C13.157 110.842 12.8369 111.559 12.4466 112.337C12.0438 113.94 11.7155 115.537 11.4617 117.129C11.205 118.684 11.02 120.195 10.9066 121.664C10.8282 122.606 10.8962 123.256 11.1105 123.614C11.322 123.935 11.8215 124.103 12.6089 124.118C13.0212 124.125 13.6727 124.075 14.5633 123.97C15.4883 123.825 16.2058 123.659 16.7157 123.47C17.1111 123.253 17.5251 123.035 17.9577 122.815C18.3875 122.557 18.7801 122.303 19.1354 122.052C19.4564 121.84 19.7773 121.629 20.0982 121.417C20.4164 121.168 20.5754 121.044 20.5754 121.044C20.739 120.732 20.9367 120.623 21.1685 120.718C21.4003 120.813 21.6076 121.078 21.7904 121.513C21.8242 121.96 21.7664 122.433 21.6169 122.931C21.4674 123.429 20.8224 124.058 19.682 124.818C18.0857 125.987 16.5887 126.737 15.191 127.068C13.8278 127.358 12.6551 127.447 11.6731 127.334ZM28.4502 125.614C27.9662 125.651 27.5683 125.587 27.2564 125.424C26.9817 125.257 26.6269 125.022 26.1921 124.718C25.4284 124.027 24.8722 123.358 24.5236 122.71C24.1723 122.026 24.0284 121.363 24.0922 120.721C24.1813 120.415 24.1974 120.133 24.1404 119.875C24.1178 119.577 24.1066 119.429 24.1066 119.429C23.9063 119.257 23.842 119.149 23.9137 119.106C23.9825 119.026 24.0485 118.909 24.1117 118.754C24.335 118.737 24.394 118.527 24.2885 118.123C24.1915 117.831 24.291 117.168 24.5872 116.135C24.8833 115.102 25.2767 114.117 25.7674 113.181C25.9626 112.792 26.261 112.283 26.6626 111.653C27.0614 110.987 27.4988 110.336 27.9749 109.701C28.4853 109.025 28.9498 108.485 29.3683 108.079C30.2398 107.226 31.0151 106.587 31.6942 106.162C32.3733 105.736 33.1153 105.399 33.9202 105.151C34.7251 104.902 35.2764 104.767 35.5742 104.744C35.9093 104.719 36.3785 104.983 36.9821 105.536C37.8665 105.844 38.5145 106.244 38.9263 106.737C39.3753 107.227 39.6937 107.971 39.8815 108.967C40.0777 110.076 40.082 111.367 39.8941 112.841C39.7407 114.276 38.9998 116.11 37.6715 118.345C36.8423 119.756 36.0622 120.826 35.3312 121.555C34.5974 122.247 33.7147 122.95 32.683 123.665C31.9408 124.245 31.2631 124.69 30.6499 124.998C30.034 125.27 29.3008 125.475 28.4502 125.614ZM33.3625 119.289C34.1798 118.216 34.8152 117.213 35.2687 116.281C35.7594 115.345 36.1946 114.17 36.5742 112.756C36.6921 112.335 36.7471 111.825 36.7392 111.227C36.7285 110.591 36.6661 110.016 36.5522 109.5C36.4727 108.945 36.3184 108.638 36.0894 108.581C35.623 108.354 35.0775 108.32 34.4532 108.48C33.8259 108.602 33.164 109.008 32.4674 109.697C31.3867 110.753 30.4732 112.039 29.727 113.555C28.9779 115.035 28.263 116.718 27.5822 118.604C27.1253 119.986 27.0768 121.076 27.4366 121.872C27.8309 122.628 28.5407 122.855 29.5662 122.553C30.626 122.211 31.8914 121.123 33.3625 119.289ZM62.6082 123.757C62.0757 123.647 61.6349 123.512 61.2858 123.352C60.9338 123.154 60.4603 122.834 59.8652 122.392C59.3734 121.83 58.9775 121.299 58.6774 120.797C58.4146 120.293 58.2205 119.709 58.0953 119.044C57.9673 118.343 57.8624 117.452 57.7806 116.372C57.7468 115.926 57.7705 115.25 57.8517 114.345C57.9702 113.438 58.1044 112.492 58.2545 111.507C58.4389 110.482 58.5946 109.572 58.7215 108.776C58.8857 107.977 58.9779 107.465 58.9982 107.238C59.0732 106.746 58.8659 106.481 58.3763 106.443C57.8868 106.405 57.3456 106.428 56.7527 106.51C56.1943 106.552 55.8179 106.525 55.6233 106.427C55.4715 106.401 55.3928 106.351 55.3872 106.276C55.3787 106.165 55.3745 106.109 55.3745 106.109C55.3632 105.96 55.3376 105.868 55.2975 105.834C55.2919 105.759 55.2262 105.633 55.1004 105.456C55.0147 105.312 55.0364 105.105 55.1656 104.833C55.3291 104.521 55.6128 104.312 56.0167 104.207C56.3461 104.107 56.7886 104.017 57.3442 103.938C57.9342 103.818 58.5199 103.643 59.1014 103.412C59.6802 103.143 60.1387 102.771 60.4771 102.297C60.7502 101.452 61.0719 100.511 61.4425 99.4715C61.8131 98.4326 62.1735 97.5067 62.5238 96.6939C62.9085 95.8411 63.1683 95.316 63.3031 95.1186C63.9105 94.7356 64.366 94.5701 64.6695 94.622C64.9701 94.6366 65.3291 94.9277 65.7465 95.4951C65.9524 95.7416 66.0982 95.9365 66.1839 96.0797C66.3068 96.2202 66.3424 96.4421 66.2905 96.7456C66.2386 97.049 66.0691 97.5299 65.782 98.1881C65.5321 98.8435 65.1359 99.7908 64.5932 101.03C64.4353 101.416 64.2932 101.764 64.1668 102.073C64.0377 102.345 63.9731 102.481 63.9731 102.481C64.1248 102.507 64.3496 102.509 64.6474 102.486C64.9452 102.464 65.316 102.417 65.7599 102.346C66.1638 102.24 66.6807 102.145 67.3108 102.06C67.938 101.937 68.4406 101.899 68.8185 101.945C69.6747 101.881 70.3202 102 70.7551 102.304C71.1871 102.571 71.45 103.075 71.5436 103.817C71.6491 104.221 71.5743 104.47 71.3194 104.564C71.1017 104.655 70.4902 104.739 69.4851 104.815C69.1501 104.841 68.6303 104.899 67.9258 104.99C67.2214 105.08 66.4796 105.174 65.7007 105.27C64.959 105.364 64.3117 105.469 63.759 105.586C63.2406 105.663 62.9843 105.738 62.9899 105.813C62.8839 105.896 62.7245 106.263 62.5119 106.916C62.3365 107.566 62.1495 108.31 61.9509 109.149C61.7868 109.947 61.6356 110.67 61.4974 111.317C61.3327 112.603 61.2238 113.884 61.1708 115.161C61.155 116.435 61.2196 117.535 61.3645 118.46C61.5095 119.385 61.7635 120.021 62.1268 120.368C62.4872 120.677 63.1443 120.702 64.0981 120.443C65.0491 120.146 65.8041 119.733 66.363 119.204C66.9908 118.595 67.5094 118.275 67.9189 118.244C68.3657 118.21 68.6231 118.397 68.6914 118.803C68.794 119.17 68.6302 119.725 68.1998 120.469C67.8038 121.173 67.2906 121.811 66.66 122.383C66.0265 122.918 65.346 123.325 64.6184 123.605C63.9252 123.844 63.2551 123.895 62.6082 123.757ZM77.6297 121.103C77.3375 121.2 76.9494 121.267 76.4655 121.303C75.9787 121.303 75.5464 121.279 75.1685 121.233C74.825 121.147 74.649 121.048 74.6405 120.936C74.6264 120.75 74.5263 120.664 74.3402 120.678C74.3402 120.678 74.2415 120.611 74.0441 120.476C73.8839 120.338 73.6306 120.208 73.2843 120.084C72.9098 119.588 72.7 119.042 72.6548 118.447C72.6069 117.814 72.6997 116.815 72.9332 115.449C72.9744 114.51 73.2463 113.404 73.7489 112.13C74.2858 110.817 74.9517 109.474 75.7465 108.104C76.5412 106.733 77.383 105.49 78.272 104.374C79.1981 103.256 80.0524 102.424 80.8347 101.878C81.3164 101.317 81.9281 100.99 82.6698 100.896C83.4116 100.803 84.1316 100.917 84.8298 101.238C85.2162 101.396 85.611 101.666 86.0143 102.047C86.4176 102.428 86.8051 102.848 87.1768 103.307C87.5485 103.765 87.8643 104.228 88.1244 104.695C88.2671 105.096 88.3511 105.464 88.3765 105.799C88.4363 106.094 88.4645 106.467 88.4611 106.916C88.4949 107.363 88.4898 108.037 88.4458 108.939C88.3104 109.623 88.205 110.455 88.1294 111.434C88.091 112.41 88.0986 113.252 88.1522 113.96C88.1313 114.672 88.2438 115.169 88.4897 115.45C88.7729 115.728 89.1466 115.719 89.6108 115.422C90.0406 115.164 90.4616 115.039 90.8739 115.045C91.2834 115.014 91.6083 115.102 91.8486 115.308C92.1261 115.512 92.2818 115.837 92.3156 116.284C92.3495 116.73 92.1613 117.213 91.7513 117.73C91.3756 118.208 90.8841 118.639 90.2766 119.022C89.7035 119.364 89.1378 119.557 88.5794 119.599C88.1699 119.63 87.7607 119.418 87.3518 118.962C86.94 118.469 86.5584 117.88 86.2071 117.196C85.8901 116.471 85.5945 115.782 85.3204 115.129L84.8881 113.87L82.6604 116.341C82.2159 116.899 81.7686 117.42 81.3185 117.903C80.9028 118.346 80.6462 118.665 80.5486 118.86C80.3878 119.209 80.0596 119.571 79.5638 119.945C79.1052 120.317 78.4605 120.703 77.6297 121.103ZM77.5476 117.795C78.1523 117.375 78.8373 116.78 79.6027 116.011C80.3653 115.205 81.1051 114.344 81.822 113.428C82.536 112.475 83.1255 111.607 83.5903 110.823C84.1583 109.919 84.5816 109.082 84.8602 108.312C85.1389 107.542 85.3273 106.816 85.4254 106.135C85.2455 105.737 84.9711 105.327 84.6022 104.906C84.2305 104.447 83.913 104.209 83.6495 104.192C82.8306 104.254 81.9952 104.841 81.1435 105.954C80.3262 107.027 79.5346 108.191 78.7686 109.447C78.6338 109.645 78.4516 109.958 78.222 110.387C77.9924 110.817 77.7615 111.227 77.5291 111.619C77.3311 111.971 77.1991 112.206 77.1331 112.323C77.0327 112.48 76.8418 112.926 76.5603 113.658C76.3133 114.351 76.0676 115.062 75.8234 115.792C75.5763 116.485 75.4612 116.943 75.4782 117.166C75.4951 117.389 75.532 117.63 75.589 117.888C75.6832 118.143 75.882 118.296 76.1855 118.348C76.4889 118.4 76.943 118.216 77.5476 117.795ZM108.717 120.489C108.579 120.649 108.174 120.736 107.501 120.749C106.865 120.76 106.258 120.656 105.68 120.438C105.597 120.332 105.458 120.23 105.264 120.133C105.066 119.998 104.868 119.844 104.667 119.672C104.504 119.498 104.361 119.34 104.238 119.199C104.156 119.093 103.954 118.903 103.634 118.628C103.31 118.315 102.989 118.021 102.668 117.746C102.348 117.471 102.128 117.281 102.007 117.178C101.836 116.892 101.51 116.542 101.029 116.129C100.546 115.679 100.084 115.265 99.6436 114.886C99.3548 114.534 99.0702 114.237 98.7899 113.996C98.5096 113.755 98.2721 113.586 98.0775 113.489C97.8801 113.354 97.7256 113.291 97.6139 113.299C97.6139 113.299 97.5578 113.547 97.4455 114.042C97.3677 114.497 97.2439 115.087 97.0741 115.811C96.9387 116.495 96.7861 117.199 96.6163 117.924C96.481 118.608 96.3729 119.159 96.2923 119.577C96.0712 120.118 95.8746 120.488 95.7026 120.688C95.5305 120.889 95.2956 121 94.9978 121.023C94.5883 121.054 94.2019 120.896 93.8387 120.549C93.5127 120.199 93.3229 119.671 93.2693 118.963C93.0809 118.453 93.1811 117.304 93.5697 115.515C93.9583 113.726 94.5895 111.431 95.4632 108.632C95.5699 108.062 95.7123 107.471 95.8905 106.859C96.0659 106.209 96.2126 105.674 96.3305 105.253C96.6097 103.996 96.9146 102.831 97.2451 101.758C97.6101 100.644 97.9936 99.5296 98.3958 98.4134C98.7951 97.2599 99.2075 96.0306 99.6328 94.7254C99.9171 94.03 100.122 93.5277 100.249 93.2186C100.372 92.8723 100.514 92.5246 100.675 92.1754C100.833 91.7891 101.071 91.2281 101.39 90.4926C102.093 88.9043 102.655 87.6637 103.074 86.7708C103.493 85.8779 103.817 85.2169 104.047 84.7877C104.276 84.3584 104.477 84.0437 104.649 83.8435C104.821 83.6432 105.035 83.496 105.29 83.4018C105.545 83.3076 105.805 83.2879 106.071 83.3426C106.335 83.3601 106.568 83.4735 106.771 83.6827C107.091 83.958 107.283 84.2617 107.346 84.5939C107.443 84.8861 107.399 85.3012 107.215 85.8393C107.069 86.3746 106.751 87.1287 106.263 88.1017C106.016 88.7943 105.811 89.2966 105.647 89.6085C105.484 89.9204 105.32 90.2323 105.157 90.5443C104.993 90.8562 104.735 91.3999 104.382 92.1755C104.324 92.4045 104.231 92.6549 104.102 92.9268C103.973 93.1986 103.815 93.3416 103.629 93.3557C103.637 93.4674 103.598 93.695 103.512 94.0385C103.426 94.382 103.319 94.7083 103.193 95.0174C103.112 95.4353 102.96 95.8961 102.736 96.3998C102.547 96.8635 102.407 97.2484 102.318 97.5547C102.166 98.0155 101.915 98.6523 101.564 99.4651C101.251 100.275 100.937 101.066 100.621 101.839C100.339 102.572 100.177 103.146 100.134 103.561C100.145 103.71 100.255 103.683 100.464 103.48C100.674 103.277 100.903 103.091 101.152 102.922C101.677 102.433 102.276 101.938 102.949 101.438C103.657 100.898 104.333 100.435 104.978 100.049C105.657 99.6231 106.217 99.356 106.658 99.2477C107.206 99.0565 107.647 98.9482 107.982 98.9228C108.354 98.8946 108.732 98.9409 109.115 99.0616C109.424 99.1879 109.682 99.3744 109.888 99.6208C110.131 99.8645 110.34 100.148 110.514 100.472C110.725 100.793 110.887 101.193 110.998 101.671C111.023 102.006 110.935 102.574 110.734 103.376C110.532 104.177 110.274 104.964 109.958 105.737C109.639 106.473 109.305 107.003 108.955 107.329C108.703 107.461 108.507 107.588 108.367 107.711C108.226 107.834 108.156 107.895 108.156 107.895C108.167 108.044 108.107 108.236 107.975 108.471C107.88 108.702 107.689 108.904 107.403 109.076C107.265 109.236 107.112 109.435 106.943 109.672C106.773 109.909 106.693 110.084 106.701 110.196C106.701 110.196 106.706 110.252 106.714 110.363C106.72 110.438 106.723 110.475 106.723 110.475C106.574 110.486 106.359 110.615 106.078 110.861C105.834 111.104 105.519 111.39 105.132 111.719C104.754 112.159 104.473 112.405 104.289 112.456C104.143 112.505 103.926 112.596 103.636 112.73C103.567 112.811 103.478 112.873 103.37 112.919C103.298 112.962 103.208 113.006 103.099 113.052C103.027 113.095 102.956 113.138 102.884 113.181C102.85 113.221 102.835 113.278 102.841 113.352C102.852 113.501 103.044 113.805 103.415 114.264C103.821 114.682 104.288 115.152 104.814 115.674C105.377 116.193 105.901 116.677 106.384 117.127C106.902 117.538 107.278 117.809 107.513 117.941C107.896 118.061 108.177 118.302 108.354 118.663C108.565 118.984 108.704 119.329 108.769 119.699C108.832 120.031 108.814 120.294 108.717 120.489ZM101.267 111.113C101.442 110.95 101.81 110.622 102.372 110.131C102.931 109.601 103.543 109.031 104.208 108.419C104.87 107.77 105.461 107.163 105.98 106.6C106.533 105.996 106.912 105.556 107.115 105.278C107.356 104.998 107.583 104.532 107.795 103.879C108.008 103.226 108.007 102.721 107.793 102.363C107.744 102.217 107.415 102.317 106.805 102.662C106.194 103.008 105.495 103.417 104.707 103.888C104.103 104.309 103.395 104.849 102.584 105.509C101.81 106.167 101.076 106.859 100.382 107.586C99.7257 108.309 99.2353 109.002 98.9109 109.663C98.8562 109.929 98.9532 110.221 99.202 110.539C99.4507 110.857 99.7683 111.095 100.155 111.253C100.538 111.374 100.909 111.327 101.267 111.113ZM117.387 118.372C115.89 117.886 114.878 117.139 114.353 116.131C113.861 115.082 113.662 113.431 113.753 111.178C113.74 110.018 113.719 109.252 113.691 108.88C113.663 108.508 113.43 108.151 112.992 107.81C112.869 107.669 112.649 107.48 112.332 107.242C112.051 107.001 111.923 106.786 111.946 106.597C111.889 106.34 111.886 106.059 111.938 105.756C111.987 105.415 112.086 105.239 112.235 105.228C112.384 105.216 112.53 105.168 112.673 105.082C112.854 104.993 113.021 104.981 113.176 105.044C113.325 105.033 113.494 105.039 113.683 105.062C113.872 105.085 113.972 105.171 113.983 105.32C114.152 105.569 114.397 105.588 114.717 105.376C115.036 105.128 115.353 104.617 115.668 103.844C115.996 103.22 116.434 102.588 116.985 101.947C117.573 101.304 118.146 100.718 118.705 100.188C119.298 99.6194 119.791 99.2076 120.184 98.9533C120.364 98.8647 120.637 98.7505 121 98.6106C121.364 98.4707 121.748 98.3481 122.152 98.2426C122.593 98.1343 122.964 98.0875 123.264 98.1022C123.937 98.0886 124.51 98.2325 124.982 98.5337C125.491 98.832 125.968 99.1891 126.411 99.6048C126.92 99.9032 127.252 100.327 127.406 100.877C127.597 101.424 127.679 102.017 127.653 102.656C127.626 103.294 127.503 103.884 127.281 104.425C127.198 104.806 126.915 105.276 126.434 105.837C125.952 106.398 125.394 106.945 124.761 107.48C124.128 108.015 123.54 108.415 122.999 108.68C122.523 108.829 121.897 108.97 121.121 109.103C120.382 109.234 119.678 109.325 119.008 109.376C118.372 109.387 117.938 109.345 117.707 109.25C117.435 109.121 117.245 109.341 117.139 109.911C117.032 110.48 116.981 111.289 116.986 112.337C116.973 113.162 117.018 113.757 117.121 114.124C117.224 114.491 117.318 114.746 117.404 114.889C117.684 115.13 118.063 115.438 118.541 115.814C119.053 116.149 119.727 116.154 120.564 115.829C121.257 115.589 121.909 115.053 122.52 114.22C123.168 113.385 123.771 112.703 124.33 112.174C124.46 111.902 124.69 111.735 125.022 111.672C125.389 111.569 125.781 111.558 126.199 111.639C126.629 111.869 126.82 112.172 126.774 112.55C126.762 112.888 126.615 113.423 126.334 114.156C126.242 114.425 126.007 114.78 125.628 115.221C125.284 115.621 124.886 116.044 124.433 116.49C124.014 116.897 123.627 117.225 123.272 117.477C122.2 118.157 121.182 118.553 120.217 118.663C119.249 118.736 118.305 118.639 117.387 118.372ZM119.823 106.787C120.627 106.539 121.269 106.359 121.747 106.248C122.226 106.137 122.676 105.897 123.097 105.528C123.515 105.122 124.022 104.391 124.616 103.335C124.733 102.914 124.74 102.502 124.634 102.098C124.566 101.691 124.452 101.419 124.292 101.282C123.928 100.935 123.51 100.854 123.038 101.04C122.599 101.185 122.187 101.422 121.8 101.751C121.548 101.883 121.178 102.191 120.691 102.678C120.238 103.124 119.79 103.644 119.349 104.239C118.904 104.797 118.55 105.311 118.286 105.78C118.022 106.249 117.967 106.516 118.122 106.579C118.059 106.733 118.271 106.811 118.757 106.811C119.281 106.809 119.636 106.801 119.823 106.787ZM143.267 115.738C143.096 115.451 142.893 115.242 142.658 115.11C142.42 114.941 142.296 114.782 142.285 114.633C142.274 114.484 142.244 114.336 142.195 114.19C142.181 114.004 142.094 113.842 141.934 113.705C141.731 113.495 141.711 112.991 141.875 112.193C142.037 111.357 142.334 110.342 142.768 109.149C143.199 107.918 143.719 106.624 144.327 105.268C144.603 104.947 144.871 104.534 145.132 104.027C145.393 103.521 145.592 103.188 145.73 103.027C145.719 102.878 145.765 102.744 145.868 102.624C145.968 102.466 146.093 102.382 146.242 102.371L146.217 102.036C146.202 101.85 146.346 101.521 146.647 101.048C146.986 100.574 147.396 100.056 147.877 99.4951C148.356 98.8972 148.857 98.3351 149.378 97.8089C149.897 97.2454 150.334 96.8379 150.69 96.5864C151.432 96.006 152.208 95.6289 153.019 95.4552C153.867 95.2787 154.607 95.4098 155.239 95.8486C155.359 95.9519 155.559 96.1239 155.84 96.3647C156.12 96.6056 156.44 96.8808 156.801 97.1905C157.196 97.4601 157.592 97.7483 157.99 98.0552L160.195 99.7414L159.402 102.61C159.03 104.135 158.999 105.448 159.307 106.548C159.652 107.645 160.098 108.585 160.644 109.367C160.861 109.762 161.263 110.125 161.849 110.455C162.473 110.782 163.048 110.963 163.575 110.998C163.876 111.013 164.163 111.103 164.438 111.27C164.713 111.436 164.866 111.724 164.897 112.134C164.925 112.506 164.873 112.809 164.741 113.044C164.609 113.279 164.36 113.447 163.993 113.55C162.776 113.792 161.599 113.582 160.463 112.919C159.365 112.253 158.304 111.098 157.28 109.453C157.115 109.241 156.879 108.847 156.573 108.271C156.302 107.655 156.141 107.256 156.089 107.072C155.954 107.27 155.702 107.645 155.332 108.197C154.959 108.712 154.669 109.089 154.463 109.33C152.023 112.21 149.87 114.189 148.005 115.267C146.174 116.304 144.595 116.461 143.267 115.738ZM145.04 112.458C145.06 112.719 145.451 112.689 146.213 112.37C147.009 112.01 147.845 111.422 148.719 110.607C149.903 109.432 151.079 108.145 152.246 106.746C153.45 105.344 154.4 104.055 155.098 102.879L156.174 100.776C155.737 99.9481 155.284 99.4021 154.814 99.1381C154.379 98.8341 154.013 98.6934 153.715 98.7159C153.231 98.7526 152.539 99.2543 151.639 100.221C150.776 101.185 149.861 102.452 148.894 104.023C147.928 105.594 147.028 107.31 146.195 109.17C145.879 109.943 145.599 110.694 145.355 111.424C145.145 112.113 145.04 112.458 145.04 112.458Z" fill="#888888"/>
<path d="M179.456 117.714C179.009 117.748 178.618 117.534 178.284 117.073C178.043 116.866 177.871 116.561 177.765 116.157C177.7 115.788 177.778 115.089 177.999 114.062C178.218 112.997 178.601 111.376 179.148 109.201C179.413 107.758 179.633 106.712 179.808 106.062C179.981 105.375 180.056 104.883 180.034 104.585C180.002 104.175 180.014 103.837 180.069 103.571C180.158 103.265 180.193 102.982 180.173 102.721C180.396 102.704 180.604 102.482 180.797 102.056C180.989 101.63 181.133 101.057 181.228 100.338C181.329 99.6943 181.421 99.1819 181.505 98.8012C181.623 98.3804 181.676 98.0956 181.665 97.9467C181.828 97.6347 181.979 97.1553 182.117 96.5084C182.293 95.8586 182.57 95.0701 182.949 94.1428C183.162 93.0034 183.41 91.824 183.692 90.6046C183.971 89.3479 184.257 88.1843 184.551 87.1137C184.879 86.0031 185.15 85.1402 185.366 84.5248C185.688 83.3397 185.943 82.5154 186.133 82.0518C186.32 81.5509 186.296 81.2345 186.061 81.1025C185.786 80.9361 185.707 80.6239 185.822 80.1659C185.937 79.7079 186.308 79.1743 186.936 78.5652C187.309 78.0502 187.637 77.6884 187.921 77.4797C188.202 77.2338 188.565 77.0939 189.012 77.06C189.496 77.0234 190.188 77.0084 191.087 77.0152C191.76 77.0017 192.468 76.9667 193.213 76.9103C193.995 76.8511 194.479 76.8145 194.665 76.8004C195.011 76.9239 195.433 77.0604 195.931 77.2099C196.426 77.3221 196.866 77.4386 197.249 77.5593C197.67 77.6772 197.885 77.792 197.893 77.9036C197.91 78.127 197.996 78.2703 198.15 78.3335C198.339 78.3566 198.528 78.3797 198.717 78.4028C198.978 78.3831 199.347 78.5611 199.825 78.9367C200.3 79.2751 200.802 79.7238 201.331 80.2828C201.857 80.8045 202.274 81.372 202.583 81.9851C202.929 82.5954 203.197 83.1741 203.388 83.7212C203.617 84.2655 203.677 85.0659 203.57 86.1223C203.575 86.6836 203.525 87.249 203.418 87.8187C203.349 88.3855 203.246 88.7677 203.112 88.9651C202.9 89.1309 202.709 89.3326 202.54 89.57C202.371 89.8075 202.293 90.0193 202.307 90.2054C202.318 90.3543 202.211 90.662 201.984 91.1285C201.754 91.5577 201.456 92.067 201.089 92.6564C200.721 93.2459 200.317 93.8381 199.875 94.4332C199.434 95.0282 199.005 95.5474 198.589 95.9907C198.151 96.623 197.616 97.2251 196.985 97.7971C196.392 98.3662 195.847 98.838 195.351 99.2125C194.417 99.7325 193.372 100.261 192.214 100.798C191.094 101.332 190.005 101.789 188.948 102.169C187.929 102.545 187.064 102.742 186.354 102.758C185.285 102.989 184.589 103.191 184.266 103.366C183.976 103.5 183.777 103.833 183.667 104.366C183.518 104.864 183.37 105.38 183.223 105.916C183.111 106.411 183.062 106.752 183.076 106.938C183.013 107.092 182.862 107.572 182.623 108.376C182.419 109.14 182.188 110.038 181.929 111.068C181.707 112.096 181.484 113.105 181.259 114.095C181.035 115.086 180.872 115.903 180.771 116.547C180.662 117.08 180.498 117.392 180.28 117.483C180.066 117.612 179.791 117.689 179.456 117.714ZM185.068 99.8791C185.229 100.017 185.807 99.9916 186.804 99.8038C187.8 99.616 188.859 99.255 189.979 98.7209C190.704 98.4039 191.424 98.0311 192.141 97.6024C192.894 97.1709 193.608 96.705 194.281 96.2047C194.634 95.916 195.157 95.4083 195.851 94.6819C196.544 93.9554 197.228 93.0986 197.902 92.1115C198 91.917 198.159 91.5492 198.38 91.0083C198.636 90.4273 198.857 89.8864 199.044 89.3855C199.339 88.839 199.617 88.0505 199.875 87.02C200.132 85.9522 200.141 85.0904 199.904 84.4344C199.645 83.4806 199.093 82.6238 198.249 81.8641C197.403 81.0671 196.428 80.5605 195.326 80.3445C194.496 80.2576 193.802 80.2354 193.243 80.2776C192.722 80.3171 192.149 80.4167 191.525 80.5763C190.943 80.8075 190.516 81.102 190.244 81.4596C190.009 81.8143 189.709 82.5484 189.344 83.6619C189.123 84.2028 188.811 85.0313 188.409 86.1476C188.004 87.2266 187.669 88.2441 187.405 89.2001C186.921 91.7079 186.404 93.7875 185.855 95.439C185.341 97.0504 185.025 98.0666 184.907 98.4873C184.975 98.894 184.979 99.1932 184.919 99.385C184.856 99.5395 184.905 99.7042 185.068 99.8791ZM208.853 112.96C207.215 113.084 205.828 112.571 204.693 111.422C203.555 110.235 202.934 108.71 202.83 106.845C202.803 105.5 202.955 104.047 203.286 102.487C203.652 100.886 204.172 99.3494 204.846 97.8755C205.518 96.3645 206.278 95.0339 207.127 93.8838C207.976 92.7338 208.886 91.8973 209.857 91.3745C210.216 91.1601 210.595 90.9816 210.996 90.8389C211.435 90.6934 211.877 90.6037 212.324 90.5699C212.733 90.5389 213.167 90.5809 213.625 90.696C214.08 90.7738 214.462 90.8759 214.771 91.0022C215.424 91.2149 215.932 91.4947 216.295 91.8416C216.658 92.1884 217 92.7429 217.32 93.5049C217.485 94.2038 217.579 94.7021 217.601 94.9999C217.624 95.2977 217.565 95.7515 217.424 96.3612C217.079 97.7352 216.589 98.933 215.955 99.9544C215.321 100.976 214.434 101.867 213.293 102.627C213.009 102.836 212.667 103.011 212.266 103.154C211.899 103.257 211.511 103.324 211.102 103.355C210.357 103.411 209.622 103.336 208.895 103.129C208.202 102.882 207.63 102.494 207.178 101.967L206.753 101.55L206.619 102.009C206.323 103.043 206.096 103.996 205.938 104.869C205.816 105.739 205.782 106.528 205.836 107.236C205.87 107.682 205.939 108.108 206.045 108.511C206.188 108.912 206.363 109.255 206.572 109.539C206.738 109.751 206.993 109.9 207.336 109.986C207.714 110.032 208.108 110.04 208.517 110.009C208.778 109.989 209.038 109.969 209.299 109.95C209.594 109.89 209.867 109.794 210.12 109.663C210.735 109.392 211.22 109.112 211.572 108.823C211.962 108.531 212.35 108.221 212.737 107.892L212.952 107.764L212.896 107.768C213.326 107.511 213.7 107.258 214.018 107.009C214.374 106.757 214.551 106.632 214.551 106.632C214.7 106.62 214.842 106.516 214.977 106.318C215.263 106.147 215.64 106.175 216.106 106.401C216.61 106.625 216.877 106.942 216.908 107.352C216.885 107.54 216.74 107.851 216.473 108.283C216.204 108.678 215.896 109.057 215.549 109.42C215.239 109.781 214.974 109.988 214.753 110.042C214.719 110.082 214.594 110.166 214.379 110.295C214.162 110.386 214.018 110.472 213.95 110.552L214.006 110.548C213.704 111.02 213.386 111.269 213.051 111.294L212.604 111.328C212.475 111.6 212.014 111.934 211.22 112.331C210.424 112.691 209.635 112.901 208.853 112.96ZM210.435 100.485C211.105 100.434 211.668 100.204 212.124 99.7953C212.614 99.3464 213.027 98.8658 213.363 98.3536C214.031 97.2921 214.386 96.2918 214.427 95.3527C214.503 94.3735 214.34 93.7119 213.94 93.3678C213.708 93.2731 213.499 93.2327 213.313 93.2468C213.161 93.2209 212.849 93.3007 212.376 93.4863C212.047 93.5861 211.603 93.9005 211.044 94.4296C210.485 94.9587 209.93 95.5436 209.379 96.1843C208.866 96.8222 208.476 97.3572 208.209 97.7893L207.572 99.0169C207.862 98.8827 208.137 98.8057 208.397 98.7859C208.692 98.7262 208.861 98.7321 208.904 98.8037C208.929 99.1387 209.009 99.4509 209.143 99.7403C209.312 99.9896 209.495 100.182 209.692 100.316C209.927 100.448 210.175 100.505 210.435 100.485ZM224.329 110.271C222.832 109.786 221.821 109.039 221.295 108.03C220.804 106.982 220.604 105.331 220.695 103.077C220.682 101.918 220.662 101.152 220.634 100.779C220.605 100.407 220.372 100.05 219.935 99.7091C219.812 99.5687 219.592 99.3794 219.274 99.1414C218.994 98.9006 218.865 98.6857 218.888 98.4967C218.831 98.2389 218.829 97.9583 218.881 97.6549C218.93 97.3142 219.029 97.1382 219.178 97.1269C219.326 97.1157 219.473 97.0672 219.616 96.9814C219.796 96.8929 219.964 96.8802 220.118 96.9434C220.267 96.9321 220.436 96.938 220.625 96.9611C220.814 96.9843 220.914 97.0703 220.925 97.2192C221.094 97.4685 221.339 97.4874 221.66 97.2759C221.978 97.0271 222.295 96.5164 222.611 95.7437C222.938 95.1198 223.377 94.4876 223.927 93.8468C224.515 93.2032 225.088 92.6169 225.647 92.0879C226.241 91.5188 226.734 91.107 227.126 90.8526C227.307 90.7641 227.579 90.6499 227.943 90.51C228.307 90.3701 228.69 90.2474 229.094 90.142C229.535 90.0337 229.906 89.9869 230.207 90.0015C230.88 89.988 231.452 90.1318 231.924 90.433C232.434 90.7314 232.91 91.0885 233.353 91.5042C233.863 91.8025 234.194 92.2267 234.348 92.7766C234.539 93.3238 234.622 93.9166 234.595 94.5551C234.569 95.1936 234.445 95.7833 234.224 96.3242C234.14 96.7049 233.858 97.1756 233.376 97.7362C232.894 98.2969 232.337 98.8446 231.703 99.3793C231.07 99.914 230.483 100.314 229.941 100.58C229.466 100.728 228.84 100.869 228.064 101.003C227.325 101.134 226.62 101.224 225.95 101.275C225.315 101.286 224.881 101.244 224.649 101.149C224.377 101.02 224.188 101.24 224.081 101.81C223.975 102.38 223.924 103.188 223.928 104.236C223.916 105.061 223.961 105.657 224.063 106.023C224.166 106.39 224.26 106.645 224.346 106.788C224.626 107.029 225.005 107.337 225.483 107.713C225.995 108.049 226.67 108.054 227.506 107.728C228.199 107.488 228.851 106.952 229.462 106.12C230.11 105.284 230.714 104.602 231.273 104.073C231.402 103.801 231.633 103.634 231.965 103.572C232.331 103.469 232.724 103.458 233.142 103.539C233.571 103.768 233.762 104.072 233.716 104.45C233.704 104.788 233.558 105.323 233.276 106.056C233.184 106.325 232.949 106.679 232.571 107.12C232.226 107.52 231.828 107.944 231.375 108.39C230.957 108.796 230.57 109.125 230.214 109.376C229.143 110.057 228.124 110.452 227.159 110.562C226.191 110.636 225.248 110.539 224.329 110.271ZM226.765 98.6863C227.57 98.4381 228.211 98.2585 228.69 98.1474C229.168 98.0363 229.618 97.7963 230.039 97.4274C230.458 97.0213 230.964 96.2903 231.558 95.2344C231.676 94.8137 231.682 94.4013 231.577 93.9975C231.508 93.5908 231.394 93.3187 231.234 93.181C230.871 92.8341 230.453 92.7535 229.98 92.939C229.542 93.0846 229.129 93.3217 228.742 93.6506C228.49 93.782 228.12 94.0908 227.633 94.577C227.18 95.0231 226.733 95.5438 226.291 96.1388C225.847 96.6966 225.493 97.2102 225.229 97.6795C224.965 98.1488 224.91 98.415 225.064 98.4782C225.001 98.6327 225.213 98.7103 225.7 98.7108C226.224 98.7086 226.579 98.7004 226.765 98.6863ZM238.213 110.287C237.907 110.198 237.573 109.998 237.213 109.689C236.85 109.342 236.538 108.935 236.278 108.468C236.018 108.001 235.872 107.562 235.841 107.153C235.996 106.729 236.185 106.004 236.407 104.976C236.625 103.911 236.907 102.692 237.253 101.318C237.519 100.886 237.706 100.385 237.813 99.8151C237.957 99.2426 238.086 98.7273 238.201 98.2693C238.454 97.6511 238.75 96.8612 239.089 95.8995C239.425 94.9006 239.742 93.9031 240.041 92.907C240.375 91.8709 240.665 91.0065 240.912 90.3138C241.32 89.2721 241.66 88.329 241.933 87.4846C242.241 86.6002 242.529 85.7172 242.8 84.8356C243.107 83.9512 243.427 82.9909 243.761 81.9548C244.128 80.8786 244.495 79.7838 244.86 78.6704C245.262 77.5542 245.598 76.5553 245.868 75.6737C246.173 74.752 246.348 74.1023 246.395 73.7243C246.372 73.4265 246.411 73.1989 246.511 73.0416C246.649 72.8814 246.792 72.7957 246.941 72.7844C247.079 72.6242 247.222 72.5385 247.371 72.5272C247.517 72.4787 247.665 72.4488 247.813 72.4375C247.962 72.4262 248.263 72.6843 248.714 73.2117C249.204 73.7362 249.465 74.2219 249.499 74.6686C249.544 75.2642 249.331 76.4036 248.859 78.0867C248.425 79.7669 247.765 81.6889 246.881 83.8525C245.824 86.7032 244.972 89.0516 244.326 90.8977C243.677 92.7065 243.237 94.069 243.007 94.985C242.774 95.8637 242.699 96.3561 242.782 96.4622C242.782 96.4622 243.034 96.3308 243.538 96.0679C244.039 95.7679 244.571 95.3719 245.133 94.8801C245.525 94.6257 245.951 94.3127 246.41 93.941C246.868 93.5693 247.31 93.2176 247.734 92.8859C248.155 92.5171 248.512 92.2841 248.804 92.1871C249.228 91.8555 249.672 91.541 250.137 91.2438C250.598 90.9093 250.897 90.662 251.035 90.5018C251.645 90.156 252.104 90.0277 252.41 90.1168C252.753 90.2031 253.11 90.457 253.478 90.8783C253.925 91.3312 254.032 91.7537 253.799 92.1457C253.564 92.5005 252.985 93.0123 252.062 93.6813C251.317 94.2244 250.411 94.8734 249.345 95.628C248.317 96.3799 247.394 97.0488 246.577 97.6349C245.798 98.2181 245.356 98.5698 245.253 98.6899C245.253 98.6899 245.423 98.9578 245.763 99.4937C246.103 100.029 246.439 100.509 246.771 100.934C247.114 101.507 247.472 102.041 247.847 102.537C248.256 102.993 248.467 103.314 248.482 103.5C248.978 104.623 249.656 105.414 250.515 105.873C251.373 106.332 252.233 106.323 253.096 105.846C253.818 105.492 254.351 105.358 254.694 105.444C255.075 105.528 255.357 105.787 255.539 106.222C255.711 106.509 255.765 106.73 255.702 106.884C255.673 106.999 255.452 107.296 255.039 107.777C254.386 108.538 253.693 109.039 252.963 109.282C252.27 109.522 251.614 109.515 250.996 109.262C250.44 109.342 249.725 109.04 248.85 108.358C247.971 107.638 246.694 106.35 245.019 104.492C245.007 104.343 244.917 104.144 244.749 103.895C244.614 103.605 244.463 103.336 244.294 103.087C244.123 102.8 243.913 102.498 243.664 102.18C243.413 101.825 243.287 101.647 243.287 101.647C243.275 101.498 243.207 101.335 243.081 101.157C242.955 100.979 242.79 100.767 242.584 100.521C241.974 100.38 241.554 100.524 241.325 100.953C241.095 101.382 240.848 101.832 240.584 102.301C240.435 102.799 240.245 103.506 240.015 104.422C239.819 105.298 239.659 106.152 239.535 106.985C239.448 107.816 239.453 108.377 239.55 108.669C239.596 109.265 239.534 109.681 239.364 109.919C239.192 110.119 238.808 110.242 238.213 110.287ZM264.41 97.8566C263.809 97.8272 263.362 97.6177 263.071 97.2279C262.776 96.8009 262.612 96.3641 262.578 95.9174C262.573 95.8429 262.561 95.694 262.544 95.4707C262.565 95.2445 262.601 94.9797 262.653 94.6762C262.636 94.4528 262.721 94.0907 262.907 93.5899C263.094 93.089 263.292 92.4937 263.502 91.8038C263.855 91.0283 264.425 90.1428 265.21 89.1472C265.996 88.1517 266.67 87.408 267.232 86.9162C267.547 86.6302 267.776 86.4444 267.919 86.3586C268.06 86.2357 268.13 86.1742 268.13 86.1742C268.119 86.0253 268.358 85.7264 268.848 85.2774C269.336 84.7912 269.76 84.4595 270.121 84.2824C270.121 84.2824 270.35 84.0966 270.809 83.7249C271.267 83.3532 271.617 83.0272 271.858 82.7468C272.649 81.8258 273.223 80.9961 273.579 80.2578C273.932 79.4822 274.185 78.6206 274.338 77.673C274.491 76.7255 274.645 75.5531 274.801 74.156C274.74 72.8502 274.674 71.9754 274.603 71.5315C274.566 71.0475 274.312 70.655 273.84 70.3538C273.027 70.0035 272.056 70.0396 270.927 70.462C269.833 70.8444 268.78 71.5233 267.768 72.4985C266.791 73.4336 266.071 74.5552 265.608 75.8632C265.433 76.513 265.335 76.951 265.315 77.1772C265.331 77.4005 265.41 77.6941 265.55 78.0579C265.572 78.3557 265.631 78.6321 265.725 78.8871C265.856 79.1392 265.929 79.3583 265.943 79.5444C265.797 79.593 265.519 79.6327 265.11 79.6637C264.738 79.6919 264.345 79.7029 263.933 79.6967C263.521 79.6905 263.18 79.6414 262.911 79.5495C262.911 79.5495 262.828 79.4435 262.662 79.2314C262.496 79.0193 262.371 78.8416 262.285 78.6984C262.039 78.4175 261.906 78.1467 261.886 77.8861C261.901 77.5855 261.887 77.156 261.845 76.5976C262.049 75.8333 262.342 75.0061 262.724 74.1161C263.103 73.1888 263.617 72.3075 264.265 71.4722C264.913 70.6368 265.684 69.9419 266.578 69.3875C267.334 68.9932 267.963 68.6461 268.465 68.346C269 68.0059 269.268 67.8358 269.268 67.8358C269.268 67.8358 269.399 67.826 269.659 67.8062C269.954 67.7465 270.434 67.654 271.098 67.5287C271.324 67.5491 271.566 67.5307 271.824 67.4738C272.119 67.414 272.274 67.4771 272.288 67.6633C272.4 67.6548 272.623 67.6379 272.958 67.6125C273.293 67.5871 273.609 67.5632 273.907 67.5406C274.362 67.6185 274.842 67.7693 275.346 67.9933C275.846 68.18 276.313 68.4067 276.745 68.6735C277.211 68.9003 277.586 69.1527 277.869 69.4308C278.192 70.23 278.381 71.2453 278.437 72.4766C278.49 73.6707 278.4 74.9505 278.166 76.316C277.933 77.6815 277.583 78.9997 277.118 80.2705C276.687 81.5012 276.13 82.5543 275.448 83.4297C275.241 83.6699 274.86 84.0732 274.304 84.6395C273.748 85.2058 273.159 85.8307 272.536 86.5144C271.949 87.1579 271.467 87.7186 271.091 88.1963C269.879 88.9995 268.843 90.1451 267.982 91.633C267.121 93.1209 266.5 94.5533 266.117 95.9301C265.775 96.8546 265.536 97.3969 265.398 97.5571C265.26 97.7173 264.931 97.8171 264.41 97.8566ZM263.612 108.082C262.924 108.396 262.339 108.572 261.855 108.608C261.405 108.605 260.886 108.42 260.296 108.052C259.538 107.436 259.245 106.784 259.418 106.097C259.625 105.37 260.187 104.635 261.104 103.891C261.743 103.431 262.21 103.171 262.505 103.111C262.838 103.049 263.35 103.141 264.043 103.388C265.213 104.011 265.756 104.756 265.672 105.623C265.625 106.488 264.939 107.308 263.612 108.082Z" fill="#F7B202"/>
</svg>
