<svg xmlns="http://www.w3.org/2000/svg" width="16" height="16" viewBox="0 0 16 16" fill="none">
  <mask id="path-1-inside-1_693_12610" fill="white">
    <path d="M8.54477 2.02975C8.54477 1.88585 8.60193 1.74785 8.70368 1.6461C8.80542 1.54436 8.94342 1.48719 9.08732 1.48719C10.5258 1.48877 11.9048 2.0609 12.922 3.07803C13.9391 4.09517 14.5112 5.47425 14.5128 6.9127C14.5128 7.0566 14.4557 7.1946 14.3539 7.29634C14.2522 7.39809 14.1142 7.45525 13.9703 7.45525C13.8264 7.45525 13.6884 7.39809 13.5866 7.29634C13.4849 7.1946 13.4277 7.0566 13.4277 6.9127C13.4264 5.76195 12.9687 4.6587 12.155 3.845C11.3413 3.03129 10.2381 2.57359 9.08732 2.5723C8.94342 2.5723 8.80542 2.51513 8.70368 2.41339C8.60193 2.31164 8.54477 2.17364 8.54477 2.02975ZM9.08732 4.7425C9.66289 4.7425 10.2149 4.97114 10.6219 5.37814C11.0289 5.78513 11.2575 6.33713 11.2575 6.9127C11.2575 7.0566 11.3147 7.1946 11.4164 7.29634C11.5182 7.39809 11.6562 7.45525 11.8001 7.45525C11.944 7.45525 12.082 7.39809 12.1837 7.29634C12.2855 7.1946 12.3426 7.0566 12.3426 6.9127C12.3418 6.04961 11.9985 5.22211 11.3882 4.61181C10.7779 4.0015 9.95041 3.65826 9.08732 3.6574C8.94342 3.6574 8.80542 3.71456 8.70368 3.81631C8.60193 3.91806 8.54477 4.05605 8.54477 4.19995C8.54477 4.34384 8.60193 4.48184 8.70368 4.58359C8.80542 4.68534 8.94342 4.7425 9.08732 4.7425ZM14.0207 10.569C14.3351 10.8842 14.5117 11.3113 14.5117 11.7566C14.5117 12.2019 14.3351 12.629 14.0207 12.9442L13.527 13.5134C9.08352 17.7675 -1.7295 6.95719 2.45898 2.49959L3.08292 1.95704C3.39855 1.65141 3.82183 1.48234 4.26117 1.4864C4.70052 1.49046 5.1206 1.66733 5.43053 1.97875C5.44735 1.99556 6.45269 3.30148 6.45269 3.30148C6.751 3.61488 6.91707 4.03118 6.91636 4.46385C6.91565 4.89652 6.74823 5.31227 6.4489 5.62469L5.82062 6.41464C6.16832 7.25945 6.67951 8.02724 7.32485 8.67387C7.97018 9.32051 8.73693 9.83326 9.58104 10.1827L10.3759 9.55058C10.6883 9.25148 11.104 9.08426 11.5365 9.08365C11.9691 9.08305 12.3852 9.2491 12.6985 9.54733C12.6985 9.54733 14.0039 10.5521 14.0207 10.569ZM13.2742 11.3578C13.2742 11.3578 11.9759 10.359 11.959 10.3422C11.8473 10.2313 11.6962 10.1692 11.5388 10.1692C11.3814 10.1692 11.2304 10.2313 11.1186 10.3422C11.104 10.3574 10.0097 11.2292 10.0097 11.2292C9.93591 11.2879 9.84814 11.3264 9.755 11.3409C9.66187 11.3553 9.56657 11.3453 9.4785 11.3117C8.38496 10.9046 7.39171 10.2672 6.566 9.44266C5.74029 8.61817 5.10142 7.62585 4.69266 6.53292C4.65642 6.44364 4.6446 6.34633 4.65843 6.25097C4.67226 6.15562 4.71122 6.06567 4.77133 5.99037C4.77133 5.99037 5.64321 4.8955 5.65786 4.88139C5.76868 4.76962 5.83087 4.61859 5.83087 4.46119C5.83087 4.30378 5.76868 4.15275 5.65786 4.04098C5.64104 4.0247 4.6422 2.7253 4.6422 2.7253C4.52876 2.62357 4.3807 2.56909 4.22837 2.57303C4.07605 2.57696 3.931 2.63901 3.82295 2.74645L3.19902 3.28901C0.137954 6.96967 9.50834 15.8203 12.7338 12.7722L13.2281 12.2026C13.3439 12.0953 13.4135 11.9472 13.4221 11.7895C13.4307 11.6319 13.3776 11.4771 13.2742 11.3578Z"/>
  </mask>
  <path d="M9.08732 1.48719L9.0961 -6.51281H9.08732V1.48719ZM14.5128 6.9127H22.5128L22.5128 6.90392L14.5128 6.9127ZM13.4277 6.9127H21.4277L21.4277 6.90372L13.4277 6.9127ZM9.08732 2.5723L9.0963 -5.4277H9.08732V2.5723ZM12.3426 6.9127H20.3426L20.3426 6.90471L12.3426 6.9127ZM9.08732 3.6574L9.09531 -4.3426H9.08732V3.6574ZM14.0207 10.569L19.6854 4.91992L19.6776 4.9121L14.0207 10.569ZM14.5117 11.7566H6.5117H14.5117ZM14.0207 12.9442L8.35606 7.29521L8.1598 7.49201L7.97768 7.70195L14.0207 12.9442ZM13.527 13.5134L19.0594 19.292L19.3272 19.0357L19.57 18.7557L13.527 13.5134ZM2.45898 2.49959L-2.79045 -3.53725L-3.09487 -3.27253L-3.37112 -2.97854L2.45898 2.49959ZM3.08292 1.95704L8.33235 7.99389L8.49402 7.8533L8.64793 7.70427L3.08292 1.95704ZM5.43053 1.97875L-0.239779 7.62211L-0.233061 7.62886L-0.226328 7.6356L5.43053 1.97875ZM6.45269 3.30148L0.11356 8.18158L0.369194 8.51365L0.658123 8.81718L6.45269 3.30148ZM6.4489 5.62469L0.67239 0.0900707L0.417257 0.356354L0.187704 0.644981L6.4489 5.62469ZM5.82062 6.41464L-0.440569 1.43494L-3.36603 5.11323L-1.57733 9.45935L5.82062 6.41464ZM9.58104 10.1827L6.5214 17.5744L10.8736 19.3759L14.5603 16.4442L9.58104 10.1827ZM10.3759 9.55058L15.3552 15.8121L15.6426 15.5835L15.9079 15.3296L10.3759 9.55058ZM12.6985 9.54733L7.18277 15.3418L9.49971 17.5473H12.6985V9.54733ZM11.959 10.3422L17.6159 4.68531L17.6039 4.67328L17.5918 4.66129L11.959 10.3422ZM11.1186 10.3422L5.48589 4.66129L5.42216 4.72448L5.35987 4.78908L11.1186 10.3422ZM10.0097 11.2292L14.9919 17.4884L14.9947 17.4862L10.0097 11.2292ZM9.4785 11.3117L12.3283 3.8365L12.2991 3.82538L12.2699 3.81449L9.4785 11.3117ZM4.69266 6.53292L12.1858 3.73049L12.1469 3.6265L12.1051 3.52362L4.69266 6.53292ZM4.77133 5.99037L11.0238 10.9811L11.0295 10.9739L4.77133 5.99037ZM5.65786 4.88139L11.207 10.644L11.2736 10.5798L11.3387 10.5141L5.65786 4.88139ZM5.83087 4.46119H13.8309H5.83087ZM5.65786 4.04098L11.3387 -1.59174L11.2806 -1.65039L11.2212 -1.70783L5.65786 4.04098ZM4.6422 2.7253L10.9849 -2.15021L10.5339 -2.7369L9.98294 -3.23092L4.6422 2.7253ZM3.82295 2.74645L9.07239 8.7833L9.27431 8.60771L9.46404 8.41903L3.82295 2.74645ZM3.19902 3.28901L-2.05041 -2.74784L-2.53835 -2.32354L-2.9518 -1.8264L3.19902 3.28901ZM12.7338 12.7722L18.2285 18.5868L18.5166 18.3144L18.7765 18.015L12.7338 12.7722ZM13.2281 12.2026L7.79172 6.33348L7.47147 6.63012L7.18539 6.95985L13.2281 12.2026ZM8.54477 2.02975H16.5448C16.5448 4.00759 15.7591 5.90441 14.3605 7.30295L8.70368 1.6461L3.04682 -4.01075C1.44478 -2.40871 0.544767 -0.235881 0.544767 2.02975H8.54477ZM8.70368 1.6461L14.3605 7.30295C12.962 8.7015 11.0652 9.4872 9.08732 9.4872V1.48719V-6.51281C6.82169 -6.51281 4.64886 -5.61279 3.04682 -4.01075L8.70368 1.6461ZM9.08732 1.48719L9.07853 9.48719C8.39829 9.48644 7.74612 9.21589 7.26512 8.73488L12.922 3.07803L18.5788 -2.57882C16.0636 -5.09409 12.6532 -6.50889 9.0961 -6.5128L9.08732 1.48719ZM12.922 3.07803L7.26512 8.73488C6.78412 8.25388 6.51357 7.60172 6.51282 6.92149L14.5128 6.9127L22.5128 6.90392C22.5089 3.34678 21.0941 -0.06354 18.5788 -2.57882L12.922 3.07803ZM14.5128 6.9127H6.51282C6.51282 4.93488 7.2985 3.03805 8.69705 1.63949L14.3539 7.29634L20.0108 12.9532C21.6128 11.3511 22.5128 9.17831 22.5128 6.9127H14.5128ZM14.3539 7.29634L8.69705 1.63949C10.0956 0.240947 11.9924 -0.544747 13.9703 -0.544747V7.45525V15.4553C16.2359 15.4553 18.4087 14.5552 20.0108 12.9532L14.3539 7.29634ZM13.9703 7.45525V-0.544747C15.9481 -0.544747 17.8449 0.240947 19.2435 1.63949L13.5866 7.29634L7.92977 12.9532C9.53181 14.5552 11.7046 15.4553 13.9703 15.4553V7.45525ZM13.5866 7.29634L19.2435 1.63949C20.642 3.03805 21.4277 4.93488 21.4277 6.9127H13.4277H5.42772C5.42772 9.17831 6.32772 11.3511 7.92977 12.9532L13.5866 7.29634ZM13.4277 6.9127L21.4277 6.90372C21.424 3.63435 20.1237 0.499941 17.8119 -1.81185L12.155 3.845L6.49816 9.50185C5.81377 8.81746 5.42881 7.88955 5.42772 6.92169L13.4277 6.9127ZM12.155 3.845L17.8119 -1.81185C15.5001 -4.12365 12.3657 -5.42403 9.0963 -5.4277L9.08732 2.5723L9.07833 10.5723C8.11046 10.5712 7.18254 10.1862 6.49816 9.50185L12.155 3.845ZM9.08732 2.5723V-5.4277C11.0652 -5.4277 12.962 -4.64201 14.3605 -3.24346L8.70368 2.41339L3.04682 8.07024C4.64886 9.67228 6.82169 10.5723 9.08732 10.5723V2.5723ZM8.70368 2.41339L14.3605 -3.24346C15.7591 -1.84492 16.5448 0.0519063 16.5448 2.02975H8.54477H0.544767C0.544767 4.29537 1.44478 6.4682 3.04682 8.07024L8.70368 2.41339ZM9.08732 4.7425V12.7425C7.54115 12.7425 6.05832 12.1283 4.96502 11.035L10.6219 5.37814L16.2787 -0.278714C14.3715 -2.186 11.7846 -3.2575 9.08732 -3.2575V4.7425ZM10.6219 5.37814L4.96502 11.035C3.87173 9.94169 3.25752 8.45886 3.25752 6.9127H11.2575H19.2575C19.2575 4.2154 18.186 1.62857 16.2787 -0.278714L10.6219 5.37814ZM11.2575 6.9127H3.25752C3.25752 9.17831 4.15752 11.3511 5.75957 12.9532L11.4164 7.29634L17.0733 1.63949C18.4718 3.03805 19.2575 4.93488 19.2575 6.9127H11.2575ZM11.4164 7.29634L5.75957 12.9532C7.36161 14.5552 9.53444 15.4553 11.8001 15.4553V7.45525V-0.544747C13.7779 -0.544747 15.6747 0.240947 17.0733 1.63949L11.4164 7.29634ZM11.8001 7.45525V15.4553C14.0657 15.4553 16.2385 14.5552 17.8406 12.9532L12.1837 7.29634L6.52685 1.63949C7.9254 0.240947 9.82223 -0.544747 11.8001 -0.544747V7.45525ZM12.1837 7.29634L17.8406 12.9532C19.4426 11.3511 20.3426 9.17831 20.3426 6.9127H12.3426H4.34262C4.34262 4.93488 5.1283 3.03805 6.52685 1.63949L12.1837 7.29634ZM12.3426 6.9127L20.3426 6.90471C20.3396 3.92266 19.1537 1.06359 17.0451 -1.04504L11.3882 4.61181L5.73135 10.2687C4.84332 9.38062 4.34388 8.17655 4.34262 6.92069L12.3426 6.9127ZM11.3882 4.61181L17.0451 -1.04504C14.9364 -3.15368 12.0774 -4.33962 9.09531 -4.3426L9.08732 3.6574L9.07933 11.6574C7.82346 11.6561 6.61938 11.1567 5.73135 10.2687L11.3882 4.61181ZM9.08732 3.6574V-4.3426C6.82168 -4.3426 4.64885 -3.44258 3.04682 -1.84054L8.70368 3.81631L14.3605 9.47316C12.962 10.8717 11.0652 11.6574 9.08732 11.6574V3.6574ZM8.70368 3.81631L3.04682 -1.84054C1.44479 -0.238508 0.544767 1.93432 0.544767 4.19995H8.54477H16.5448C16.5448 6.17779 15.7591 8.07462 14.3605 9.47316L8.70368 3.81631ZM8.54477 4.19995H0.544767C0.544767 6.46558 1.44479 8.6384 3.04682 10.2404L8.70368 4.58359L14.3605 -1.07326C15.7591 0.325278 16.5448 2.22211 16.5448 4.19995H8.54477ZM8.70368 4.58359L3.04682 10.2404C4.64885 11.8425 6.82168 12.7425 9.08732 12.7425V4.7425V-3.2575C11.0652 -3.2575 12.962 -2.4718 14.3605 -1.07326L8.70368 4.58359ZM14.0207 10.569L8.35606 16.218C7.17496 15.0336 6.5117 13.4292 6.5117 11.7566H14.5117H22.5117C22.5117 9.19343 21.4953 6.73486 19.6854 4.91992L14.0207 10.569ZM14.5117 11.7566H6.5117C6.5117 10.084 7.17495 8.47958 8.35606 7.29521L14.0207 12.9442L19.6854 18.5933C21.4953 16.7783 22.5117 14.3198 22.5117 11.7566H14.5117ZM14.0207 12.9442L7.97768 7.70195L7.48396 8.27108L13.527 13.5134L19.57 18.7557L20.0638 18.1865L14.0207 12.9442ZM13.527 13.5134L7.99461 7.73474C8.32526 7.41818 8.72753 7.1346 9.18563 6.91651C9.63979 6.7003 10.0788 6.58156 10.4615 6.52635C10.8373 6.47213 11.1373 6.48185 11.3367 6.50291C11.5345 6.52379 11.6545 6.55788 11.6904 6.56895C11.7274 6.58034 11.708 6.57743 11.6347 6.54193C11.5626 6.50702 11.4566 6.44935 11.3221 6.36211C11.0458 6.18287 10.7245 5.92739 10.4055 5.60917C10.0865 5.29103 9.82854 4.96878 9.64608 4.6895C9.55723 4.5535 9.4977 4.44515 9.46098 4.3701C9.42368 4.29386 9.41898 4.27058 9.42911 4.30285C9.4389 4.33403 9.47239 4.44849 9.49399 4.64021C9.51575 4.83337 9.52782 5.12767 9.47765 5.49884C9.42656 5.87674 9.31321 6.3144 9.10172 6.77043C8.88823 7.23076 8.6073 7.63906 8.28908 7.97773L2.45898 2.49959L-3.37112 -2.97854C-7.10426 0.994456 -6.83502 5.91436 -5.83615 9.09572C-4.85275 12.2279 -2.90048 14.9358 -0.893475 16.9376C1.11206 18.9379 3.82989 20.8889 6.97763 21.8591C10.1933 22.8503 15.1178 23.0657 19.0594 19.292L13.527 13.5134ZM2.45898 2.49959L7.70842 8.53644L8.33235 7.99389L3.08292 1.95704L-2.16652 -4.0798L-2.79045 -3.53725L2.45898 2.49959ZM3.08292 1.95704L8.64793 7.70427C7.45297 8.86134 5.85051 9.50143 4.18722 9.48606L4.26117 1.4864L4.33512 -6.51326C1.79316 -6.53676 -0.655861 -5.55852 -2.4821 -3.79019L3.08292 1.95704ZM4.26117 1.4864L4.18722 9.48606C2.52394 9.47068 0.933584 8.80108 -0.239779 7.62211L5.43053 1.97875L11.1008 -3.66462C9.30761 -5.46641 6.87709 -6.48976 4.33512 -6.51326L4.26117 1.4864ZM5.43053 1.97875L-0.226328 7.6356C-0.42678 7.43514 -0.573208 7.26608 -0.59433 7.2419C-0.645604 7.18319 -0.685223 7.13606 -0.704884 7.11255C-0.745616 7.06384 -0.776456 7.02573 -0.787233 7.01239C-0.812391 6.98126 -0.830315 6.95855 -0.832336 6.95599C-0.84017 6.94607 -0.841015 6.94492 -0.829459 6.95974C-0.809117 6.98583 -0.775297 7.0294 -0.728434 7.08993C-0.636387 7.20882 -0.512718 7.369 -0.386703 7.53238C-0.261341 7.69491 -0.136226 7.85727 -0.0422776 7.97923C0.00464976 8.04015 0.0436959 8.09085 0.0709769 8.12628C0.0846152 8.14399 0.0953076 8.15788 0.102568 8.16731C0.106198 8.17202 0.10897 8.17562 0.110822 8.17803C0.111748 8.17923 0.112444 8.18014 0.112903 8.18073C0.113133 8.18103 0.113303 8.18125 0.113412 8.18139C0.113467 8.18146 0.113507 8.18152 0.113532 8.18155C0.113544 8.18156 0.113551 8.18157 0.113557 8.18158C0.113561 8.18158 0.11356 8.18158 6.45269 3.30148C12.7918 -1.57862 12.7918 -1.57863 12.7918 -1.57864C12.7918 -1.57865 12.7918 -1.57867 12.7918 -1.5787C12.7917 -1.57875 12.7917 -1.57881 12.7916 -1.5789C12.7915 -1.57907 12.7913 -1.57933 12.791 -1.57966C12.7905 -1.58032 12.7898 -1.58128 12.7888 -1.58255C12.7868 -1.58509 12.784 -1.58882 12.7802 -1.59368C12.7728 -1.60339 12.7618 -1.61757 12.7479 -1.6356C12.7202 -1.67166 12.6806 -1.72312 12.633 -1.78489C12.5379 -1.90832 12.4106 -2.07348 12.2825 -2.23953C12.1551 -2.40474 12.0243 -2.57419 11.9231 -2.70489C11.8734 -2.76915 11.8259 -2.83037 11.788 -2.87892C11.7705 -2.90142 11.7463 -2.93235 11.7219 -2.96324C11.7116 -2.97629 11.6871 -3.00729 11.6571 -3.04435C11.6439 -3.06065 11.6112 -3.10114 11.569 -3.15161C11.5486 -3.176 11.5083 -3.22387 11.4565 -3.28315C11.4349 -3.30791 11.2881 -3.47739 11.0874 -3.67811L5.43053 1.97875ZM6.45269 3.30148L0.658123 8.81718C-0.46248 7.63992 -1.08629 6.07609 -1.08363 4.45077L6.91636 4.46385L14.9163 4.47692C14.9204 1.98626 13.9645 -0.410171 12.2473 -2.21422L6.45269 3.30148ZM6.91636 4.46385L-1.08363 4.45077C-1.08097 2.82544 -0.452056 1.26366 0.67239 0.0900707L6.4489 5.62469L12.2254 11.1593C13.9485 9.36088 14.9123 6.96759 14.9163 4.47692L6.91636 4.46385ZM6.4489 5.62469L0.187704 0.644981L-0.440569 1.43494L5.82062 6.41464L12.0818 11.3943L12.7101 10.6044L6.4489 5.62469ZM5.82062 6.41464L-1.57733 9.45935C-0.828514 11.2788 0.272443 12.9324 1.66229 14.325L7.32485 8.67387L12.9874 3.02273C13.0866 3.12211 13.1651 3.2401 13.2186 3.36993L5.82062 6.41464ZM7.32485 8.67387L1.66229 14.325C3.05213 15.7177 4.70346 16.822 6.5214 17.5744L9.58104 10.1827L12.6407 2.79086C12.7704 2.84456 12.8882 2.92336 12.9874 3.02273L7.32485 8.67387ZM9.58104 10.1827L14.5603 16.4442L15.3552 15.8121L10.3759 9.55058L5.39657 3.28907L4.60174 3.92114L9.58104 10.1827ZM10.3759 9.55058L15.9079 15.3296C14.7341 16.4532 13.1726 17.0814 11.5478 17.0836L11.5365 9.08365L11.5253 1.08366C9.03541 1.08715 6.64255 2.04978 4.84389 3.77156L10.3759 9.55058ZM11.5365 9.08365L11.5478 17.0836C9.92292 17.0859 8.35966 16.4621 7.18277 15.3418L12.6985 9.54733L18.2143 3.75282C16.4108 2.03609 14.0153 1.08017 11.5253 1.08366L11.5365 9.08365ZM12.6985 9.54733C7.8188 15.8868 7.8188 15.8868 7.81881 15.8868C7.81882 15.8868 7.81883 15.8868 7.81884 15.8868C7.81887 15.8868 7.81892 15.8868 7.819 15.8869C7.81914 15.887 7.81936 15.8872 7.81966 15.8874C7.82025 15.8879 7.82116 15.8886 7.82236 15.8895C7.82476 15.8913 7.82836 15.8941 7.83308 15.8977C7.8425 15.905 7.85638 15.9157 7.87409 15.9293C7.9095 15.9566 7.96018 15.9956 8.02107 16.0425C8.14298 16.1364 8.30527 16.2614 8.46773 16.3867C8.63104 16.5127 8.79115 16.6363 8.90999 16.7283C8.97049 16.7751 9.01403 16.8089 9.04009 16.8292C9.0549 16.8408 9.05373 16.8399 9.04379 16.8321C9.04122 16.83 9.01848 16.8121 8.98732 16.7869C8.97397 16.7761 8.93583 16.7453 8.88709 16.7045C8.86356 16.6848 8.81641 16.6452 8.75767 16.5939C8.73344 16.5727 8.56435 16.4263 8.36387 16.2258L14.0207 10.569L19.6776 4.9121C19.4768 4.71135 19.3073 4.56453 19.2825 4.54286C19.2232 4.49106 19.1753 4.4508 19.1509 4.43039C19.1004 4.38815 19.0599 4.35535 19.0436 4.34217C19.0065 4.3122 18.9755 4.28766 18.9624 4.27735C18.9315 4.25293 18.9006 4.22876 18.8781 4.21122C18.8295 4.17337 18.7683 4.12591 18.7041 4.07618C18.5734 3.97504 18.404 3.84428 18.2389 3.71693C18.0729 3.58892 17.9078 3.46171 17.7844 3.36668C17.7227 3.31912 17.6713 3.27951 17.6352 3.25176C17.6172 3.23789 17.603 3.22697 17.5933 3.2195C17.5885 3.21576 17.5847 3.21289 17.5822 3.21094C17.5809 3.20996 17.58 3.20921 17.5793 3.20871C17.579 3.20845 17.5787 3.20826 17.5785 3.20812C17.5785 3.20806 17.5784 3.20801 17.5783 3.20797C17.5783 3.20795 17.5783 3.20794 17.5783 3.20793C17.5783 3.20791 17.5783 3.20791 12.6985 9.54733ZM13.2742 11.3578C18.1523 5.01713 18.1523 5.01713 18.1522 5.01713C18.1522 5.01712 18.1522 5.01711 18.1522 5.0171C18.1522 5.01708 18.1521 5.01704 18.1521 5.01698C18.1519 5.01687 18.1517 5.01671 18.1514 5.01648C18.1508 5.01602 18.1499 5.01533 18.1487 5.01441C18.1463 5.01257 18.1427 5.00982 18.1381 5.00621C18.1287 4.999 18.1149 4.98838 18.0973 4.97483C18.0621 4.94773 18.0117 4.90894 17.9511 4.86232C17.8299 4.76899 17.6685 4.64469 17.5069 4.52016C17.3445 4.39496 17.1853 4.27213 17.0672 4.18073C17.007 4.13419 16.9638 4.10068 16.938 4.08058C16.9233 4.06914 16.9247 4.07014 16.9348 4.07814C16.9375 4.08024 16.9604 4.09832 16.9918 4.12366C17.0052 4.13454 17.0436 4.16554 17.0925 4.20649C17.1162 4.22627 17.1635 4.26603 17.2224 4.31747C17.2471 4.33903 17.4158 4.48518 17.6159 4.68531L11.959 10.3422L6.30218 15.999C6.50257 16.1994 6.67169 16.3459 6.69695 16.368C6.75642 16.42 6.80444 16.4603 6.82898 16.4808C6.8797 16.5233 6.92039 16.5562 6.9368 16.5695C6.97408 16.5996 7.00524 16.6242 7.01833 16.6345C7.04932 16.659 7.0803 16.6832 7.10273 16.7007C7.15117 16.7384 7.21216 16.7857 7.27609 16.8352C7.40612 16.9358 7.57467 17.0658 7.73893 17.1924C7.90405 17.3197 8.06827 17.4462 8.19099 17.5407C8.25242 17.5879 8.30358 17.6273 8.33943 17.6549C8.35736 17.6687 8.37146 17.6796 8.38112 17.687C8.38594 17.6907 8.38966 17.6936 8.39218 17.6955C8.39344 17.6965 8.39441 17.6972 8.39506 17.6977C8.39539 17.698 8.39564 17.6982 8.39582 17.6983C8.3959 17.6984 8.39597 17.6984 8.39602 17.6984C8.39604 17.6985 8.39606 17.6985 8.39607 17.6985C8.39609 17.6985 8.3961 17.6985 13.2742 11.3578ZM11.959 10.3422L17.5918 4.66129C15.9817 3.06486 13.8062 2.16916 11.5388 2.16916V10.1692V18.1692C9.58631 18.1692 7.71283 17.3978 6.3263 16.023L11.959 10.3422ZM11.5388 10.1692V2.16916C9.27151 2.16916 7.09596 3.06486 5.48589 4.66129L11.1186 10.3422L16.7514 16.023C15.3648 17.3978 13.4913 18.1692 11.5388 18.1692V10.1692ZM11.1186 10.3422L5.35987 4.78908C5.55312 4.58868 5.71586 4.44205 5.74302 4.41742C5.80175 4.36414 5.84903 4.32288 5.8731 4.30199C5.92269 4.25894 5.96164 4.22625 5.97573 4.21444C6.00825 4.18718 6.03237 4.16746 6.0361 4.16441C6.0484 4.15434 6.0525 4.15108 6.04085 4.16048C6.0212 4.17635 5.98643 4.2043 5.93605 4.24467C5.83755 4.32362 5.70422 4.43017 5.56746 4.53935C5.43159 4.64782 5.29581 4.75611 5.19375 4.83748C5.14279 4.87811 5.10038 4.91191 5.07075 4.93552C5.05594 4.94732 5.04434 4.95657 5.03646 4.96285C5.03253 4.96598 5.02952 4.96838 5.02752 4.96997C5.02652 4.97077 5.02577 4.97137 5.02528 4.97176C5.02503 4.97196 5.02485 4.9721 5.02473 4.97219C5.02467 4.97224 5.02463 4.97227 5.02461 4.97229C5.02459 4.9723 5.02459 4.97231 5.02458 4.97231C5.02458 4.97232 5.02458 4.97231 10.0097 11.2292C14.9947 17.4862 14.9947 17.4861 14.9947 17.4861C14.9948 17.4861 14.9948 17.4861 14.9948 17.4861C14.9948 17.4861 14.9949 17.486 14.995 17.486C14.9951 17.4858 14.9953 17.4857 14.9956 17.4854C14.9962 17.485 14.997 17.4843 14.9981 17.4835C15.0002 17.4818 15.0033 17.4793 15.0074 17.476C15.0156 17.4695 15.0275 17.46 15.0427 17.448C15.0729 17.4238 15.1161 17.3894 15.168 17.3481C15.2716 17.2655 15.4103 17.1548 15.5498 17.0434C15.6885 16.9327 15.8315 16.8185 15.9423 16.7297C15.9966 16.6862 16.0497 16.6435 16.0927 16.6088C16.1124 16.5929 16.1415 16.5694 16.1714 16.5449C16.184 16.5346 16.2151 16.5091 16.2526 16.4777C16.2692 16.4637 16.3101 16.4294 16.3612 16.385C16.386 16.3635 16.4339 16.3217 16.4931 16.2679C16.5208 16.2429 16.6839 16.0959 16.8774 15.8952L11.1186 10.3422ZM10.0097 11.2292L5.02744 4.97003C6.04105 4.16322 7.24739 3.63436 8.52763 3.43559L9.755 11.3409L10.9824 19.2462C12.4489 19.0185 13.8308 18.4127 14.9919 17.4884L10.0097 11.2292ZM9.755 11.3409L8.52763 3.43559C9.80784 3.23682 11.1177 3.375 12.3283 3.8365L9.4785 11.3117L6.6287 18.7869C8.01539 19.3156 9.51589 19.4738 10.9824 19.2462L9.755 11.3409ZM9.4785 11.3117L12.2699 3.81449C12.2507 3.80733 12.2332 3.79613 12.2187 3.78164L6.566 9.44266L0.913313 15.1037C2.55022 16.7382 4.51928 18.0018 6.68712 18.8089L9.4785 11.3117ZM6.566 9.44266L12.2187 3.78164C12.2042 3.76715 12.1929 3.7497 12.1858 3.73049L4.69266 6.53292L-2.80043 9.33534C-1.9901 11.502 -0.723589 13.4692 0.913313 15.1037L6.566 9.44266ZM4.69266 6.53292L12.1051 3.52362C12.6033 4.75071 12.7657 6.08832 12.5756 7.39897L4.65843 6.25097L-3.25877 5.10298C-3.47647 6.60433 -3.29043 8.13658 -2.71977 9.54221L4.69266 6.53292ZM4.65843 6.25097L12.5756 7.39897C12.3856 8.70962 11.8499 9.94601 11.0238 10.9811L4.77133 5.99037L-1.4811 0.999667C-2.4275 2.18533 -3.04108 3.60162 -3.25877 5.10298L4.65843 6.25097ZM4.77133 5.99037C11.0295 10.9739 11.0295 10.9739 11.0295 10.9739C11.0295 10.9739 11.0295 10.9739 11.0295 10.9739C11.0295 10.9739 11.0295 10.9738 11.0296 10.9738C11.0297 10.9736 11.0298 10.9735 11.03 10.9732C11.0304 10.9727 11.031 10.972 11.0318 10.971C11.0334 10.969 11.0358 10.966 11.0389 10.962C11.0452 10.9541 11.0545 10.9425 11.0663 10.9277C11.0899 10.898 11.1237 10.8556 11.1643 10.8046C11.2457 10.7025 11.354 10.5666 11.4625 10.4306C11.5717 10.2938 11.6783 10.1603 11.7573 10.0617C11.7977 10.0113 11.8258 9.97627 11.8419 9.95635C11.8514 9.94459 11.8484 9.94833 11.8387 9.96016C11.8358 9.96366 11.8165 9.98731 11.7898 10.0192C11.7783 10.033 11.746 10.0716 11.7034 10.1208C11.6828 10.1445 11.6415 10.192 11.5881 10.2509C11.5656 10.2757 11.4141 10.4445 11.207 10.644L5.65786 4.88139L0.108721 -0.881166C-0.0986421 -0.681483 -0.250495 -0.512376 -0.27338 -0.487097C-0.327204 -0.427642 -0.369039 -0.379608 -0.390267 -0.355102C-0.434162 -0.304428 -0.468197 -0.26383 -0.481765 -0.247612C-0.512636 -0.210713 -0.537681 -0.180115 -0.547733 -0.167821C-0.571788 -0.138401 -0.59499 -0.109694 -0.610748 -0.0901619C-0.645158 -0.0475113 -0.687569 0.00534534 -0.730981 0.0595489C-0.819565 0.170151 -0.933668 0.313026 -1.04431 0.451691C-1.15563 0.591213 -1.2662 0.729929 -1.34876 0.833537C-1.39009 0.885402 -1.42451 0.928608 -1.44863 0.958891C-1.46069 0.974035 -1.47019 0.985955 -1.47669 0.994119C-1.47994 0.998201 -1.48244 1.00134 -1.48415 1.00348C-1.485 1.00455 -1.48565 1.00537 -1.48609 1.00593C-1.48632 1.00621 -1.48649 1.00642 -1.48661 1.00657C-1.48666 1.00664 -1.48671 1.0067 -1.48674 1.00674C-1.48676 1.00676 -1.48677 1.00678 -1.48678 1.00679C-1.48679 1.00681 -1.4868 1.00682 4.77133 5.99037ZM5.65786 4.88139L11.3387 10.5141C12.9352 8.90406 13.8309 6.72852 13.8309 4.46119H5.83087H-2.16913C-2.16913 2.50866 -1.39778 0.635182 -0.0230238 -0.751332L5.65786 4.88139ZM5.83087 4.46119H13.8309C13.8309 2.19385 12.9352 0.0183197 11.3387 -1.59174L5.65786 4.04098L-0.0230238 9.6737C-1.39779 8.28719 -2.16913 6.41371 -2.16913 4.46119H5.83087ZM5.65786 4.04098L11.2212 -1.70783C11.4535 -1.48302 11.6219 -1.29111 11.6454 -1.26464C11.7039 -1.19859 11.749 -1.14544 11.7713 -1.11901C11.8175 -1.06418 11.8525 -1.02114 11.8648 -1.00602C11.8934 -0.970699 11.914 -0.944638 11.9168 -0.941116C11.9267 -0.92865 11.9291 -0.925443 11.918 -0.939692C11.8989 -0.964194 11.8662 -1.00639 11.8198 -1.06636C11.7289 -1.18385 11.6065 -1.34261 11.4813 -1.50503C11.357 -1.6665 11.2328 -1.82787 11.1395 -1.94912C11.0929 -2.00968 11.0542 -2.06008 11.0271 -2.09529C11.0136 -2.11289 11.003 -2.12669 10.9958 -2.13605C10.9922 -2.14074 10.9894 -2.14431 10.9876 -2.1467C10.9867 -2.14789 10.986 -2.14878 10.9855 -2.14937C10.9853 -2.14967 10.9851 -2.14989 10.985 -2.15003C10.985 -2.1501 10.9849 -2.15015 10.9849 -2.15018C10.9849 -2.15019 10.9849 -2.1502 10.9849 -2.15021C10.9849 -2.15021 10.9849 -2.15021 4.6422 2.7253C-1.70046 7.6008 -1.70045 7.60081 -1.70044 7.60083C-1.70043 7.60084 -1.70042 7.60086 -1.7004 7.60089C-1.70036 7.60093 -1.70031 7.601 -1.70024 7.60109C-1.70011 7.60127 -1.69991 7.60152 -1.69966 7.60185C-1.69915 7.60251 -1.69841 7.60348 -1.69743 7.60474C-1.69549 7.60728 -1.69262 7.611 -1.6889 7.61584C-1.68146 7.62552 -1.6706 7.63965 -1.65679 7.65761C-1.62917 7.69352 -1.58976 7.74477 -1.54244 7.80629C-1.44791 7.92918 -1.32132 8.09369 -1.1939 8.2591C-1.0672 8.42357 -0.93677 8.59271 -0.835649 8.72344C-0.78603 8.78758 -0.737981 8.84957 -0.699245 8.89924C-0.681435 8.92208 -0.655811 8.95487 -0.629466 8.98816C-0.618439 9.00209 -0.591277 9.03638 -0.557841 9.07757C-0.543181 9.09563 -0.50626 9.14101 -0.458541 9.19758C-0.43551 9.22489 -0.389796 9.27876 -0.330781 9.34537C-0.30683 9.3724 -0.138087 9.56473 0.0944835 9.78979L5.65786 4.04098ZM4.6422 2.7253L9.98294 -3.23092C8.34877 -4.69623 6.21601 -5.48098 4.02182 -5.42431L4.22837 2.57303L4.43493 10.5704C2.54539 10.6192 0.708747 9.94337 -0.698535 8.68151L4.6422 2.7253ZM4.22837 2.57303L4.02182 -5.42431C1.82763 -5.36764 -0.261778 -4.47384 -1.81813 -2.92612L3.82295 2.74645L9.46404 8.41903C8.12378 9.75186 6.32447 10.5216 4.43493 10.5704L4.22837 2.57303ZM3.82295 2.74645L-1.42648 -3.29039L-2.05041 -2.74784L3.19902 3.28901L8.44846 9.32585L9.07239 8.7833L3.82295 2.74645ZM3.19902 3.28901L-2.9518 -1.8264C-6.36753 2.28071 -5.51796 7.02917 -4.52575 9.61659C-3.49333 12.3089 -1.70439 14.6056 0.0395439 16.2969C1.78392 17.9885 4.10797 19.6801 6.76223 20.628C9.17506 21.4896 14.1725 22.4196 18.2285 18.5868L12.7338 12.7722L7.23911 6.95775C7.75626 6.46905 8.35678 6.08445 8.99485 5.81962C9.62157 5.5595 10.2 5.44932 10.6658 5.41389C11.5449 5.34703 12.0807 5.53764 12.1433 5.56C12.24 5.59451 12.1573 5.57657 11.9251 5.42199C11.7061 5.27623 11.4437 5.06825 11.1784 4.81094C10.9129 4.55349 10.6994 4.2999 10.5504 4.08934C10.3927 3.86655 10.3757 3.78924 10.4135 3.88776C10.4422 3.96263 10.6296 4.46549 10.5869 5.29154C10.5644 5.72536 10.4773 6.25014 10.2672 6.81691C10.054 7.39165 9.74268 7.93207 9.34984 8.40441L3.19902 3.28901ZM12.7338 12.7722L18.7765 18.015L19.2707 17.4453L13.2281 12.2026L7.18539 6.95985L6.69113 7.52952L12.7338 12.7722ZM13.2281 12.2026L18.6644 18.0717C20.3037 16.5532 21.2884 14.4568 21.4102 12.2256L13.4221 11.7895L5.43395 11.3534C5.53855 9.43752 6.38405 7.63736 7.79172 6.33348L13.2281 12.2026ZM13.4221 11.7895L21.4102 12.2256C21.532 9.9944 20.7814 7.80328 19.3171 6.11541L13.2742 11.3578L7.23124 16.6002C5.97388 15.1509 5.32936 13.2694 5.43395 11.3534L13.4221 11.7895Z" fill="#707070" mask="url(#path-1-inside-1_693_12610)"/>
</svg>