<svg width="313" height="286" viewBox="0 0 313 286" fill="none" xmlns="http://www.w3.org/2000/svg">
<g opacity="0.05">
<path d="M0.0637828 148.214C0.30442 148.697 0.545057 148.938 2.22952 148.938C5.35779 149.42 12.0956 149.903 20.9992 151.35C42.6565 154.486 91.5058 166.547 99.2062 170.889C101.131 172.095 102.816 173.301 104.019 174.748C105.222 176.196 105.944 178.125 106.666 180.296C107.628 184.638 108.11 190.186 108.832 195.252C113.404 233.847 115.569 249.767 118.457 273.165C118.938 276.06 119.179 278.955 119.66 281.849L119.901 284.02L120.142 284.985V285.709C121.104 284.744 122.067 283.538 123.029 282.573C126.879 278.472 130.489 274.613 133.858 270.753C147.334 255.556 160.809 238.671 171.397 221.303C176.451 212.861 177.654 209.725 177.654 208.278C207.733 231.435 225.781 258.692 233.241 263.517C244.07 270.271 255.62 266.411 261.395 252.421C261.877 251.214 262.358 249.767 262.839 248.32C271.021 216.961 299.175 86.2213 311.929 10.9612C312.41 8.06658 311.448 4.93074 309.282 2.75978C307.116 0.830035 304.229 -0.376056 301.341 0.10638C300.619 0.10638 299.897 0.347598 299.175 0.588816C298.935 0.830034 298.454 0.830036 298.213 1.07125C297.972 1.31247 297.491 1.55369 297.491 1.55369L295.566 2.75978C294.363 3.48343 292.919 4.20709 291.716 4.93074C286.662 7.82536 281.609 10.4788 276.796 13.3734C266.93 18.6802 257.786 23.987 249.123 28.5701C164.659 74.6428 105.703 101.659 33.2717 132.053C16.9084 138.807 8.48607 142.425 4.39525 144.596C0.0637834 146.767 -0.176854 147.491 0.0637828 148.214ZM35.678 138.566C108.591 112.273 186.317 74.1603 253.695 37.4952C262.358 32.912 271.743 27.6052 281.368 22.2984C286.181 19.645 291.234 16.7504 296.528 13.8558C298.453 12.6497 300.619 11.6849 302.544 10.4788H302.785C302.063 15.3031 301.101 20.1275 300.379 25.1931C286.903 103.348 258.027 244.219 255.62 250.25C252.011 259.416 245.032 263.999 236.61 258.933C234.925 257.969 233.241 256.521 231.797 254.833C216.156 236.983 196.183 215.997 174.044 201.765C163.456 194.769 154.071 190.91 147.334 188.98C145.649 188.498 144.205 188.015 142.761 187.774C141.558 187.533 140.355 187.533 139.393 187.292C137.708 187.05 136.746 187.05 136.746 187.292C136.746 187.533 137.708 187.774 139.393 188.257C140.355 188.498 141.318 188.739 142.521 189.221C143.724 189.463 145.168 190.186 146.852 190.669C153.349 192.84 162.253 197.423 172.36 204.418C173.563 205.383 174.766 206.107 175.969 207.072C174.766 207.554 172.36 209.725 166.103 217.685C152.628 234.812 147.093 242.531 127.601 263.999L127.361 264.24C125.195 248.079 123.27 231.193 117.976 194.046C117.495 191.392 117.254 188.98 116.773 186.327C116.291 183.673 116.051 181.02 115.088 177.884C114.366 174.99 112.922 171.854 110.516 169.442C108.35 167.029 105.703 165.1 103.056 163.652C92.709 158.345 44.341 148.938 21.4805 147.491C16.9084 147.249 13.0582 147.249 9.68926 147.249C14.9833 145.561 23.1649 142.908 35.678 138.566Z" fill="#F7B202"/>
<path d="M135.061 185.844C136.024 185.844 136.505 185.603 136.505 185.362C136.505 185.121 136.024 185.121 135.542 184.879C134.82 184.638 134.099 183.915 133.617 182.708C133.136 181.502 133.136 180.296 134.099 178.608C135.061 177.16 136.746 175.713 138.671 173.783C151.424 162.205 169.953 144.355 237.091 80.432C269.096 49.7973 285.459 34.1181 293.159 25.6755C301.1 17.2329 300.619 16.0268 299.657 15.0619C298.694 14.097 297.491 13.3734 288.587 20.6099C279.443 27.8465 262.358 42.802 230.353 73.4367C203.161 99.247 160.328 143.149 135.783 171.371C134.099 173.301 132.173 175.231 131.452 177.643C130.97 178.849 130.73 180.055 130.97 181.02C130.97 182.226 131.452 183.191 131.933 183.915C132.655 185.362 134.099 185.844 135.061 185.844Z" fill="#F7B202"/>
</g>
</svg>
