<svg width="27" height="28" viewBox="0 0 27 28" fill="none" xmlns="http://www.w3.org/2000/svg">
<path fill-rule="evenodd" clip-rule="evenodd" d="M10.8826 1.92425C12.2022 1.8774 13.681 1.70299 15.0007 1.62138C14.5568 2.36248 14.1381 3.1296 13.8759 3.95165C13.8899 3.99078 13.8883 4.0478 13.8789 4.06753C13.8818 4.11055 13.889 4.14361 13.8658 4.19027C12.3262 4.3276 10.7605 4.44103 9.22398 4.58914C9.65843 3.86461 10.0627 3.11087 10.3209 2.30709C10.3064 2.26892 10.3084 2.21131 10.3174 2.1912C10.2969 2.11206 10.3587 2.03909 10.3421 1.95378C10.5199 1.94666 10.7061 1.91779 10.8826 1.92425ZM16.1389 1.53458C17.5841 1.4179 19.0291 1.30085 20.4746 1.19444C20.0364 1.92392 19.6281 2.6823 19.3685 3.49185C19.3825 3.53066 19.3809 3.58832 19.3715 3.60773C19.3711 3.64413 19.3847 3.67356 19.3649 3.71493C17.9853 3.84161 16.1923 3.99458 14.8067 4.11035C15.0593 3.69865 15.1874 3.21736 15.3411 2.76861C15.4894 2.37781 15.7274 1.99041 15.7254 1.56591C15.863 1.55632 16.001 1.54674 16.1389 1.53458ZM22.0363 1.08171C22.771 1.02444 23.6101 0.961737 24.3478 0.909796C24.6489 0.858932 25.0215 0.907933 25.0947 1.26195C25.1377 1.60607 25.173 2.18039 25.2073 2.53245C25.2597 2.80725 25.2067 3.1335 24.9055 3.23365C23.4305 3.40876 21.7953 3.49265 20.3079 3.63434C20.5573 3.22784 20.681 2.75087 20.8342 2.30896C20.9816 1.92921 21.1978 1.55339 21.2213 1.14305C21.4929 1.12303 21.7647 1.10199 22.0363 1.08171ZM3.31496 4.41806C3.26314 5.17447 3.93912 5.86378 4.7005 5.8157C11.3687 5.45444 18.043 4.79327 24.6938 4.19114C26.4394 4.07507 26.1831 2.5729 26.0164 1.29385C25.9654 0.330946 24.9852 -0.168835 24.112 0.0515189C17.6562 0.656043 11.0463 1.02728 4.67029 2.11224C4.73315 2.12357 4.83355 2.10361 4.88405 2.12319C4.82756 2.1732 4.69125 2.18092 4.86994 2.18954C4.71189 2.21758 4.53873 2.22482 4.38956 2.27195C6.07813 2.34196 7.77416 2.06784 9.46895 2.01466C9.1896 2.43601 9.04101 2.93462 8.88136 3.40622C8.7439 3.82451 8.4817 4.22373 8.46896 4.67059C7.39827 4.76733 6.33438 4.92044 5.26349 5.03823C4.72196 5.09547 4.05862 5.25153 3.90387 4.53872C3.93506 3.74126 3.28926 2.48792 4.38228 2.1855C3.02665 2.08438 3.33583 3.51971 3.31496 4.41806ZM16.5612 19.159C16.5054 19.803 15.9943 20.4759 15.3011 20.3648C16.17 19.751 16.1693 18.5743 15.1738 18.0852C13.7582 17.0549 12.3505 15.7795 10.9923 14.6616C10.6325 14.3807 10.0766 14.4593 9.77746 14.7915C9.43734 15.2135 9.48496 15.8336 9.35706 16.3413C9.21912 17.1453 9.07058 18.0903 8.9003 18.8924C8.79487 19.6537 8.46576 20.55 8.49022 21.3105C8.85875 22.5041 9.92057 21.9645 10.7484 21.6706C11.648 21.3426 12.5911 21.0629 13.5053 20.787C14.0854 20.6034 14.6615 20.3224 15.2716 20.283C15.2088 20.3416 15.1199 20.3666 15.045 20.41C15.1351 20.3969 15.0702 20.4287 15.0569 20.4745C15.0897 20.488 15.1359 20.4586 15.1724 20.4638C13.6028 21.363 11.8282 22.062 10.1174 22.6939C9.10278 23.1637 7.81299 22.4759 7.66226 21.3607C7.74154 19.6428 8.23651 17.8101 8.46389 16.0965C8.59972 14.9491 8.81471 13.7884 10.1542 13.5486C11.5407 13.2885 12.7718 15.0386 13.8027 15.781C14.6761 16.7099 16.7649 17.7643 16.5612 19.159ZM23.8184 15.3633C23.92 14.8458 24.0095 14.3289 24.1074 13.8121C20.5998 13.7032 17.1769 12.8428 13.7132 12.3491C10.1346 11.6594 6.37408 11.4355 2.97619 10.0546C2.30329 14.04 1.72561 18.0384 0.999605 22.0135C0.841873 22.5025 1.03913 23.0881 1.54644 23.2665C7.8397 24.444 14.2366 25.5297 20.5363 26.6856C21.2473 26.8945 21.8231 26.5368 21.8845 25.7871C22.491 22.4005 23.1885 18.7413 23.8184 15.3633ZM8.31964 10.4327C8.91586 9.85534 9.48739 9.24092 9.93731 8.54432C9.93616 8.51255 9.93621 8.4821 9.95338 8.46529C9.9455 8.43053 9.98261 8.43394 9.96896 8.39703C9.96919 8.36158 9.99969 8.33295 10.0171 8.30276C10.0502 8.26595 10.0363 8.19632 10.0809 8.16414C11.598 8.49371 13.1438 8.72078 14.6549 9.07142C14.0299 9.6823 13.4165 10.3178 12.9454 11.0527C12.9489 11.0939 12.9324 11.149 12.9182 11.1656C12.91 11.2 12.9115 11.2365 12.8824 11.2697C11.3568 10.981 9.82158 10.7319 8.29188 10.4602C8.30133 10.4513 8.31059 10.4421 8.31964 10.4327ZM15.5963 9.24539C15.5152 9.22998 15.434 9.21547 15.3525 9.20185C15.2604 9.62647 14.9137 9.94333 14.6671 10.2894C14.4053 10.6758 14.1644 11.1034 13.8193 11.4306C15.3153 11.6581 16.7899 12.0105 18.2761 12.2943C18.3097 12.2467 18.3401 12.1989 18.3428 12.1432C18.357 12.1266 18.3736 12.0711 18.3701 12.0303C18.8384 11.3016 19.4431 10.6692 20.0624 10.0677C18.5745 9.78748 17.0835 9.52823 15.5963 9.24539ZM21.5227 10.3365C24.2199 10.919 24.9221 10.316 24.1623 13.5156C22.5137 13.1634 20.8623 12.7603 19.1868 12.466C19.5569 12.1248 19.8169 11.6778 20.0919 11.2668C20.3363 10.9263 20.6704 10.6129 20.7752 10.1992C21.0239 10.2452 21.273 10.2912 21.5227 10.3365ZM22.7714 26.0834C23.5736 21.4139 24.4409 16.6475 25.2622 11.9753C25.4402 10.4092 24.2021 9.92265 22.8797 9.79766C17.6356 8.90469 9.62472 7.40192 5.41186 7.08137C5.30056 7.10736 5.12738 7.07471 5.37085 7.13994C5.12582 7.11137 4.86415 7.05662 4.62515 7.04872C6.1303 7.47477 7.69251 7.71135 9.23034 8.00222C8.83526 8.34763 8.54717 8.80152 8.26268 9.23321C8.02232 9.59373 7.68526 9.90938 7.54093 10.3229C6.04641 10.1036 4.52563 9.84562 3.02072 9.81113C3.29022 8.72915 3.0202 6.88316 4.64039 6.96377C3.46086 6.6461 2.89028 7.47257 2.74364 8.53785C1.66734 13.0565 0.831821 17.6303 0.00610936 22.2023C-0.122425 24.1357 1.61186 24.3147 3.08904 24.5431C5.25522 24.943 7.63314 25.3548 9.80314 25.7455C13.4849 26.384 17.1671 27.039 20.8502 27.6655C21.7823 27.7434 22.6724 27.0151 22.7714 26.0834Z" fill="#333333"/>
</svg>
