<svg width="26" height="22" viewBox="0 0 26 22" fill="none" xmlns="http://www.w3.org/2000/svg">
<path d="M16.1581 20.0434C16.9761 18.3995 17.8427 17.4298 18.4831 15.8947C19.2485 15.7253 19.5048 14.7343 19.591 14.3983C19.5957 14.3801 19.593 14.3623 19.5938 14.3442C19.8374 14.2444 20.049 14.0631 20.1787 13.8085C20.6135 12.9519 21.4075 11.2387 21.7177 10.3323C21.9919 10.2692 22.0702 10.0701 22.1085 9.78821C22.164 9.39825 22.4702 9.20504 22.6303 8.80473C22.8317 8.3064 22.6242 7.69507 22.1504 7.41624C21.9349 4.20248 18.2499 1.80036 15.1858 0.944446C14.5425 0.763891 13.6939 0.576587 12.8326 0.732867C12.085 0.864774 11.4436 1.29942 11.0661 1.91664C9.42376 0.856967 7.53895 0.206322 5.59909 0.0304248C3.88351 -0.129885 2.76593 0.343805 2.27577 1.43919C2.04867 1.96073 1.7481 2.60635 1.5873 3.39024C1.46917 3.96622 1.48074 4.50744 1.4606 4.96204C1.43705 4.98221 1.41568 5.00572 1.39985 5.03464C0.770845 6.19295 0.176688 7.29727 0.0798333 8.6022C-0.18704 9.76974 0.245548 11.0277 0.837222 12.0995C2.01311 14.2295 2.71229 14.0924 3.82016 14.8949C7.01995 17.2128 10.3888 19.3294 14.0354 20.823C14.3328 20.9448 14.6461 21.0641 14.9623 21.0697C15.0888 21.0721 15.214 21.0446 15.3281 20.9894C15.4586 20.9263 15.5801 20.8455 15.6893 20.7495C15.9805 20.4929 16.1064 20.1942 16.1581 20.0434ZM18.3194 15.396C18.1289 15.4186 17.9228 15.3292 17.6918 15.2184C14.2348 13.5785 10.6703 11.8792 7.38187 9.7214C7.73045 9.2687 8.12488 8.90414 8.6645 8.74989C12.002 10.8668 15.1188 12.6171 18.1498 14.0704C18.6668 14.3183 18.7877 14.3937 19.048 14.4215C18.8676 15.039 18.6292 15.3608 18.3194 15.396ZM18.9001 13.85C15.8924 12.4371 12.8043 10.731 9.50308 8.6635C9.84266 8.67612 10.1869 8.73149 10.5207 8.78921L20.3531 10.4902C20.6005 10.533 20.8548 10.5741 21.1006 10.5255C21.0542 10.6457 21.0047 10.7684 20.9515 10.8939C20.501 11.9503 20.0984 12.8254 19.7204 13.5692C19.5672 13.8706 19.2069 13.9938 18.9001 13.85ZM15.6973 19.8096C15.4943 20.2238 15.4223 20.2516 15.011 20.0464C10.9995 18.0465 9.73018 17.3999 5.23166 14.4566C5.69632 13.5039 5.51842 12.7625 6.74363 10.6863C8.76995 12.1779 9.64076 12.6144 11.1493 13.6399C11.8698 14.1296 16.1548 16.4099 17.4914 16.7487C16.8965 17.8107 16.3456 18.5081 15.6973 19.8096ZM1.63143 5.69507C1.64135 5.94302 1.69348 6.19336 1.89258 6.48244C2.29523 7.06708 2.84582 7.55526 3.46442 7.90007C3.3283 8.19514 3.19703 8.5028 3.07743 8.83467C2.73742 9.78674 2.3083 10.7157 1.93811 11.7328C-0.00596683 9.80073 0.32892 8.12941 1.63143 5.69507ZM3.86547 7.12262C2.26222 5.77206 1.42773 5.00206 2.12406 2.98451C2.39797 4.38147 3.51177 5.3185 4.64709 6.09979C4.3374 6.40139 4.08714 6.75186 3.86547 7.12262ZM21.5897 9.77719C21.4321 9.68983 22.3722 9.8964 9.3057 7.68718C8.42355 7.57311 7.58862 7.99178 7.13519 8.64831C6.82898 9.09135 6.55577 9.53204 6.57478 9.50235C4.99124 12.0713 4.44115 14.1192 4.34749 14.3587C4.3413 14.3775 4.33734 14.3963 4.33564 14.415C2.53852 13.2932 2.38548 13.2227 2.2726 12.9882C2.14259 12.7067 2.27287 12.3129 2.38115 12.0198C2.74105 11.0109 3.19621 10.0361 3.5619 9.01277C3.86617 8.16648 4.30575 7.2152 4.91392 6.56391C5.76712 5.67432 6.5677 5.86555 7.77838 6.01637C9.3447 6.19497 10.9321 6.39322 12.4817 6.59151C12.4817 6.59151 12.482 6.59166 12.4822 6.59134C12.9615 6.65061 21.5645 7.70498 21.8508 7.84222C21.9751 7.90181 22.079 8.0137 22.1395 8.15436C22.3894 8.7354 21.7114 8.91547 21.5897 9.77719ZM5.55231 0.550206C7.44623 0.722299 9.34694 1.37381 11.0166 2.50733C11.1493 2.59632 11.3276 2.54462 11.3938 2.39944C11.6666 1.79849 12.2376 1.36769 12.9224 1.24708C13.5155 1.13929 14.171 1.20131 15.0483 1.44787C17.8152 2.21969 21.2564 4.36239 21.6205 7.25548C19.2038 6.90224 7.66447 5.4297 6.70745 5.37832C6.11969 5.347 5.577 5.42253 5.06662 5.75769C4.02076 5.04005 3.13316 4.34262 2.73886 3.27748C2.53164 2.71524 2.53234 2.14147 2.74066 1.66341C3.13272 0.774114 4.05246 0.410112 5.55231 0.550206ZM22.1072 2.12775L21.0999 3.56467C21.0072 3.69702 21.0549 3.88224 21.2001 3.95183C21.3107 4.00488 21.4465 3.97145 21.5198 3.8668L22.5271 2.42987C22.5467 2.40193 22.5606 2.37035 22.5682 2.33694C22.5757 2.30354 22.5767 2.26895 22.571 2.23516C22.5654 2.20138 22.5532 2.16905 22.5352 2.14003C22.5172 2.11101 22.4938 2.08586 22.4662 2.06603C22.3517 1.98553 22.1894 2.0104 22.1072 2.12775ZM24.2487 3.50575C24.1565 3.39649 23.9939 3.38243 23.8856 3.47604C23.3945 3.8997 22.8576 4.26565 22.2852 4.5669C22.2247 4.59896 22.1791 4.65402 22.1585 4.72004C22.1379 4.78606 22.144 4.85765 22.1753 4.91917C22.207 4.98053 22.2613 5.0267 22.3265 5.04758C22.3916 5.06845 22.4622 5.06233 22.5229 5.03055C23.1295 4.71076 23.6986 4.3227 24.2194 3.87372C24.2713 3.82883 24.3036 3.76487 24.3091 3.69588C24.3146 3.62689 24.2929 3.55851 24.2487 3.50575ZM25.1723 5.43493C25.163 5.40197 25.1474 5.37119 25.1263 5.34435C25.1053 5.31751 25.0792 5.29513 25.0496 5.27851C25.02 5.26188 24.9875 5.25132 24.9539 5.24744C24.9203 5.24355 24.8862 5.24642 24.8537 5.25587L22.9308 5.81304C22.8651 5.83216 22.8096 5.8769 22.7765 5.93745C22.7434 5.99799 22.7353 6.06937 22.7541 6.13594C22.7729 6.20249 22.8171 6.25873 22.8768 6.2923C22.9366 6.32588 23.007 6.33404 23.0727 6.31499L24.9956 5.75782C25.0613 5.7387 25.1168 5.69396 25.1499 5.63342C25.183 5.57288 25.1911 5.50149 25.1723 5.43493Z" fill="#333333"/>
</svg>
