<svg width="25" height="24" viewBox="0 0 25 24" fill="none" xmlns="http://www.w3.org/2000/svg">
<path fill-rule="evenodd" clip-rule="evenodd" d="M21.396 2.95598C21.391 2.92474 21.4314 2.9308 21.4373 2.89969C21.4464 2.8511 21.4997 2.84059 21.4951 2.81842C21.4881 2.78416 21.5138 2.80541 21.5093 2.77956C21.5159 2.77584 21.5239 2.75735 21.522 2.7346C21.5998 2.63646 21.942 2.43315 22.0532 2.36223C22.2188 2.21734 22.5939 2.10861 22.7933 1.99414C22.7986 1.97502 22.828 2.00648 22.829 2.00275C22.8658 1.99474 22.927 1.96941 22.9628 1.97958C22.9868 1.98639 22.9832 1.92355 23.0113 1.95412L23.0448 1.95974C23.0567 1.91735 23.1196 1.96757 23.1324 1.97623C23.1323 1.97633 23.1504 1.9911 23.1413 2.02345C23.1624 2.03337 23.1562 2.04676 23.1705 2.06654C23.1819 2.08222 23.2119 2.06627 23.1942 2.1516C23.1791 2.28095 23.1636 2.45529 23.0235 2.53167C23.0176 2.55252 23.0028 2.53486 23.0012 2.54312C22.8377 2.69032 22.6888 2.78077 22.5053 2.93694C22.4477 2.98889 22.2687 3.1366 22.1884 3.19231C22.0986 3.2247 21.9819 3.29381 21.889 3.31753C21.7649 3.35951 21.5337 3.25633 21.4153 3.11316L21.3954 3.01459C21.4044 3.00489 21.4062 2.98723 21.396 2.95598ZM22.1598 7.56211C22.1688 7.48409 22.1511 7.52222 22.1947 7.46081C22.2062 7.46054 22.2107 7.42296 22.2287 7.41895C22.257 7.41261 22.2729 7.34313 22.3144 7.36352C22.3344 7.37339 22.3608 7.33554 22.3876 7.34075C22.4371 7.3504 22.4527 7.31693 22.4639 7.31821C22.4691 7.31947 22.4807 7.32031 22.4858 7.30844C22.496 7.31741 22.5146 7.29627 22.5303 7.28586C22.5907 7.27654 22.6874 7.26104 22.7365 7.28796C22.7932 7.30296 23.1353 7.32416 23.1641 7.33974C23.365 7.33272 23.7124 7.49307 23.9303 7.53374C23.9511 7.52551 23.9473 7.56375 23.9472 7.56401C23.9631 7.57152 24.0386 7.60777 24.0524 7.63113C24.0657 7.65375 24.1056 7.60217 24.1033 7.64241L24.1214 7.66843C24.1212 7.66901 24.1239 7.67085 24.1244 7.66891C24.1604 7.64711 24.1816 7.74105 24.1469 7.76991C24.0947 7.81966 24.1587 7.85479 24.0683 7.9133C23.9467 8.00523 23.8217 8.11884 23.658 8.0935C23.6362 8.10569 23.642 8.08236 23.6368 8.08956C23.4628 8.09407 23.3936 8.09163 23.216 8.06997C23.1321 8.09247 22.9279 8.0561 22.8355 8.07672C22.6227 8.07998 22.4912 8.04399 22.3093 7.96825C22.1773 7.88993 22.1371 7.69636 22.1598 7.56211ZM6.54514 5.26876C6.54748 5.26046 6.54135 5.24676 6.5639 5.23595C6.56769 5.2225 6.57223 5.25219 6.59083 5.17415C6.59431 5.15632 6.56629 5.14179 6.64236 5.09281C6.75751 5.00117 6.89454 4.88529 7.04959 4.91212C7.31281 4.91282 7.54133 4.93136 7.78708 4.93687C7.97544 4.91069 8.47085 4.96694 8.50436 5.16889C8.58023 5.3123 8.56809 5.49364 8.51594 5.54553C8.50552 5.5458 8.49842 5.58259 8.48198 5.58712C8.44686 5.59671 8.43687 5.66278 8.39627 5.64286C8.37662 5.63323 8.34963 5.67055 8.32322 5.66505C8.27219 5.65451 8.25547 5.68874 8.24361 5.68796C8.22258 5.68661 8.2281 5.70038 8.22186 5.69741C8.21173 5.68819 8.19621 5.70949 8.18039 5.72048L8.14865 5.72018C8.05171 5.75648 8.0193 5.71827 7.94885 5.71794C7.84895 5.70329 7.64724 5.67742 7.54658 5.66632C7.38596 5.68399 6.95186 5.50954 6.7773 5.47217C6.75839 5.48125 6.76881 5.44449 6.76045 5.44163L6.69121 5.40516C6.63466 5.35529 6.65777 5.36849 6.60932 5.37959C6.60821 5.2919 6.5467 5.3975 6.54514 5.26876ZM10.5246 0.13317C10.5232 0.124829 10.5747 0.0467229 10.6211 0.0618458L10.6222 0.0579062C10.7359 -0.00882263 10.6612 -0.00785918 10.9216 0.011334C11.0865 0.01985 11.1042 0.0532761 11.1809 0.141286C11.2554 0.204586 11.3872 0.345156 11.438 0.425572C11.6002 0.581267 11.8393 0.774732 11.9054 0.991385C11.9457 1.04117 11.973 1.1415 11.9379 1.20343C11.9342 1.22261 11.8068 1.51174 11.6258 1.5544C11.6175 1.54617 11.5835 1.57195 11.5691 1.56391C11.5469 1.55152 11.4747 1.59205 11.4708 1.55133C11.4691 1.533 11.4216 1.5436 11.4061 1.52145C11.3774 1.48065 11.3461 1.49798 11.3387 1.48935C11.3335 1.48528 11.3351 1.47966 11.3183 1.48288C11.3124 1.47256 11.2944 1.47202 11.2701 1.47323C11.2026 1.42486 11.1592 1.39598 11.1367 1.3368C11.0733 1.23909 10.9655 1.1332 10.9034 1.02429C10.896 0.989042 10.802 0.940594 10.7658 0.835226L10.6832 0.620248L10.5565 0.381276C10.5366 0.375109 10.5729 0.353263 10.5694 0.346613C10.5701 0.312441 10.5396 0.303556 10.5576 0.230295C10.5673 0.204278 10.4952 0.215481 10.5314 0.187692C10.5615 0.164688 10.5261 0.153047 10.5246 0.13317ZM21.0127 19.2326C21.2513 18.7424 21.1285 18.1988 20.7368 17.8518C20.473 17.5592 20.5988 17.0595 21.0652 16.867C21.8699 16.5703 22.2594 15.6318 21.8242 15.0086C21.6156 14.6716 21.2069 14.4974 20.8063 14.4549C20.208 14.3492 20.1176 13.6827 20.5403 13.355C20.7007 13.2308 20.7418 13.2084 20.8886 13.0447C21.4733 12.393 21.2113 11.2873 20.1108 11.1304C19.2051 11.0013 18.2939 10.8519 17.3874 10.7126C17.0194 10.6561 16.7335 10.4548 16.6149 10.1347C16.3781 9.77622 17.4594 6.70096 17.5102 6.26786C18.3422 4.34101 17.6518 2.10243 15.4654 1.53368C15.0195 3.07809 14.5157 4.85119 14.055 6.40403C13.8409 7.14149 13.616 7.87194 13.3857 8.59895C13.2389 9.16392 12.9159 9.81931 12.1555 9.75798C10.2185 9.40594 10.4413 9.23456 8.58393 9.62954C8.73548 9.91578 8.61025 10.2916 8.52725 10.5871C8.42236 10.9454 8.37429 11.2644 8.26818 11.6309C7.60723 14.5064 6.6391 17.8566 5.83079 20.7335C6.418 20.7981 6.82682 21.0493 7.36552 21.2371C9.24462 21.6652 11.286 21.7051 13.2015 22.0465C13.2015 22.0464 15.5448 22.4017 15.5448 22.4017C16.41 22.4967 17.8465 23.0154 18.4439 22.0942C18.7126 21.7447 18.7372 21.3155 18.5556 20.964C18.3815 20.627 18.596 20.2351 18.9638 20.1023C19.1929 20.0196 19.3144 20.0767 19.5215 20.0878C20.1405 20.1209 20.7618 19.7729 21.0127 19.2326ZM5.9281 20.8172C5.79423 20.8107 5.90507 20.8325 5.95603 20.8537C5.90165 20.8434 5.84664 20.8353 5.79111 20.8293L5.82128 20.756C5.88704 20.7711 5.96293 20.784 5.99743 20.8082C5.97431 20.8113 5.95122 20.8142 5.9281 20.8172ZM21.0166 13.7424L21.0195 13.7435C21.0103 13.742 21.0166 13.7424 21.0166 13.7424ZM21.0456 13.8878L21.0451 13.8895L21.042 13.8893L21.0419 13.8899L21.0456 13.8878ZM21.3343 17.4027C21.3373 17.4032 21.337 17.404 21.3397 17.4059L21.3343 17.4027ZM21.563 17.6637L21.389 17.4569C23.3125 16.6687 23.1701 14.1062 21.1985 13.7741C22.462 12.8176 22.1697 10.925 20.716 10.4954C20.1906 10.3435 19.6232 10.3224 19.0786 10.2094C16.6684 9.81528 17.4116 10.2586 17.9456 7.81684C18.6853 5.39268 19.484 3.04082 17.0522 1.37792C16.6475 1.1223 15.0274 0.229314 14.7648 0.994011C14.1579 3.15689 13.5707 5.32047 13.0445 7.49513L12.6347 8.99467C12.5835 9.17631 12.386 9.29782 12.1569 9.26778C10.7722 9.03242 9.90981 8.83379 8.5709 9.59664C8.46034 9.28166 8.1179 9.09159 7.75815 9.08242C7.91781 9.13889 8.02683 9.22884 8.0933 9.37224C8.45272 9.75369 8.09558 10.3552 7.91839 10.8623C7.57803 11.7364 7.15656 13.0334 6.89378 13.991C6.74727 14.5321 6.38273 15.743 6.2201 16.2915C5.80628 17.692 5.42363 19.1086 5.03371 20.5134C4.97333 20.7309 4.74787 20.8947 4.52859 20.8946C3.76539 20.7821 1.83961 20.5512 1.08402 20.3715C0.587563 20.1267 0.962673 19.545 1.02272 19.1324C1.21807 18.3909 2.18399 14.9202 2.40989 14.1075C2.79472 12.6473 3.30904 10.7703 3.7058 9.30471C3.83487 8.96946 4.20463 8.78137 4.57185 8.8394C5.34154 8.91999 6.13931 8.98159 6.91601 9.0561C7.01795 9.0561 7.85701 9.16598 7.40013 9.04286C7.47754 9.01088 7.53717 9.02975 7.42673 8.99362C7.50682 9.00069 7.70874 9.02369 7.77726 9.01417C7.49343 8.89959 7.10088 8.81287 6.78327 8.78184C6.34811 8.69309 5.8981 8.6009 5.37124 8.5315C4.16386 8.1632 3.22211 8.43404 2.96001 9.72714C2.95214 9.7935 2.25511 12.1165 2.23049 12.2486C1.58785 14.5466 0.667645 17.5133 0.0259117 19.8133C-0.123383 20.4561 0.389391 21.0904 1.08724 21.1505C1.7061 21.2448 2.32783 21.3448 2.9453 21.4438C3.90941 21.5916 5.16549 22.003 5.76022 20.8932C6.48347 21.1099 6.99589 21.4355 7.70787 21.6703C9.35934 21.965 11.1974 22.2457 12.8247 22.5477C13.9899 22.7302 16.2982 23.2143 17.4928 23.245C18.7863 23.1528 19.762 21.7499 19.2078 20.7038C20.9935 21.024 22.5693 19.0128 21.563 17.6637Z" fill="#333333"/>
</svg>
