<svg width="29" height="28" viewBox="0 0 29 28" fill="none" xmlns="http://www.w3.org/2000/svg">
<path d="M25.0121 23.3359C26.2772 19.9426 26.8409 16.3015 27.9915 12.8635C28.3783 11.6803 29.0085 10.1706 28.5613 8.93201C28.5406 8.8664 28.5036 8.80713 28.4538 8.75974C28.4039 8.71235 28.3428 8.67841 28.2763 8.66109C27.6736 7.60158 26.3463 7.42041 25.184 7.33807C25.0795 7.33169 24.9761 7.36308 24.8927 7.42653C24.8093 7.48997 24.7515 7.58125 24.7298 7.68374C24.7143 7.7454 24.7126 7.80974 24.7251 7.8721C24.7375 7.93446 24.7636 7.99327 24.8016 8.04428C24.8395 8.0953 24.8884 8.13722 24.9445 8.16703C25.0007 8.19684 25.0628 8.21378 25.1263 8.21662C26.0549 8.26521 27.059 8.31651 27.7025 9.01382C27.9409 10.2395 27.2685 11.3609 27.0325 12.5523C26.3064 15.5287 25.2774 18.4195 24.4702 21.3735C24.1627 22.5098 24.1311 23.5669 22.61 23.2056C20.7267 22.8595 18.7744 22.7378 16.9104 22.3196C12.6909 21.3682 8.38262 20.7296 4.14005 19.866C3.33675 19.739 3.43501 19.1704 3.55216 18.5319C3.98874 14.8074 4.58826 11.1065 5.3507 7.42952C5.44683 6.96773 5.46025 6.25972 5.74918 5.86734C5.8843 5.72811 6.04865 5.62062 6.23035 5.55264C6.41206 5.48464 6.6066 5.45785 6.79992 5.47418C7.62494 5.49727 8.44503 5.60962 9.24586 5.80925C9.8482 5.9232 10.4505 6.03761 11.0526 6.15249C11.4197 6.17162 11.1878 5.69729 11.2632 5.48738C11.2678 5.46566 11.2679 5.44322 11.2635 5.42145C11.2591 5.39967 11.2503 5.37903 11.2377 5.36078C11.225 5.34252 11.2088 5.32705 11.1899 5.3153C11.1711 5.30356 11.15 5.29579 11.1281 5.29247C8.86685 4.95784 4.88833 3.30808 4.42843 6.66732C3.58684 10.8833 2.74529 15.1174 2.45336 19.4042C0.572953 19.0156 -1.02759 21.3806 0.816871 22.5646C2.04756 23.1227 3.44061 23.2737 4.75109 23.595C9.22166 24.5328 13.7138 25.3606 18.2274 26.0784C19.7323 26.3176 21.2412 26.5159 22.7519 26.7155C23.9049 26.8675 25.1213 27.2191 26.2743 26.922C27.3134 26.6541 27.9836 25.7324 27.4973 24.6696C27.051 23.6954 26.0223 23.3624 25.0121 23.3359ZM12.1614 22.3666C12.1411 22.4046 12.16 22.3745 12.1826 22.337C13.0042 22.4827 13.8257 22.6306 14.6471 22.7807C14.2769 22.9936 13.8429 23.0674 13.4231 22.9888C13.0284 22.9058 12.3746 22.9022 12.1598 22.5181C12.1569 22.4825 12.1523 22.447 12.1461 22.4117C12.1479 22.4121 12.1508 22.3858 12.1489 22.3883C12.1533 22.3813 12.1578 22.3741 12.1614 22.3666ZM24.999 26.1294C17.0185 24.9856 9.01253 23.6281 1.16805 21.834C0.549132 21.4901 0.760568 20.7012 1.26293 20.3595C1.68494 20.1386 2.15667 20.0301 2.63275 20.0442C2.951 20.7291 3.79531 20.8859 4.47341 20.9877C6.77665 21.4075 9.08913 21.7869 11.393 22.1953C11.0802 23.2531 12.3329 23.6104 13.137 23.6986C13.9986 23.8945 15.0509 23.7467 15.5511 22.9383C17.5579 23.1871 19.5062 23.7269 21.4898 24.1089C22.3416 24.2747 23.3863 24.6436 24.1989 24.2231C25.1205 24.2676 26.3645 24.155 26.7816 25.1876C27.2762 26.4128 25.658 26.2095 24.999 26.1294Z" fill="#333333"/>
<path d="M9.15582 16.7009C9.16538 16.7829 9.20052 16.8598 9.25626 16.9207C9.31199 16.9816 9.38549 17.0234 9.46632 17.0401C9.97041 17.2014 10.4843 17.3453 10.9997 17.4679C11.3622 17.5546 11.8139 17.7064 12.1507 17.4648C12.514 17.2037 12.4823 16.6125 12.5304 16.22C12.6918 14.6771 12.926 13.1311 13.0396 11.5877C12.9697 10.4547 11.517 10.9685 10.7719 10.9057C10.1977 10.9228 10.2764 11.8174 10.8517 11.7967C11.3066 11.7858 11.7155 11.7537 12.1774 11.7593C12.047 13.4697 11.8481 15.1643 11.6855 16.8621C11.1135 16.7723 10.5512 16.6292 10.006 16.4347C10.2442 14.9444 10.4073 13.4431 10.4946 11.9365C10.5053 11.8522 10.4833 11.7671 10.4331 11.6987C10.3829 11.6302 10.3083 11.5836 10.2248 11.5685C10.1413 11.5533 10.0551 11.5708 9.98406 11.6173C9.91302 11.6638 9.86252 11.7357 9.84295 11.8184C9.58307 13.432 9.12446 15.0618 9.15582 16.7009ZM15.4796 13.3717C15.6735 11.9898 15.8194 10.6064 15.9883 9.22234C15.999 9.13812 15.977 9.05302 15.9268 8.98456C15.8766 8.9161 15.802 8.8695 15.7185 8.85437C15.6349 8.83923 15.5488 8.8567 15.4778 8.90319C15.4067 8.94967 15.3562 9.02163 15.3366 9.10424C14.7639 11.8298 14.333 14.5832 14.0456 17.3535C14.033 17.4308 14.0453 17.5102 14.0809 17.5801C14.1164 17.65 14.1733 17.7067 14.2433 17.7421C14.8893 18.0687 15.5773 18.3045 16.2878 18.443C17.6414 18.5925 17.4012 16.6498 17.5957 15.775C17.9586 13.495 18.1703 11.1856 18.5712 8.91296C19.0194 6.86478 17.647 7.55389 16.3474 7.73775C15.7851 7.83691 15.8609 8.73153 16.4282 8.62848L17.7701 8.38574C17.4364 11.3863 16.9587 14.3737 16.5986 17.3723C16.5473 17.658 16.5293 17.726 16.2359 17.6834C15.739 17.5973 15.2574 17.4391 14.8063 17.2136C15.1013 15.9448 15.2977 14.6606 15.4796 13.3717ZM20.8114 12.5068C21.1121 10.5755 21.3509 8.63973 21.6174 6.70462C21.628 6.6204 21.606 6.53529 21.5558 6.46683C21.5056 6.39838 21.431 6.35178 21.3475 6.33664C21.264 6.3215 21.1778 6.33898 21.1068 6.38546C21.0357 6.43195 20.9852 6.50391 20.9657 6.58651C20.4257 9.42331 19.8959 12.2619 19.4631 15.1181C19.3027 16.1193 19.2419 17.1361 19.0813 18.1416C19.0697 18.2177 19.0823 18.2955 19.1173 18.3641C19.1522 18.4327 19.2078 18.4886 19.2762 18.524C19.8701 18.8897 20.7562 19.3973 21.4844 19.368C22.1292 19.3417 22.301 18.6447 22.3985 18.1199C22.7588 16.1793 23.0155 14.2132 23.3116 12.2624C23.609 10.2994 23.8644 8.32209 24.2261 6.3712C24.3998 5.69272 24.7486 4.01381 23.4873 4.33483C22.9695 4.43966 22.4467 4.65656 21.942 4.81262C21.3923 4.98252 21.6992 5.82517 22.2488 5.65333C22.5508 5.5587 23.1489 5.29081 23.5223 5.20671C22.941 9.37312 22.288 13.5045 21.7075 17.672C21.6797 17.8623 21.6566 18.5288 21.427 18.628C21.2488 18.7053 20.6979 18.4326 20.5312 18.367C20.2879 18.2676 20.0517 18.1519 19.8242 18.0206C20.2133 16.19 20.535 14.3569 20.8114 12.5068ZM11.5468 7.58633C13.2585 6.22097 14.9688 4.85407 16.6776 3.48562C17.2195 3.05243 17.4597 3.18501 17.9643 3.58141C18.3356 3.93413 18.8113 4.15694 19.3199 4.21641C19.8286 4.27589 20.3429 4.16881 20.7855 3.91125C22.0428 3.28696 23.2803 2.58727 24.5736 2.03652C24.4418 2.29817 24.3587 2.58156 24.3282 2.87292C24.3396 2.96995 24.3787 3.06165 24.4409 3.13705C24.503 3.21244 24.5855 3.26835 24.6786 3.29809C24.7717 3.32784 24.8713 3.33015 24.9657 3.30476C25.06 3.27937 25.1451 3.22735 25.2106 3.15492C25.3497 2.96513 25.4556 2.75318 25.5239 2.52805C25.6981 2.14284 25.8508 1.74826 25.9813 1.34612C25.9958 1.21842 25.9829 1.08908 25.9435 0.966745C25.9041 0.844412 25.839 0.7319 25.7526 0.636722C25.6662 0.541545 25.5605 0.465893 25.4426 0.41482C25.3246 0.363746 25.1971 0.338426 25.0686 0.34055C24.4676 0.209608 23.8681 0.0861217 23.2574 0.00608132C23.1515 -0.0115152 23.0427 0.00939299 22.9509 0.0650216C22.8591 0.120651 22.7902 0.207323 22.7567 0.309347C22.5974 0.88704 23.2686 0.919141 23.6548 1.05998C22.5689 1.69955 21.4206 2.27705 20.2924 2.82037C20.0287 2.98961 19.72 3.07517 19.4068 3.06584C18.708 2.82718 18.2606 2.0706 17.4825 1.9813C16.2945 1.7952 15.2242 3.14467 14.4254 3.83244L10.9935 6.7876C10.5284 7.18825 11.0516 7.98107 11.5468 7.58633Z" fill="#333333"/>
</svg>
