<svg width="29" height="30" viewBox="0 0 29 30" fill="none" xmlns="http://www.w3.org/2000/svg">
<path d="M20.2353 2.17457C15.4287 2.18368 10.4521 0.15737 5.13964 0.0456069L4.84081 3.24981e-06L3.89289 0.772716C3.24019 1.32838 3.7055 0.569381 0.014518 24.4694C-0.0701745 25.0243 0.206199 25.5034 0.580982 25.91C0.689508 26.0576 0.883414 26.2183 1.018 26.1951L1.02451 26.1524C7.62194 27.2903 14.3663 27.7516 20.4058 29.1102C20.5766 29.1362 20.7669 29.0342 20.793 28.8635C22.1978 23.0931 22.4681 15.8827 23.9983 7.85989C24.1416 6.92071 23.6713 6.28104 23.6843 6.19566C23.1909 5.42141 22.6874 4.4272 22.0558 3.41344C21.6542 2.60953 20.718 2.16085 20.2353 2.17457ZM20.2047 28.4242C14.4575 27.154 7.68349 26.6008 1.46376 25.5642C2.24982 21.272 2.66402 16.2679 3.35681 10.8694C4.82042 2.13743 4.80739 2.22281 5.21268 0.712019C10.3052 0.833898 15.4163 2.83706 20.2165 2.87064L20.3019 2.88367L19.3082 6.53257C19.1808 7.08103 19.536 7.61577 20.0975 7.65777L23.2826 7.9691C21.8408 15.6996 21.5408 22.8181 20.2047 28.4242ZM23.3377 7.32224C20.1591 6.96821 20.0968 7.08977 19.9521 6.89295C19.8074 6.69613 19.9847 6.6795 20.8865 3.06026C21.1231 3.22742 21.3532 3.43727 21.4914 3.67678C23.2878 6.79041 23.3174 6.8823 23.3377 7.32224Z" fill="#333333"/>
<path d="M10.3771 19.5418L7.05682 16.1082L11.2008 13.8575C11.5815 13.6534 11.2754 13.0825 10.8948 13.2866C8.12561 14.8298 6.99681 15.3564 6.56048 15.6393C6.27177 15.8137 6.07495 15.9584 6.33469 16.2601C6.59443 16.5619 7.43589 17.3456 9.95737 20.0019C9.95085 20.0446 10.6795 19.85 10.3771 19.5418ZM14.9439 13.9482C14.6414 13.6399 14.1856 14.0509 14.4815 14.4018L17.6606 17.9012L13.3589 20.0405C12.9783 20.2445 13.2843 20.8154 13.6649 20.6114C16.5983 19.137 17.7271 18.6103 18.1996 18.3766C18.6721 18.1429 18.5701 17.9526 18.3169 17.6082C17.8994 17.195 17.0283 16.3194 14.9439 13.9482ZM15.445 7.51566C15.8719 7.58081 15.9696 6.94045 15.5427 6.87531L7.85847 5.70264C7.43156 5.63749 7.33384 6.27785 7.76074 6.34299L15.445 7.51566ZM9.56146 10.2873L15.8369 11.245C16.2638 11.3101 16.3615 10.6698 15.9346 10.6046L9.65918 9.64693C9.23228 9.58178 9.13456 10.2221 9.56146 10.2873ZM16.1356 24.7453L8.02449 23.5075C7.59759 23.4424 7.49987 24.0827 7.92677 24.1479L16.0379 25.3857C16.4648 25.4508 16.5625 24.8105 16.1356 24.7453ZM24.1968 3.69649C24.288 3.09882 24.5565 2.48453 24.9335 2.01785C25.2056 1.66621 24.6962 1.28269 24.4241 1.63433C23.9849 2.22256 23.7099 2.87955 23.5564 3.59876C23.4486 4.01915 24.0889 4.11687 24.1968 3.69649ZM27.1967 2.93114C26.2517 3.3985 25.3595 4.09235 24.6677 4.90415C24.4022 5.2131 24.8623 5.6328 25.1706 5.33037C25.8067 4.59743 26.6432 3.98245 27.5028 3.50205C27.6439 3.43622 27.7191 3.22928 27.6533 3.08818C27.594 2.90439 27.3871 2.82913 27.1967 2.93114ZM25.6582 6.71531C27.6943 7.1134 27.6089 7.10037 27.6516 7.10688C28.0785 7.17203 28.1762 6.53168 27.7493 6.46653L25.7559 6.07496C25.3782 5.97363 25.2313 6.65016 25.6582 6.71531Z" fill="#333333"/>
</svg>
