<svg width="23" height="24" viewBox="0 0 23 24" fill="none" xmlns="http://www.w3.org/2000/svg">
<path d="M9.7 22.1646C10.1704 21.6812 10.5351 21.0774 10.8624 20.4618C11.1919 19.8483 11.502 19.2129 11.9269 18.6761C12.3367 18.1206 12.8973 17.7477 13.5545 17.4133C14.202 17.0746 14.9353 16.7802 15.6075 16.2444C16.2727 15.7006 16.803 14.955 17.1356 14.118C17.8021 12.4434 17.881 10.4826 17.335 8.65488C17.1982 8.19728 17.005 7.76101 16.7805 7.34575C16.6511 7.15062 16.5373 6.93631 16.3932 6.76031L15.9664 6.22825C15.3679 5.57037 14.6693 5.02589 13.9003 4.61799C13.161 4.2206 12.3617 3.96615 11.5395 3.86638C10.7382 3.76984 9.9336 3.7823 9.1784 3.97483C8.42653 4.16451 7.71041 4.45562 7.093 4.88335C6.47903 5.3128 5.93714 5.81567 5.50676 6.39302C4.61821 7.54402 4.30415 8.98377 4.33646 10.2076C4.35808 11.4463 4.62987 12.5201 4.88496 13.4329C5.17027 14.3125 5.11732 15.1076 5.02253 15.7573C4.92255 16.4045 4.77886 16.8997 4.69188 17.2377C4.60167 17.5747 4.55881 17.7555 4.58101 17.7649C4.60061 17.7729 4.67524 17.6326 4.78757 17.3655C4.97628 17.7591 5.88488 18.7776 7.28939 19.5162C8.55615 20.1949 9.74978 20.3892 10.2668 20.363C10.1458 20.5932 10.0223 20.8171 9.89131 21.0243C9.76025 20.8728 9.35816 20.7601 8.90018 20.6286C8.34839 20.4786 7.87305 20.3435 7.76922 20.5148C7.66494 20.6775 8.05892 21.1461 8.72864 21.3317C9.10819 21.4383 9.44765 21.4171 9.67112 21.3451C9.56667 21.4916 9.45396 21.6312 9.3336 21.763C9.27889 21.8201 9.22057 21.8697 9.16404 21.9225C8.95285 21.9203 8.68486 21.945 8.42782 21.9493C8.17485 21.9466 7.95418 21.9009 7.78862 21.853C7.62187 21.8077 7.49265 21.7486 7.41104 21.8035C7.33457 21.8514 7.33118 22.0502 7.50905 22.2705C7.60654 22.3942 7.76308 22.5028 7.94896 22.5778C6.93555 22.747 5.97865 22.2689 5.34423 21.7011C5.02152 21.4105 4.75522 21.0867 4.57957 20.7586C4.39899 20.4297 4.32346 20.0851 4.29731 19.7705C4.2561 19.1341 4.40121 18.6284 4.47526 18.2924C4.55905 17.9544 4.60427 17.7742 4.58101 17.7649C4.56054 17.7564 4.47263 17.9177 4.34555 18.2465C4.22912 18.5749 4.03273 19.0754 4.03366 19.7828C4.03945 20.1321 4.1059 20.5351 4.29313 20.9212C4.41775 21.1819 4.59499 21.4266 4.79334 21.6638C4.72816 21.7752 4.67081 21.9398 4.65921 22.166C4.63117 22.6439 4.8931 23.3754 5.58025 23.7178C6.25801 24.036 6.92655 23.8133 7.26776 23.5488C7.4766 23.392 7.58785 23.235 7.63828 23.1141C7.7678 23.1133 7.89928 23.1067 8.03291 23.0844C8.64622 23.0106 9.23674 22.6363 9.7 22.1646ZM6.4168 18.1816C6.69704 17.6936 7.06534 16.9787 7.39341 16.2573C7.66925 15.6657 7.90322 15.0527 8.09336 14.4237L8.44518 13.3418C8.48286 13.2355 8.52712 13.132 8.57766 13.032C8.97087 13.0285 9.18952 12.999 9.43002 12.982C9.55294 12.9735 9.72051 12.954 9.85392 12.9237C10.4097 12.8011 10.8694 12.601 11.2698 12.6427C11.66 12.6714 12.0606 12.9339 12.2239 13.2626C12.2612 13.3339 12.2824 13.4107 12.2986 13.4884C12.2045 13.3783 12.0882 13.2926 11.9584 13.238C11.7094 13.0884 11.3535 13.1037 11.0989 13.2462C10.8362 13.3796 10.6047 13.6588 10.5501 14.0067C10.499 14.3373 10.5778 14.701 10.8439 14.9635C11.0161 15.1231 11.215 15.1826 11.4046 15.197C11.2511 15.3931 11.0919 15.5808 10.9304 15.7543C10.6989 16.002 10.4443 16.2388 10.2346 16.5002C9.70197 17.1486 9.34746 17.8692 9.12415 18.6674C9.02921 19.0189 8.97372 19.3001 8.94294 19.51C8.05106 19.1287 7.28421 18.7304 6.4168 18.1816ZM8.27684 12.3042C7.82517 12.2803 7.4067 12.1207 7.11752 11.8412C7.05182 11.7748 7.00268 11.7066 6.97383 11.6401C6.94065 11.5606 6.92001 11.4758 6.91275 11.3891C6.87493 10.8549 7.42915 10.3429 7.93762 10.3715C8.28088 10.3803 8.52263 10.5998 8.61244 10.9442C8.70636 11.2913 8.62914 11.6516 8.46644 12.0104C8.42304 12.1079 8.37519 12.2059 8.32523 12.3052C8.30987 12.3043 8.29244 12.3058 8.27684 12.3042ZM11.2573 14.4602C11.1837 14.3989 11.1342 14.2458 11.1543 14.1171C11.1686 13.9961 11.2493 13.8841 11.3676 13.8171C11.4899 13.7543 11.6032 13.7365 11.7197 13.8044C11.8782 13.8674 11.9305 13.9501 11.9576 14.04C11.9855 14.1245 11.9532 14.2702 11.8954 14.4128C11.6583 14.5392 11.3452 14.5651 11.2576 14.4609L11.2573 14.4602ZM9.08475 19.5703C9.15269 19.3716 9.24468 19.1006 9.37344 18.7631C9.65815 18.0376 10.0143 17.4015 10.552 16.8151C10.7539 16.5886 11.0008 16.3817 11.2621 16.1269C11.6009 15.7943 11.9403 15.425 12.2014 15.0162C12.3228 14.9496 12.4386 14.8668 12.5402 14.7634C12.9998 14.3218 13.1197 13.5223 12.8116 12.9274C12.5022 12.3307 11.9405 11.9882 11.3269 11.9226C10.7021 11.8716 10.1828 12.1218 9.72435 12.2102C9.52396 12.2533 9.43952 12.2506 8.99572 12.2896L8.96402 12.2913L8.97173 12.2771C9.16987 11.8814 9.32773 11.327 9.18941 10.7788C9.12524 10.5083 8.98762 10.2316 8.76226 10.0276C8.53769 9.82173 8.24728 9.71789 7.96627 9.70239C7.39398 9.66966 6.83769 9.98569 6.5072 10.4987C6.32823 10.7726 6.2398 11.1025 6.2559 11.4362C6.26311 11.6093 6.31042 11.776 6.3709 11.933C6.44238 12.1032 6.54779 12.2437 6.65908 12.3574C7.03783 12.7353 7.52574 12.9261 8.00994 12.9948C7.99029 13.0485 7.96762 13.1006 7.95037 13.1561L7.6419 14.2494C7.46241 14.9502 7.2541 15.5615 7.0464 16.0928L6.50951 17.4545C6.40966 17.7024 6.32746 17.9098 6.26204 18.0834C5.56303 17.6328 5.06217 17.2616 4.85413 17.2026C5.17018 16.3989 5.39854 15.5505 5.4209 14.6795C5.43477 14.2608 5.3727 13.7836 5.25124 13.3235C5.03285 12.4132 4.80711 11.3639 4.81729 10.2067C4.8209 9.05854 5.1282 7.79511 5.94478 6.77231C6.34339 6.25722 6.84811 5.80608 7.40761 5.42706C7.97283 5.04696 8.62567 4.79516 9.30916 4.62991C9.99603 4.46296 10.7293 4.46112 11.4585 4.55441C12.2073 4.65167 12.9341 4.88936 13.6056 5.25655C14.9545 5.99512 16.2202 7.22744 16.6907 8.8834C17.1851 10.5254 17.1147 12.3434 16.5257 13.8346C16.233 14.582 15.776 15.2231 15.2168 15.691C14.3763 16.3796 13.2235 16.7138 12.2927 17.4277C11.9819 17.6657 11.7037 17.9489 11.4662 18.2692C11.0046 18.8749 10.6978 19.5316 10.3903 20.1296C10.1631 19.9998 9.68683 19.8234 9.08432 19.5701L9.08475 19.5703ZM7.05343 23.0897C6.73517 23.1938 6.26887 23.2519 5.86069 23.0553C5.46547 22.8652 5.21978 22.436 5.13839 22.1193C5.12942 22.0868 5.12592 22.0598 5.11977 22.0292C5.70834 22.5877 6.36478 22.9368 7.10916 23.0702C7.08952 23.0767 7.07394 23.0836 7.05343 23.0897ZM1.11085 11.9967C0.487812 12.1207 -0.0137788 12.3241 -4.17915e-05 12.5257C0.0134035 12.7244 0.570961 12.8431 1.23386 12.7119C1.89742 12.5817 2.37853 12.2586 2.32482 12.068C2.27039 11.8742 1.73418 11.8757 1.11085 11.9967ZM2.46509 7.10839C3.00709 7.45623 3.53112 7.60368 3.63507 7.4369C3.73903 7.27012 3.37282 6.84396 2.81519 6.48498C2.25759 6.12714 1.73335 5.98015 1.64481 6.15739C1.5556 6.33375 1.92287 6.75987 2.46509 7.10839ZM4.65563 3.19589C4.88057 3.61364 5.15682 3.91932 5.3325 3.84488C5.50654 3.77299 5.49735 3.30463 5.24609 2.83506C4.99546 2.36525 4.62239 2.11929 4.47613 2.24203C4.32737 2.3669 4.43299 2.77648 4.65563 3.19589ZM10.0669 2.22805C10.2515 2.19229 10.3168 1.66491 10.2135 1.05045C10.1103 0.435981 9.87584 -0.0336488 9.6908 0.00189264C9.50619 0.0376485 9.44092 0.565031 9.5446 1.17971C9.64829 1.79439 9.88229 2.26381 10.0669 2.22805ZM14.8947 2.34714C15.1732 1.75442 15.3272 1.2161 15.1699 1.10315C15.0161 0.991924 14.5877 1.38217 14.288 2.01997C13.9871 2.65713 13.9483 3.25774 14.1239 3.32365C14.3024 3.39151 14.6147 2.93855 14.8947 2.34714ZM18.9912 6.12102C19.7093 5.82529 20.2044 5.38788 20.1227 5.20859C20.0402 5.02727 19.4351 5.15959 18.7463 5.44348C18.0582 5.72939 17.527 6.06744 17.5805 6.26081C17.633 6.45194 18.274 6.41831 18.9912 6.12102ZM19.0541 10.9042C19.0519 11.1052 19.7538 11.277 20.6225 11.2885C21.4911 11.3005 22.1972 11.1471 22.1993 10.9466C22.202 10.7458 21.4996 10.5737 20.6309 10.5622C19.7622 10.5507 19.0568 10.7034 19.0541 10.9042ZM18.2341 15.8102C18.1194 15.9655 18.495 16.4811 19.1454 16.8283C19.7944 17.1777 20.4058 17.1905 20.4537 16.9993C20.5047 16.8033 20.0327 16.4937 19.4499 16.1783C18.8643 15.8678 18.3503 15.649 18.2341 15.8102ZM15.8426 19.6184C15.6712 19.6961 15.7212 20.2363 16.0135 20.7926C16.3044 21.3498 16.7087 21.6775 16.8609 21.5616C17.0145 21.4448 16.877 20.9565 16.6063 20.4374C16.3335 19.9195 16.0162 19.539 15.8426 19.6184Z" fill="#333333"/>
</svg>
