<svg width="22" height="17" viewBox="0 0 22 17" fill="none" xmlns="http://www.w3.org/2000/svg">
<path d="M21.8574 2.28094C21.8689 2.00235 21.8145 1.72498 21.6986 1.47136C21.5827 1.21775 21.4087 0.995034 21.1906 0.821314C19.2146 -0.927027 16.7458 0.637833 16.536 0.77836C15.9983 1.09348 15.4776 1.43674 14.9761 1.80671C13.1614 3.11566 9.74225 5.94709 7.31673 10.2212L7.31319 10.238C6.81078 11.3496 6.42165 12.5089 6.1517 13.6985C6.1291 13.8059 6.10738 13.9091 6.09797 14.0061C5.98304 14.5515 5.99745 15.1163 6.14006 15.6552C5.06514 15.5389 4.36178 15.2348 4.08349 14.7496C3.74669 14.1664 3.92782 13.2327 4.64051 11.8941C4.79745 11.6082 4.93343 11.3113 5.04738 11.0057C5.29146 10.316 5.27703 9.82047 5.00152 9.47884C4.84163 9.29092 4.62329 9.16212 4.38149 9.11307C3.76434 8.96339 2.78684 9.10507 1.28609 9.539C0.908213 9.64197 0.725032 9.60342 0.670729 9.54801C0.35255 9.08526 1.52319 6.77225 2.85786 4.80818L2.9906 4.61624C3.01878 4.58167 3.03949 4.54163 3.05142 4.49865C3.06336 4.45567 3.06625 4.41069 3.05992 4.36654C3.05359 4.32239 3.03818 4.28002 3.01466 4.24213C2.99114 4.20423 2.96002 4.17162 2.92327 4.14635C2.88651 4.12108 2.84492 4.10371 2.80111 4.09533C2.7573 4.08694 2.71223 4.08773 2.66874 4.09763C2.62525 4.10754 2.58429 4.12636 2.54844 4.15289C2.51259 4.17942 2.48262 4.2131 2.46044 4.2518C1.72568 5.30869 -0.616105 8.85061 0.152132 9.9226C0.391845 10.2567 0.830349 10.3358 1.45545 10.1551C3.63727 9.51493 4.30893 9.6563 4.49024 9.88135C4.57945 9.99028 4.71323 10.368 4.06713 11.5887C3.22834 13.1712 3.06373 14.2668 3.51945 15.0685C3.84218 15.6245 4.45457 15.9953 5.38521 16.1912C5.83323 16.2805 6.28796 16.3321 6.7446 16.3453L6.7825 16.3533C7.24782 16.4513 7.96922 16.1369 9.03434 15.3804C10.0341 14.6515 10.991 13.8655 11.9001 13.0262L11.9172 13.0078C11.9599 12.9618 16.1042 8.42945 18.6424 6.04366C18.6424 6.04366 18.6455 6.02892 18.6595 6.02526C19.1293 5.55991 19.6354 5.13263 20.173 4.74747C20.2515 4.69804 21.7891 3.57705 21.8574 2.28094ZM15.1864 2.45785C15.7302 2.78356 16.2296 3.17837 16.6719 3.63242C14.062 5.847 11.5641 8.25007 9.63206 11.0779C9.53849 10.8734 9.39873 10.6934 9.22378 10.5522C9.36074 10.3611 9.56728 10.0902 9.83101 9.75649C10.6402 8.70254 11.5215 7.7059 12.4685 6.77373C12.7007 6.54777 12.9371 6.33366 13.1725 6.13473C13.1847 6.12623 13.195 6.11529 13.2028 6.10259C13.2106 6.08989 13.2157 6.07571 13.2177 6.06095C13.2197 6.04619 13.2187 6.03117 13.2146 6.01685C13.2105 6.00252 13.2035 5.9892 13.194 5.97772C13.1845 5.96625 13.1727 5.95688 13.1594 5.9502C13.146 5.94351 13.1315 5.93967 13.1166 5.93891C13.1017 5.93815 13.0869 5.94048 13.0729 5.94577C13.059 5.95106 13.0463 5.95918 13.0357 5.96962C11.3168 7.40866 9.60527 9.6694 9.06087 10.4277C8.8347 10.2855 8.58441 10.1859 8.32238 10.1338L8.14973 10.0975C10.4079 6.30488 13.4422 3.73544 15.1864 2.45785ZM6.89816 15.7202C6.75398 15.5799 6.55537 15.1863 6.72309 14.1178C6.90756 14.1508 7.08827 14.2021 7.26255 14.2709C7.69314 14.434 8.07657 14.7013 8.37851 15.0489C7.19094 15.8544 6.90869 15.7224 6.90658 15.722L6.89816 15.7202ZM8.91018 14.6749C8.39849 14.0704 7.69768 13.6564 6.9213 13.4999L6.84972 13.4848C7.09159 12.5375 7.40794 11.6108 7.79582 10.7134C8.54959 10.7049 9.20808 11.1909 9.10164 12.0414C9.0303 12.6311 9.54923 12.2236 10.2491 12.283C10.6212 12.3019 11.0998 12.3367 11.3017 12.6936C10.9325 13.0271 9.92067 13.9377 8.91861 14.6767L8.91018 14.6749ZM11.7631 12.2146C11.5319 11.9376 11.2081 11.7538 10.8517 11.6974C10.5817 11.6439 10.3061 11.6235 10.0311 11.6368C10.6867 10.6116 12.6764 7.83334 17.0026 4.19235L17.0941 4.11267C17.4874 4.59411 17.8109 5.12852 18.0551 5.70016C15.9264 7.72799 12.7814 11.1163 11.7631 12.2146ZM18.5615 5.23726C18.2509 4.59057 17.8538 3.98917 17.381 3.44964C16.9048 2.91342 16.3588 2.44354 15.7577 2.05257C16.2081 1.74059 16.547 1.53047 16.7232 1.42463C18.3269 2.16235 19.2563 3.70142 19.5936 4.36607C19.2346 4.63822 18.8901 4.92902 18.5615 5.23726ZM20.115 3.96788C19.7417 3.25688 19.2634 2.6062 18.6962 2.03777L18.6235 1.9653C18.5466 1.89195 18.4692 1.8207 18.3876 1.74856C18.0816 1.48238 17.7506 1.2463 17.3992 1.0436C17.6643 0.919648 17.9411 0.822482 18.2255 0.753552C19.2111 0.521226 20.0659 0.701143 20.7581 1.31957C20.9047 1.42675 21.0234 1.56771 21.1039 1.7305C21.1845 1.8933 21.2246 2.07312 21.2209 2.25472C21.1791 2.89235 20.5577 3.57734 20.115 3.96788Z" fill="#333333"/>
</svg>
