<svg width="171" height="171" viewBox="0 0 171 171" fill="none" xmlns="http://www.w3.org/2000/svg">
<g clip-path="url(#clip0_95_1250)">
<path fill-rule="evenodd" clip-rule="evenodd" d="M80.0386 122.966C99.3361 133.423 121.407 141.103 143.29 139.599C151.252 139.052 158.622 136.756 166.189 134.474C166.719 134.314 167.022 133.752 166.863 133.218C166.701 132.685 166.138 132.382 165.605 132.544C158.184 134.782 150.96 137.051 143.152 137.587C121.58 139.071 99.8351 131.432 80.8295 121.103L80.9649 120.797C82.4432 117.488 81.5275 112.658 79.1123 107.588C75.6515 100.322 69.2075 92.5134 63.4084 88.2006C60.8021 86.2631 58.3047 85.0316 56.2452 84.7742C54.6395 84.5725 53.262 84.9335 52.1978 85.8942C49.9312 87.9431 50.0108 91.4385 51.8076 95.4912C55.563 103.968 66.5932 115.131 72.5754 118.711C74.4439 119.829 76.3442 120.927 78.2737 121.997C78.0295 122.586 77.788 123.162 77.5279 123.712C76.7821 125.275 75.8664 126.642 74.1015 127.578C71.3493 129.036 68.0503 129.288 64.6744 128.911C59.4061 128.319 53.9521 126.177 49.9365 124.338C27.5736 114.093 16.4983 96.3246 10.5586 78.4868C4.5631 60.4712 3.7775 42.3706 2.00195 31.6934C1.91172 31.1441 1.39153 30.7751 0.84214 30.8654C0.292755 30.9556 -0.0788094 31.4758 0.0140819 32.0252C1.80025 42.7714 2.60971 60.9887 8.64764 79.1238C14.7413 97.4366 26.1404 115.654 49.0952 126.172C53.2779 128.088 58.9629 130.299 64.4488 130.915C68.2467 131.339 71.9491 131 75.0463 129.359C77.8251 127.886 78.9292 125.588 80.0386 122.966ZM79.0566 120.126L79.1256 119.975C80.4181 117.082 79.4043 112.888 77.2916 108.456C73.9661 101.473 67.7796 93.9651 62.2035 89.8195C60.2926 88.3969 58.4639 87.3752 56.8556 86.9452C55.5285 86.5922 54.3767 86.6427 53.5513 87.3911C52.7684 88.0944 52.4578 89.0631 52.4711 90.1911C52.4844 91.5154 52.925 93.0362 53.6495 94.6738C57.259 102.819 67.8619 113.541 73.6105 116.981C75.3967 118.048 77.212 119.099 79.0566 120.126Z" fill="#888888"/>
<path fill-rule="evenodd" clip-rule="evenodd" d="M168.651 131.597C168.551 132.095 168.212 132.72 167.839 133.389C166.954 134.982 165.693 136.679 165.132 137.504C164.772 138.035 164.912 138.755 165.44 139.115C165.971 139.476 166.692 139.338 167.052 138.807C167.739 137.797 169.414 135.532 170.315 133.654C170.797 132.647 171.048 131.716 170.993 131.048C170.901 129.909 170 129.198 168.215 129.24C166.102 129.292 162.18 130.352 158.895 129.079C158.3 128.847 157.626 129.146 157.397 129.741C157.165 130.339 157.461 131.011 158.059 131.243C161.191 132.455 164.842 131.872 167.299 131.628C167.766 131.582 168.322 131.588 168.651 131.597Z" fill="#888888"/>
</g>
<defs>
<clipPath id="clip0_95_1250">
<rect width="171" height="171" fill="white"/>
</clipPath>
</defs>
</svg>
