<svg xmlns="http://www.w3.org/2000/svg" width="13" height="13" viewBox="0 0 13 13" fill="none">
  <path d="M11.6269 4.70643L11.2 4.56413V4.56413L11.6269 4.70643ZM9.74852 10.3412L10.1754 10.4836L9.74852 10.3412ZM2.59489 3.1395L2.73719 3.56641H2.73719L2.59489 3.1395ZM8.19363 1.27333L8.05133 0.84642V0.84642L8.19363 1.27333ZM1.81315 6.45086L1.49496 6.76907L1.49496 6.76907L1.81315 6.45086ZM1.98273 6.62043L2.30092 6.30223L2.30092 6.30223L1.98273 6.62043ZM4.98135 10.53L4.92083 10.0841H4.92083L4.98135 10.53ZM5.02421 10.5242L5.08472 10.9701H5.08472L5.02421 10.5242ZM6.32543 10.963L6.64362 10.6448H6.64362L6.32543 10.963ZM6.47618 11.1137L6.15799 11.4319H6.15799L6.47618 11.1137ZM5.46175 10.4856L5.48885 10.0364H5.48885L5.46175 10.4856ZM6.00061 10.6673L6.25106 10.2934L6.00061 10.6673ZM2.26972 6.93471L2.64199 6.68189L2.64199 6.68189L2.26972 6.93471ZM2.41237 7.92466L2.85738 7.99146V7.99146L2.41237 7.92466ZM2.45639 7.50136L2.90603 7.48343L2.90603 7.48342L2.45639 7.50136ZM2.30541 9.39903L2.74398 9.29825L2.30541 9.39903ZM3.50557 10.6162L3.6125 10.1791H3.6125L3.50557 10.6162ZM0.531675 4.22202L0.947463 4.39412L0.947463 4.39412L0.531675 4.22202ZM0.451892 4.55997L0.900751 4.59199L0.451892 4.55997ZM8.70018 12.3587L8.88144 12.7705L8.88144 12.7705L8.70018 12.3587ZM8.31609 12.4493L8.29402 11.9999H8.29402L8.31609 12.4493ZM12.1573 0.742886L12.4755 0.424682V0.424682L12.1573 0.742886ZM2.53182 9.732C2.35609 9.90774 2.35609 10.1927 2.53182 10.3684C2.70756 10.5441 2.99248 10.5441 3.16822 10.3684L2.85002 10.0502L2.53182 9.732ZM12.1682 1.3684C12.344 1.19266 12.344 0.907737 12.1682 0.732001C11.9925 0.556265 11.7076 0.556265 11.5318 0.732001L11.85 1.0502L12.1682 1.3684ZM11.6269 4.70643L11.2 4.56413L9.32161 10.1989L9.74852 10.3412L10.1754 10.4836L12.0538 4.84874L11.6269 4.70643ZM2.59489 3.1395L2.73719 3.56641L8.33593 1.70024L8.19363 1.27333L8.05133 0.84642L2.45259 2.71259L2.59489 3.1395ZM1.81315 6.45086L1.49496 6.76907L1.66454 6.93864L1.98273 6.62043L2.30092 6.30223L2.13135 6.13266L1.81315 6.45086ZM4.98135 10.53L5.04186 10.9759L5.08472 10.9701L5.02421 10.5242L4.96369 10.0783L4.92083 10.0841L4.98135 10.53ZM6.32543 10.963L6.00723 11.2812L6.15799 11.4319L6.47618 11.1137L6.79437 10.7955L6.64362 10.6448L6.32543 10.963ZM5.02421 10.5242L5.08472 10.9701C5.3236 10.9377 5.38286 10.9317 5.43465 10.9348L5.46175 10.4856L5.48885 10.0364C5.32847 10.0267 5.16675 10.0507 4.96369 10.0783L5.02421 10.5242ZM6.32543 10.963L6.64362 10.6448C6.49872 10.4999 6.38455 10.3829 6.25106 10.2934L6.00061 10.6673L5.75016 11.0412C5.79326 11.07 5.83677 11.1107 6.00724 11.2812L6.32543 10.963ZM5.46175 10.4856L5.43465 10.9348C5.5474 10.9416 5.65631 10.9783 5.75016 11.0412L6.00061 10.6673L6.25106 10.2934C6.02434 10.1416 5.76124 10.0528 5.48885 10.0364L5.46175 10.4856ZM1.98273 6.62043L1.66454 6.93864C1.82975 7.10384 1.86926 7.14602 1.89745 7.18752L2.26972 6.93471L2.64199 6.68189C2.55466 6.55329 2.44135 6.44265 2.30092 6.30223L1.98273 6.62043ZM2.41237 7.92466L2.85738 7.99146C2.88686 7.79507 2.91222 7.63875 2.90603 7.48343L2.45639 7.50136L2.00674 7.51929C2.00874 7.56942 2.00203 7.62682 1.96735 7.85787L2.41237 7.92466ZM2.26972 6.93471L1.89745 7.18752C1.96415 7.28574 2.00201 7.40067 2.00674 7.51929L2.45639 7.50136L2.90603 7.48342C2.8946 7.19683 2.80313 6.91917 2.64199 6.68189L2.26972 6.93471ZM2.41237 7.92466L1.96735 7.85787C1.90947 8.24348 1.86288 8.5526 1.84069 8.80252C1.81839 9.05364 1.81667 9.28148 1.86684 9.4998L2.30541 9.39903L2.74398 9.29825C2.72499 9.2156 2.71804 9.09738 2.73716 8.88213C2.75638 8.66568 2.79785 8.38811 2.85738 7.99146L2.41237 7.92466ZM4.98135 10.53L4.92083 10.0841C4.52337 10.138 4.24523 10.1756 4.02852 10.1917C3.81301 10.2078 3.69489 10.1992 3.6125 10.1791L3.50557 10.6162L3.39863 11.0533C3.61623 11.1065 3.84407 11.108 4.09549 11.0892C4.34571 11.0706 4.65546 11.0283 5.04186 10.9759L4.98135 10.53ZM2.30541 9.39903L1.86684 9.4998C2.04278 10.2655 2.63546 10.8666 3.39863 11.0533L3.50557 10.6162L3.6125 10.1791C3.17978 10.0732 2.84374 9.73239 2.74398 9.29825L2.30541 9.39903ZM2.59489 3.1395L2.45259 2.71259C1.83993 2.91681 1.33892 3.08289 0.971164 3.25949C0.601217 3.43715 0.274519 3.66667 0.115887 4.04991L0.531675 4.22202L0.947463 4.39412C0.978404 4.31937 1.05877 4.21582 1.36076 4.0708C1.66495 3.92472 2.10076 3.77855 2.73719 3.56641L2.59489 3.1395ZM1.81315 6.45086L2.13135 6.13266C1.65698 5.65831 1.33255 5.33267 1.12581 5.06599C0.920558 4.80124 0.894996 4.67268 0.900751 4.59199L0.451892 4.55997L0.0030323 4.52795C-0.0264795 4.94168 0.163079 5.29308 0.41452 5.61742C0.664471 5.93983 1.03831 6.31243 1.49496 6.76907L1.81315 6.45086ZM0.531675 4.22202L0.115887 4.04991C0.0528627 4.20217 0.0147572 4.36358 0.0030323 4.52795L0.451892 4.55997L0.900751 4.59199C0.905604 4.52396 0.921377 4.45715 0.947463 4.39412L0.531675 4.22202ZM9.74852 10.3412L9.32161 10.1989C9.11513 10.8184 8.97289 11.2425 8.83132 11.5396C8.69061 11.8349 8.59036 11.9153 8.51892 11.9468L8.70018 12.3587L8.88144 12.7705C9.25046 12.6081 9.47175 12.2878 9.64379 11.9267C9.81496 11.5675 9.97665 11.0799 10.1754 10.4836L9.74852 10.3412ZM6.47618 11.1137L6.15799 11.4319C6.60246 11.8764 6.96518 12.2402 7.27892 12.485C7.59426 12.731 7.93547 12.9185 8.33815 12.8988L8.31609 12.4493L8.29402 11.9999C8.21605 12.0037 8.09039 11.9765 7.83248 11.7754C7.57298 11.5729 7.25607 11.2572 6.79437 10.7955L6.47618 11.1137ZM8.70018 12.3587L8.51892 11.9468C8.44782 11.9781 8.3716 11.9961 8.29402 11.9999L8.31609 12.4493L8.33815 12.8988C8.52556 12.8896 8.7097 12.8461 8.88144 12.7705L8.70018 12.3587ZM11.6269 4.70643L12.0538 4.84874C12.4234 3.73977 12.7181 2.85948 12.8384 2.18325C12.9581 1.51028 12.9348 0.883907 12.4755 0.424682L12.1573 0.742886L11.8391 1.06109C11.973 1.19492 12.0589 1.42683 11.9523 2.02561C11.8464 2.62114 11.5793 3.4261 11.2 4.56413L11.6269 4.70643ZM8.19363 1.27333L8.33593 1.70024C9.47399 1.3209 10.279 1.05382 10.8745 0.947883C11.4734 0.841362 11.7053 0.927253 11.8391 1.06109L12.1573 0.742886L12.4755 0.424682C12.0163 -0.0345358 11.3899 -0.0579221 10.7169 0.0617928C10.0407 0.182088 9.16035 0.476763 8.05133 0.84642L8.19363 1.27333ZM2.85002 10.0502L3.16822 10.3684L12.1682 1.3684L11.85 1.0502L11.5318 0.732001L2.53182 9.732L2.85002 10.0502Z" fill="#111111"/>
</svg>