<svg width="290" height="320" viewBox="0 0 290 320" fill="none" xmlns="http://www.w3.org/2000/svg">
<g clip-path="url(#clip0_399_3400)">
<path d="M160.951 44.5283C182.542 18.0047 193.331 4.74168 205.592 6.90363C217.853 9.06559 223.455 25.2188 234.672 57.5274L237.577 65.8892C240.763 75.075 242.356 79.6679 245.495 83.0649C248.634 86.4619 252.985 88.2838 261.688 91.9275L269.593 95.2439C300.172 108.072 315.449 114.477 317.095 127.329C318.729 140.166 305.64 150.954 279.45 172.515L272.674 178.089C265.239 184.214 261.508 187.28 259.337 191.49C257.164 195.712 256.781 200.611 256.017 210.395L255.326 219.311C252.627 253.772 251.286 270.997 240.042 276.77C228.798 282.544 215.092 273.052 187.708 254.072L180.604 249.162C172.826 243.759 168.934 241.07 164.442 240.278C159.949 239.486 155.373 240.681 146.216 243.098L137.874 245.285C105.636 253.752 89.511 257.984 80.9305 248.728C72.3286 239.442 76.959 222.796 86.2092 189.491L88.6069 180.889C91.2377 171.421 92.553 166.687 91.9401 161.986C91.3553 157.278 88.8978 153.12 84.0042 144.834L79.5449 137.266C62.3069 108.061 53.6967 93.4469 59.6255 81.9301C65.5544 70.4134 82.1294 69.6114 115.249 68.0288L123.812 67.6164C133.223 67.1665 137.922 66.9404 142.046 64.8241C146.171 62.7079 149.226 58.9346 155.362 51.3925L160.951 44.5283Z" stroke="#F9C135" stroke-width="19.7205"/>
</g>
<defs>
<clipPath id="clip0_399_3400">
<rect width="315.528" height="315.528" fill="white" transform="translate(54.791 -46.3873) rotate(10)"/>
</clipPath>
</defs>
</svg>
