<svg width="310" height="304" viewBox="0 0 310 304" fill="none" xmlns="http://www.w3.org/2000/svg">
<g clip-path="url(#clip0_399_3370)">
<path d="M263.378 304.931L145.55 284.155C90.0054 274.361 62.2332 269.464 48.015 249.158C33.8045 228.878 38.7036 201.094 48.4976 145.55L69.2739 27.7212M259.194 121.956L214.298 161.737C207.427 167.839 203.985 170.889 200.451 172.052C197.77 172.93 194.919 173.163 192.13 172.733C189.342 172.302 186.694 171.22 184.402 169.575C181.383 167.402 179.028 163.464 174.294 155.582C169.561 147.701 167.206 143.763 164.187 141.59C161.895 139.949 159.248 138.87 156.462 138.442C153.675 138.014 150.827 138.248 148.147 139.126C144.616 140.277 141.174 143.328 134.305 149.418L89.3953 189.209" stroke="#292929" stroke-width="17.9469" stroke-linecap="round"/>
</g>
<defs>
<clipPath id="clip0_399_3370">
<rect width="287.151" height="287.151" fill="white" transform="translate(49.8633) rotate(10)"/>
</clipPath>
</defs>
</svg>
